SplineFontDB: 3.0
FontName: Lancelot-Regular
FullName: Lancelot Regular
FamilyName: Lancelot
Weight: Regular
Copyright: Copyright (c) 2011, Marion Kadi (www.marion.korkork.com), with Reserved Font Name Lancelot.
Version: 1.002
ItalicAngle: 0
UnderlinePosition: 0
UnderlineWidth: 50
Ascent: 1381
Descent: 667
sfntRevision: 0x00010000
LayerCount: 2
Layer: 0 1 "Back"  1
Layer: 1 1 "Fore"  0
XUID: [1021 288 713564382 12433215]
FSType: 0
OS2Version: 2
OS2_WeightWidthSlopeOnly: 0
OS2_UseTypoMetrics: 1
CreationTime: 1314114667
ModificationTime: 1318865550
PfmFamily: 17
TTFWeight: 400
TTFWidth: 5
LineGap: 0
VLineGap: 0
Panose: 2 0 0 0 0 0 0 0 0 0
OS2TypoAscent: 1595
OS2TypoAOffset: 0
OS2TypoDescent: -668
OS2TypoDOffset: 0
OS2TypoLinegap: 0
OS2WinAscent: 1595
OS2WinAOffset: 0
OS2WinDescent: 668
OS2WinDOffset: 0
HheadAscent: 1595
HheadAOffset: 0
HheadDescent: 668
HheadDOffset: 0
OS2SubXSize: 1434
OS2SubYSize: 1331
OS2SubXOff: 0
OS2SubYOff: 290
OS2SupXSize: 1434
OS2SupYSize: 1331
OS2SupXOff: 0
OS2SupYOff: 1000
OS2StrikeYSize: 209
OS2StrikeYPos: 600
OS2Vendor: 'KORK'
OS2CodePages: 20000111.40000000
OS2UnicodeRanges: 80000027.00000041.00000000.00000000
Lookup: 1 0 0 "'titl' Titling in Latin lookup 0"  {"'titl' Titling in Latin lookup 0 subtable"  } ['titl' ('DFLT' <'dflt' > 'latn' <'dflt' > ) ]
Lookup: 258 0 0 "'kern' Horizontal Kerning in Latin lookup 0"  {"'kern' Horizontal Kerning in Latin lookup 0 per glyph data 0"  "'kern' Horizontal Kerning in Latin lookup 0 per glyph data 1"  "'kern' Horizontal Kerning in Latin lookup 0 kerning class 2"  } ['kern' ('latn' <'dflt' > ) ]
MarkAttachClasses: 1
DEI: 91125
KernClass2: 9+ 7 "'kern' Horizontal Kerning in Latin lookup 0 kerning class 2" 
 11 A Adieresis
 3 V W
 3 k x
 3 v w
 11 y ydieresis
 17 D D.alt1 O O.alt1
 25 Y Y.alt1 Yacute Ydieresis
 8 L L.alt1
 8 P P.alt1
 3 V W
 25 Y Y.alt1 Yacute Ydieresis
 11 a aacute ae
 5 c e o
 40 period comma quotesinglbase quotedblbase
 7 m n p r

StartChar: .notdef
Encoding: 65536 -1 0
Width: 388
Flags: W
LayerCount: 2
Fore
SplineSet
0 0 m 0,0,-1
EndSplineSet
EndChar

StartChar: A
Encoding: 65 65 1
Width: 1055
Flags: W
LayerCount: 2
Fore
SplineSet
305 1206 m 1,0,1
 428 1206 428 1206 495 1165 c 1,2,3
 588 1106 588 1106 644 944 c 0,4,5
 846 355 846 355 900 213 c 0,6,7
 956 65 956 65 1037 49 c 1,8,-1
 1082 41 l 1,9,-1
 1082 0 l 1,10,-1
 670 0 l 1,11,-1
 670 42 l 1,12,-1
 747 59 l 1,13,14
 794 71 794 71 795 111 c 0,15,16
 795 135 795 135 781 176 c 2,17,-1
 707 398 l 1,18,-1
 302 398 l 1,19,20
 217 129 217 129 215 112 c 1,21,22
 215 68 215 68 285 52 c 1,23,-1
 344 41 l 1,24,-1
 344 0 l 1,25,-1
 -33 0 l 1,26,-1
 -33 42 l 1,27,-1
 23 52 l 2,28,29
 97 66 97 66 152 225 c 2,30,-1
 368 852 l 2,31,32
 427 1025 427 1025 430.5 1060 c 128,-1,33
 434 1095 434 1095 407 1095 c 0,34,35
 375 1095 375 1095 346.5 1084 c 128,-1,36
 318 1073 318 1073 310 1073 c 0,37,38
 262 1073 262 1073 245 1117 c 0,39,40
 240 1132 240 1132 240 1148 c 1,41,42
 247 1203 247 1203 305 1206 c 1,0,1
507 1014 m 1,43,-1
 323 460 l 1,44,-1
 688 460 l 1,45,-1
 507 1014 l 1,43,-1
EndSplineSet
Substitution2: "'titl' Titling in Latin lookup 0 subtable" A.alt1
EndChar

StartChar: A.alt1
Encoding: 65537 -1 2
Width: 1059
Flags: W
LayerCount: 2
Fore
SplineSet
-28 0 m 1,0,-1
 -28 42 l 1,1,-1
 28 52 l 2,2,3
 101 65 101 65 156 225 c 1,4,-1
 505 1221 l 1,5,-1
 564 1221 l 1,6,-1
 908 202 l 2,7,8
 954 66 954 66 1042 49 c 1,9,-1
 1087 41 l 1,10,-1
 1087 0 l 1,11,-1
 675 0 l 1,12,-1
 675 42 l 1,13,-1
 751 59 l 1,14,15
 799 71 799 71 800 111 c 0,16,17
 800 135 800 135 786 176 c 2,18,-1
 712 398 l 1,19,-1
 306 398 l 1,20,21
 221 128 221 128 220 112 c 1,22,23
 220 68 220 68 290 52 c 1,24,-1
 349 41 l 1,25,-1
 349 0 l 1,26,-1
 -28 0 l 1,0,-1
512 1014 m 1,27,-1
 328 460 l 1,28,-1
 693 460 l 1,29,-1
 512 1014 l 1,27,-1
EndSplineSet
EndChar

StartChar: Aacute
Encoding: 193 193 3
Width: 1174
Flags: W
LayerCount: 2
Fore
SplineSet
735 1073 m 0,0,1
 765 1073 765 1073 783.5 1095 c 128,-1,2
 802 1117 802 1117 802 1148 c 256,3,4
 802 1179 802 1179 783 1192.5 c 128,-1,5
 764 1206 764 1206 737 1206 c 0,6,7
 672 1206 672 1206 624.5 1194 c 128,-1,8
 577 1182 577 1182 541.5 1159.5 c 128,-1,9
 506 1137 506 1137 481 1105 c 128,-1,10
 456 1073 456 1073 437 1034 c 128,-1,11
 418 995 418 995 401.5 949 c 128,-1,12
 385 903 385 903 368 852 c 2,13,-1
 152 225 l 2,14,15
 144 201 144 201 132 172.5 c 128,-1,16
 120 144 120 144 104.5 119 c 128,-1,17
 89 94 89 94 68.5 75 c 128,-1,18
 48 56 48 56 23 52 c 2,19,-1
 -33 42 l 1,20,-1
 -33 0 l 1,21,-1
 344 0 l 1,22,-1
 344 41 l 1,23,-1
 285 52 l 1,24,25
 244 61 244 61 229.5 76.5 c 128,-1,26
 215 92 215 92 215 112 c 0,27,28
 215 119 215 119 217.5 130 c 128,-1,29
 220 141 220 141 229 170 c 128,-1,30
 238 199 238 199 255 252.5 c 128,-1,31
 272 306 272 306 302 398 c 1,32,-1
 707 398 l 1,33,-1
 781 176 l 2,34,35
 787 158 787 158 791 141.5 c 128,-1,36
 795 125 795 125 795 111 c 0,37,38
 795 92 795 92 785 78.5 c 128,-1,39
 775 65 775 65 747 59 c 2,40,-1
 670 42 l 1,41,-1
 670 0 l 1,42,-1
 1082 0 l 1,43,-1
 1082 41 l 1,44,-1
 1037 49 l 2,45,46
 991 57 991 57 959.5 97 c 128,-1,47
 928 137 928 137 903 202 c 0,48,49
 881 261 881 261 855 334 c 128,-1,50
 829 407 829 407 802 483.5 c 128,-1,51
 775 560 775 560 749.5 635 c 128,-1,52
 724 710 724 710 702.5 773 c 128,-1,53
 681 836 681 836 665.5 881 c 128,-1,54
 650 926 650 926 644 944 c 0,55,56
 626 995 626 995 618 1025.5 c 128,-1,57
 610 1056 610 1056 610 1072 c 128,-1,58
 610 1088 610 1088 616.5 1092.5 c 128,-1,59
 623 1097 623 1097 640 1097 c 0,60,61
 670 1096 670 1096 694.5 1084.5 c 128,-1,62
 719 1073 719 1073 735 1073 c 0,0,1
507 1014 m 1,63,-1
 688 460 l 1,64,-1
 323 460 l 1,65,-1
 507 1014 l 1,63,-1
497 1248 m 1,66,67
 596 1292 596 1292 639.5 1367.5 c 128,-1,68
 683 1443 683 1443 687 1517 c 1,69,70
 746 1517 746 1517 767.5 1493.5 c 128,-1,71
 789 1470 789 1470 789 1438 c 0,72,73
 789 1382 789 1382 718 1320.5 c 128,-1,74
 647 1259 647 1259 497 1227 c 1,75,-1
 497 1248 l 1,66,67
EndSplineSet
EndChar

StartChar: Aring
Encoding: 197 197 7
Width: 1317
Flags: W
LayerCount: 2
Fore
SplineSet
642 1474 m 0,0,1
 707 1474 707 1474 745.5 1433 c 128,-1,2
 784 1392 784 1392 784 1335 c 0,3,4
 784 1285 784 1285 753.5 1249 c 128,-1,5
 723 1213 723 1213 685 1202 c 1,6,-1
 891 566 l 1,7,8
 961 359 961 359 1016 212 c 128,-1,9
 1071 65 1071 65 1152 49 c 1,10,-1
 1198 41 l 1,11,-1
 1198 0 l 1,12,-1
 786 0 l 1,13,-1
 786 42 l 1,14,-1
 862 59 l 1,15,16
 910 71 910 71 911 111 c 0,17,18
 911 137 911 137 896 176 c 1,19,-1
 823 398 l 1,20,-1
 417 398 l 1,21,-1
 346 178 l 1,22,23
 331 124 331 124 331 112 c 0,24,25
 331 68 331 68 401 52 c 1,26,-1
 460 41 l 1,27,-1
 460 0 l 1,28,-1
 83 0 l 1,29,-1
 83 42 l 1,30,-1
 139 52 l 2,31,32
 215 66 215 66 267 225 c 1,33,-1
 607 1201 l 1,34,35
 563 1215 563 1215 536 1250 c 128,-1,36
 509 1285 509 1285 509 1335 c 0,37,38
 509 1391 509 1391 548 1432.5 c 128,-1,39
 587 1474 587 1474 642 1474 c 0,0,1
623 1014 m 1,40,-1
 438 460 l 1,41,-1
 804 460 l 1,42,-1
 623 1014 l 1,40,-1
649 1425 m 0,43,44
 605 1425 605 1425 581.5 1397.5 c 128,-1,45
 558 1370 558 1370 557 1335 c 1,46,47
 557 1293 557 1293 583.5 1269 c 128,-1,48
 610 1245 610 1245 645 1245 c 0,49,50
 690 1245 690 1245 712 1271.5 c 128,-1,51
 734 1298 734 1298 735 1335 c 0,52,53
 735 1371 735 1371 709 1398 c 128,-1,54
 683 1425 683 1425 649 1425 c 0,43,44
EndSplineSet
EndChar

StartChar: AE
Encoding: 198 198 9
Width: 1697
Flags: W
LayerCount: 2
Fore
SplineSet
927 153 m 2,0,-1
 927 398 l 1,1,-1
 513 398 l 1,2,3
 316 132 316 132 315 112 c 1,4,5
 315 68 315 68 385 52 c 1,6,-1
 443 41 l 1,7,-1
 443 0 l 1,8,-1
 54 0 l 1,9,-1
 54 42 l 1,10,-1
 117 52 l 1,11,12
 177 52 177 52 363 307 c 1,13,-1
 922 1105 l 1,14,15
 917 1121 917 1121 900.5 1125.5 c 128,-1,16
 884 1130 884 1130 879 1131 c 2,17,-1
 810 1146 l 1,18,-1
 810 1190 l 1,19,-1
 1529 1190 l 1,20,-1
 1529 1006 l 1,21,-1
 1490 1006 l 1,22,23
 1469 1127 1469 1127 1392 1128 c 1,24,-1
 1061 1128 l 1,25,-1
 1061 619 l 1,26,-1
 1293 619 l 2,27,28
 1330 619 1330 619 1337.5 630.5 c 128,-1,29
 1345 642 1345 642 1353 679 c 2,30,-1
 1364 725 l 1,31,-1
 1407 725 l 1,32,-1
 1407 453 l 1,33,-1
 1364 453 l 1,34,35
 1349 535 1349 535 1333 548 c 0,36,37
 1322 557 1322 557 1291 557 c 2,38,-1
 1061 557 l 1,39,-1
 1061 62 l 1,40,-1
 1460 62 l 1,41,42
 1524 68 1524 68 1544 157 c 0,43,44
 1548 174 1548 174 1548 184 c 1,45,-1
 1588 184 l 1,46,-1
 1588 0 l 1,47,-1
 805 0 l 1,48,-1
 805 42 l 1,49,-1
 874 57 l 2,50,51
 911 65 911 65 919 80 c 0,52,53
 927 97 927 97 927 153 c 2,0,-1
551 460 m 1,54,-1
 927 460 l 1,55,-1
 927 991 l 1,56,-1
 551 460 l 1,54,-1
EndSplineSet
EndChar

StartChar: B
Encoding: 66 66 10
Width: 963
Flags: W
LayerCount: 2
Fore
SplineSet
171 210 m 2,0,-1
 171 980 l 2,1,2
 171 1071 171 1071 156 1099 c 0,3,4
 141 1126 141 1126 94 1136 c 2,5,-1
 35 1148 l 1,6,-1
 35 1190 l 1,7,-1
 455 1190 l 2,8,9
 611 1190 611 1190 698 1116 c 128,-1,10
 785 1042 785 1042 786 918 c 0,11,12
 786 794 786 794 688 708 c 0,13,14
 644 669 644 669 593 650 c 1,15,16
 730 637 730 637 800 548 c 128,-1,17
 870 459 870 459 870 325 c 0,18,19
 870 190 870 190 749 95 c 128,-1,20
 628 0 628 0 398 0 c 2,21,-1
 35 0 l 1,22,-1
 35 42 l 1,23,-1
 93 54 l 2,24,25
 148 65 148 65 159 98 c 0,26,27
 171 131 171 131 171 210 c 2,0,-1
390 618 m 2,28,-1
 305 618 l 1,29,-1
 305 62 l 1,30,31
 544 62 544 62 632 134 c 128,-1,32
 720 206 720 206 720 349 c 0,33,34
 720 575 720 575 505 610 c 0,35,36
 457 618 457 618 390 618 c 2,28,-1
403 1128 m 1,37,-1
 305 1128 l 1,38,-1
 305 680 l 1,39,-1
 393 680 l 2,40,41
 569 680 569 680 620 817 c 0,42,43
 636 861 636 861 636 911 c 0,44,45
 634 1127 634 1127 403 1128 c 1,37,-1
EndSplineSet
Substitution2: "'titl' Titling in Latin lookup 0 subtable" B.alt1
EndChar

StartChar: B.alt1
Encoding: 65538 -1 11
Width: 963
Flags: W
LayerCount: 2
Fore
SplineSet
171 210 m 2,0,-1
 171 980 l 2,1,2
 171 1071 171 1071 156 1099 c 0,3,4
 141 1126 141 1126 94 1136 c 2,5,-1
 35 1148 l 1,6,-1
 35 1190 l 1,7,-1
 455 1190 l 2,8,9
 611 1190 611 1190 698 1116 c 128,-1,10
 785 1042 785 1042 786 918 c 0,11,12
 786 794 786 794 688 708 c 0,13,14
 644 669 644 669 593 650 c 1,15,16
 730 637 730 637 800 548 c 128,-1,17
 870 459 870 459 870 325 c 0,18,19
 870 190 870 190 749 95 c 128,-1,20
 628 0 628 0 398 0 c 2,21,-1
 35 0 l 1,22,-1
 35 42 l 1,23,-1
 93 54 l 2,24,25
 148 65 148 65 159 98 c 0,26,27
 171 131 171 131 171 210 c 2,0,-1
390 618 m 2,28,-1
 305 618 l 1,29,-1
 305 62 l 1,30,31
 544 62 544 62 632 134 c 128,-1,32
 720 206 720 206 720 349 c 0,33,34
 720 575 720 575 505 610 c 0,35,36
 457 618 457 618 390 618 c 2,28,-1
403 1128 m 1,37,-1
 305 1128 l 1,38,-1
 305 680 l 1,39,-1
 393 680 l 2,40,41
 569 680 569 680 620 817 c 0,42,43
 636 861 636 861 636 911 c 0,44,45
 634 1127 634 1127 403 1128 c 1,37,-1
EndSplineSet
EndChar

StartChar: C
Encoding: 67 67 12
Width: 1149
Flags: W
LayerCount: 2
Fore
SplineSet
645 1201 m 1,0,1
 840 1200 840 1200 999 1110 c 0,2,3
 1036 1090 1036 1090 1052 1076 c 2,4,-1
 1068 1061 l 1,5,-1
 1068 833 l 1,6,-1
 1019 833 l 1,7,8
 1014 875 1014 875 976 941 c 0,9,10
 865 1133 865 1133 641 1134 c 0,11,12
 457 1134 457 1134 330 984 c 0,13,14
 196 826 196 826 196 610 c 0,15,16
 196 451 196 451 265 307 c 0,17,18
 392 40 392 40 673 39 c 0,19,20
 919 39 919 39 993 217 c 0,21,22
 1013 266 1013 266 1019 324 c 1,23,-1
 1068 324 l 1,24,-1
 1068 98 l 1,25,26
 874 -33 874 -33 636 -33 c 0,27,28
 351 -33 351 -33 193 174 c 0,29,30
 59 350 59 350 59 585 c 0,31,32
 59 872 59 872 227.5 1036.5 c 128,-1,33
 396 1201 396 1201 645 1201 c 1,0,1
EndSplineSet
Substitution2: "'titl' Titling in Latin lookup 0 subtable" C.alt1
EndChar

StartChar: C.alt1
Encoding: 65539 -1 13
Width: 1149
Flags: W
LayerCount: 2
Fore
SplineSet
645 1201 m 1,0,1
 840 1200 840 1200 999 1110 c 0,2,3
 1036 1090 1036 1090 1052 1076 c 2,4,-1
 1068 1061 l 1,5,-1
 1068 833 l 1,6,-1
 1019 833 l 1,7,8
 1014 875 1014 875 976 941 c 0,9,10
 865 1133 865 1133 641 1134 c 0,11,12
 457 1134 457 1134 330 984 c 0,13,14
 196 826 196 826 196 610 c 0,15,16
 196 451 196 451 265 307 c 0,17,18
 392 40 392 40 673 39 c 0,19,20
 919 39 919 39 993 217 c 0,21,22
 1013 266 1013 266 1019 324 c 1,23,-1
 1068 324 l 1,24,-1
 1068 98 l 1,25,26
 874 -33 874 -33 636 -33 c 0,27,28
 351 -33 351 -33 193 174 c 0,29,30
 59 350 59 350 59 611 c 128,-1,31
 59 872 59 872 227.5 1036.5 c 128,-1,32
 396 1201 396 1201 645 1201 c 1,0,1
EndSplineSet
EndChar

StartChar: Ccedilla
Encoding: 199 199 15
Width: 1150
Flags: W
LayerCount: 2
Fore
SplineSet
558 -176 m 1,0,-1
 617 -32 l 1,1,2
 375 -23 375 -23 221.5 144.5 c 128,-1,3
 68 312 68 312 68 592 c 128,-1,4
 68 872 68 872 236.5 1036.5 c 128,-1,5
 405 1201 405 1201 654 1201 c 1,6,7
 849 1200 849 1200 1008 1110 c 0,8,9
 1044 1090 1044 1090 1060 1076 c 2,10,-1
 1077 1061 l 1,11,-1
 1077 833 l 1,12,-1
 1028 833 l 1,13,14
 1023 875 1023 875 985 941 c 0,15,16
 874 1133 874 1133 650 1134 c 0,17,18
 466 1134 466 1134 335.5 980 c 128,-1,19
 205 826 205 826 205 610 c 0,20,21
 205 369 205 369 332 204 c 128,-1,22
 459 39 459 39 682 39 c 0,23,24
 928 39 928 39 1002 217 c 0,25,26
 1022 266 1022 266 1028 324 c 1,27,-1
 1077 324 l 1,28,-1
 1077 98 l 1,29,30
 898 -23 898 -23 682 -32 c 1,31,-1
 636 -141 l 1,32,33
 701 -144 701 -144 753 -185.5 c 128,-1,34
 805 -227 805 -227 805.5 -306 c 128,-1,35
 806 -385 806 -385 753.5 -427 c 128,-1,36
 701 -469 701 -469 626 -469 c 0,37,38
 511 -469 511 -469 472 -390 c 0,39,40
 460 -364 460 -364 460 -339 c 1,41,42
 462 -300 462 -300 502 -299 c 0,43,44
 518 -299 518 -299 516 -332 c 128,-1,45
 514 -365 514 -365 514 -370 c 0,46,47
 514 -397 514 -397 543.5 -408.5 c 128,-1,48
 573 -420 573 -420 597 -420 c 0,49,50
 646 -418 646 -418 675.5 -387 c 128,-1,51
 705 -356 705 -356 706 -291 c 1,52,53
 706 -176 706 -176 558 -176 c 1,0,-1
EndSplineSet
EndChar

StartChar: D
Encoding: 68 68 16
Width: 1392
Flags: W
LayerCount: 2
Fore
SplineSet
242 1148 m 1,0,-1
 242 1190 l 1,1,-1
 665 1190 l 2,2,3
 1015 1190 1015 1190 1174 1036.5 c 128,-1,4
 1333 883 1333 883 1333 592 c 0,5,6
 1333 210 1333 210 1005 71 c 0,7,8
 838 1 838 1 610 0 c 1,9,10
 184 0 184 0 73 225 c 0,11,12
 36 300 36 300 36 398 c 0,13,14
 36 615 36 615 235 718 c 0,15,16
 299 751 299 751 378 768 c 1,17,-1
 378 980 l 2,18,19
 378 1071 378 1071 363 1098.5 c 128,-1,20
 348 1126 348 1126 301 1136 c 2,21,-1
 242 1148 l 1,0,-1
831 691 m 1,22,23
 831 622 831 622 758 621 c 0,24,25
 720 621 720 621 683 660 c 128,-1,26
 646 699 646 699 624 712 c 0,27,28
 595 730 595 730 510 722 c 1,29,-1
 510 64 l 1,30,31
 529 62 529 62 554 62 c 2,32,-1
 621 62 l 2,33,34
 841 62 841 62 988 163 c 0,35,36
 1184 299 1184 299 1185 588 c 1,37,38
 1185 975 1185 975 902 1086 c 0,39,40
 798 1126 798 1126 665 1126 c 2,41,-1
 510 1126 l 1,42,-1
 510 785 l 1,43,44
 524 786 524 786 546 786 c 0,45,46
 735 786 735 786 790 756 c 0,47,48
 830 734 830 734 831 691 c 1,22,23
378 696 m 1,49,50
 131 618 131 618 130 393 c 0,51,52
 130 200 130 200 332 111 c 0,53,54
 383 89 383 89 443 76 c 1,55,56
 412 93 412 93 378 132 c 1,57,-1
 378 696 l 1,49,50
EndSplineSet
Substitution2: "'titl' Titling in Latin lookup 0 subtable" D.alt1
EndChar

StartChar: D.alt1
Encoding: 65540 -1 17
Width: 1177
Flags: W
LayerCount: 2
Fore
SplineSet
35 1148 m 1,0,-1
 35 1190 l 1,1,-1
 458 1190 l 2,2,3
 822 1190 822 1190 985 1021 c 0,4,5
 1129 871 1129 871 1128 592 c 0,6,7
 1126 185 1126 185 759 56 c 0,8,9
 601 1 601 1 378 0 c 1,10,-1
 35 0 l 1,11,-1
 35 42 l 1,12,-1
 93 54 l 2,13,14
 147 66 147 66 159 98.5 c 128,-1,15
 171 131 171 131 171 210 c 2,16,-1
 171 980 l 2,17,18
 171 1071 171 1071 156 1098.5 c 128,-1,19
 141 1126 141 1126 94 1136 c 2,20,-1
 35 1148 l 1,0,-1
305 1128 m 1,21,-1
 305 64 l 1,22,23
 312 64 312 64 333 63 c 0,24,25
 546 56 546 56 680 109 c 0,26,27
 968 223 968 223 980 588 c 0,28,29
 990 909 990 909 773 1046 c 0,30,31
 642 1128 642 1128 460 1128 c 2,32,-1
 305 1128 l 1,21,-1
EndSplineSet
EndChar

StartChar: Eth
Encoding: 208 208 18
Width: 1622
Flags: W
LayerCount: 2
Fore
SplineSet
391 587 m 1,0,-1
 391 656 l 1,1,-1
 556 656 l 1,2,-1
 556 1036 l 2,3,4
 556 1102 556 1102 548 1115 c 1,5,6
 539 1127 539 1127 507 1133 c 2,7,-1
 438 1147 l 1,8,-1
 438 1190 l 1,9,-1
 843 1190 l 2,10,11
 1178 1190 1178 1190 1346 1045.5 c 128,-1,12
 1514 901 1514 901 1513 594 c 1,13,14
 1510 189 1510 189 1149 57 c 0,15,16
 988 -2 988 -2 763 -2 c 2,17,-1
 434 -2 l 1,18,-1
 434 41 l 1,19,-1
 502 55 l 2,20,21
 540 63 540 63 548 79 c 0,22,23
 556 96 556 96 556 153 c 2,24,-1
 556 587 l 1,25,-1
 391 587 l 1,0,-1
1012 587 m 1,26,-1
 690 587 l 1,27,-1
 689 67 l 1,28,29
 697 67 697 67 718 66 c 0,30,31
 927 59 927 59 1059 108 c 1,32,33
 1352 220 1352 220 1364 590 c 1,34,35
 1374 837 1374 837 1252.5 961.5 c 128,-1,36
 1131 1086 1131 1086 999.5 1109 c 128,-1,37
 868 1132 868 1132 689 1128 c 1,38,39
 691 773 691 773 691 656 c 1,40,-1
 1012 656 l 1,41,-1
 1012 587 l 1,26,-1
EndSplineSet
EndChar

StartChar: E
Encoding: 69 69 19
Width: 913
Flags: W
LayerCount: 2
Fore
SplineSet
694 62 m 2,0,1
 775 62 775 62 791 184 c 1,2,-1
 831 184 l 1,3,-1
 831 0 l 1,4,-1
 35 0 l 1,5,-1
 35 42 l 1,6,-1
 93 54 l 2,7,8
 147 65 147 65 159 98 c 128,-1,9
 171 131 171 131 171 210 c 2,10,-1
 171 980 l 2,11,12
 171 1071 171 1071 156 1098.5 c 128,-1,13
 141 1126 141 1126 94 1136 c 2,14,-1
 35 1148 l 1,15,-1
 35 1190 l 1,16,-1
 773 1190 l 1,17,-1
 773 1006 l 1,18,-1
 733 1006 l 1,19,20
 716 1126 716 1126 636 1128 c 1,21,-1
 305 1128 l 1,22,-1
 305 619 l 1,23,-1
 536 619 l 2,24,25
 574 619 574 619 581.5 631 c 128,-1,26
 589 643 589 643 598 681 c 2,27,-1
 608 725 l 1,28,-1
 650 725 l 1,29,-1
 650 453 l 1,30,-1
 608 453 l 1,31,32
 592 535 592 535 578.5 546 c 128,-1,33
 565 557 565 557 535 557 c 2,34,-1
 305 557 l 1,35,-1
 305 62 l 1,36,-1
 694 62 l 2,0,1
EndSplineSet
Substitution2: "'titl' Titling in Latin lookup 0 subtable" E.alt1
EndChar

StartChar: E.alt1
Encoding: 65541 -1 20
Width: 913
Flags: W
LayerCount: 2
Fore
SplineSet
694 62 m 2,0,1
 775 62 775 62 791 184 c 1,2,-1
 831 184 l 1,3,-1
 831 0 l 1,4,-1
 35 0 l 1,5,-1
 35 42 l 1,6,-1
 93 54 l 2,7,8
 147 65 147 65 159 98 c 128,-1,9
 171 131 171 131 171 210 c 2,10,-1
 171 980 l 2,11,12
 171 1071 171 1071 156 1098.5 c 128,-1,13
 141 1126 141 1126 94 1136 c 2,14,-1
 35 1148 l 1,15,-1
 35 1190 l 1,16,-1
 773 1190 l 1,17,-1
 773 1006 l 1,18,-1
 733 1006 l 1,19,20
 716 1126 716 1126 636 1128 c 1,21,-1
 305 1128 l 1,22,-1
 305 619 l 1,23,-1
 536 619 l 2,24,25
 574 619 574 619 581.5 631 c 128,-1,26
 589 643 589 643 598 681 c 2,27,-1
 608 725 l 1,28,-1
 650 725 l 1,29,-1
 650 453 l 1,30,-1
 608 453 l 1,31,32
 592 535 592 535 578.5 546 c 128,-1,33
 565 557 565 557 535 557 c 2,34,-1
 305 557 l 1,35,-1
 305 62 l 1,36,-1
 694 62 l 2,0,1
EndSplineSet
EndChar

StartChar: F
Encoding: 70 70 25
Width: 799
Flags: W
LayerCount: 2
Fore
SplineSet
172 980 m 2,0,1
 172 1071 172 1071 157 1099 c 0,2,3
 142 1126 142 1126 95 1136 c 2,4,-1
 36 1148 l 1,5,-1
 36 1190 l 1,6,-1
 774 1190 l 1,7,-1
 774 923 l 2,8,9
 774 869 774 869 732 849 c 0,10,11
 716 842 716 842 699 841 c 1,12,13
 656 841 656 841 643 881 c 0,14,15
 640 892 640 892 639 903 c 1,16,17
 639 944 639 944 679 966 c 0,18,19
 719 987 719 987 724 993 c 128,-1,20
 729 999 729 999 729 1006 c 1,21,22
 718 1071 718 1071 698 1099 c 0,23,24
 677 1127 677 1127 637 1128 c 1,25,-1
 306 1128 l 1,26,-1
 306 619 l 1,27,-1
 537 619 l 2,28,29
 575 619 575 619 582 631 c 0,30,31
 590 643 590 643 599 681 c 2,32,-1
 609 725 l 1,33,-1
 651 725 l 1,34,-1
 651 453 l 1,35,-1
 608 453 l 1,36,37
 593 534 593 534 580 546 c 0,38,39
 567 557 567 557 535 557 c 2,40,-1
 306 557 l 1,41,-1
 306 145 l 2,42,43
 306 78 306 78 356 58 c 0,44,45
 370 53 370 53 435 41 c 1,46,-1
 435 0 l 1,47,-1
 35 0 l 1,48,-1
 35 42 l 1,49,-1
 94 54 l 2,50,51
 149 65 149 65 160 98 c 0,52,53
 172 131 172 131 172 209 c 2,54,-1
 172 980 l 2,0,1
EndSplineSet
Substitution2: "'titl' Titling in Latin lookup 0 subtable" F.alt1
EndChar

StartChar: F.alt1
Encoding: 65542 -1 26
Width: 799
Flags: W
LayerCount: 2
Fore
SplineSet
169 980 m 2,0,1
 169 1071 169 1071 154 1099 c 0,2,3
 139 1126 139 1126 92 1136 c 2,4,-1
 33 1148 l 1,5,-1
 33 1190 l 1,6,-1
 774 1190 l 1,7,-1
 774 1004 l 1,8,-1
 735 1004 l 1,9,10
 714 1125 714 1125 637 1126 c 1,11,-1
 303 1126 l 1,12,-1
 303 621 l 1,13,-1
 536 623 l 2,14,15
 573 623 573 623 581 634 c 128,-1,16
 589 645 589 645 598 682 c 2,17,-1
 608 727 l 1,18,-1
 650 727 l 1,19,-1
 650 455 l 1,20,-1
 608 455 l 1,21,22
 592 537 592 537 579 548 c 128,-1,23
 566 559 566 559 535 559 c 2,24,-1
 303 559 l 1,25,-1
 303 145 l 2,26,27
 303 78 303 78 354 58 c 0,28,29
 368 53 368 53 435 41 c 1,30,-1
 435 0 l 1,31,-1
 32 0 l 1,32,-1
 32 42 l 1,33,-1
 91 54 l 2,34,35
 146 65 146 65 157 98 c 0,36,37
 169 131 169 131 169 208 c 2,38,-1
 169 980 l 2,0,1
EndSplineSet
EndChar

StartChar: G
Encoding: 71 71 27
Width: 1255
Flags: W
LayerCount: 2
Fore
SplineSet
859 -337 m 1,0,1
 950 -337 950 -337 950 -132 c 2,2,-1
 950 18 l 1,3,4
 822 -33 822 -33 683 -33 c 0,5,6
 367 -33 367 -33 198 180 c 0,7,8
 60 354 60 354 59.5 601.5 c 128,-1,9
 59 849 59 849 203 1008 c 0,10,11
 377 1200 377 1200 649 1201 c 0,12,13
 872 1201 872 1201 1039 1093 c 0,14,15
 1067 1075 1067 1075 1082 1061 c 1,16,-1
 1082 833 l 1,17,-1
 1033 833 l 1,18,19
 1029 885 1029 885 991 952 c 0,20,21
 889 1137 889 1137 655 1138 c 0,22,23
 467 1138 467 1138 337 976 c 0,24,25
 204 811 204 811 204 610 c 0,26,27
 204 457 204 457 268 313 c 0,28,29
 394 30 394 30 688 29 c 0,30,31
 859 29 859 29 952 129 c 1,32,-1
 952 261 l 2,33,34
 952 352 952 352 937 379.5 c 128,-1,35
 922 407 922 407 875 417 c 2,36,-1
 816 429 l 1,37,-1
 816 471 l 1,38,-1
 1204 471 l 1,39,-1
 1204 427 l 1,40,-1
 1136 412 l 2,41,42
 1100 404 1100 404 1093.5 389.5 c 128,-1,43
 1087 375 1087 375 1087 176 c 2,44,-1
 1087 -23 l 1,45,46
 1084 -317 1084 -317 890 -381 c 0,47,48
 839 -398 839 -398 725 -398 c 0,49,50
 679 -398 679 -398 661 -371 c 128,-1,51
 643 -344 643 -344 644 -323 c 0,52,53
 648 -262 648 -262 714 -262 c 0,54,55
 756 -262 756 -262 800.5 -299 c 128,-1,56
 845 -336 845 -336 859 -337 c 1,0,1
EndSplineSet
Substitution2: "'titl' Titling in Latin lookup 0 subtable" G.alt1
EndChar

StartChar: G.alt1
Encoding: 65543 -1 28
Width: 1255
Flags: W
LayerCount: 2
Fore
SplineSet
688 29 m 0,0,1
 858 29 858 29 951 129 c 1,2,-1
 951 262 l 2,3,4
 951 353 951 353 936 380 c 128,-1,5
 921 407 921 407 874 417 c 2,6,-1
 815 429 l 1,7,-1
 815 471 l 1,8,-1
 1203 471 l 1,9,-1
 1203 427 l 1,10,-1
 1135 412 l 2,11,12
 1099 404 1099 404 1092.5 389.5 c 128,-1,13
 1086 375 1086 375 1086 316 c 2,14,-1
 1086 84 l 1,15,16
 882 -12 882 -12 769 -28 c 0,17,18
 729 -33 729 -33 683 -33 c 0,19,20
 367 -33 367 -33 198 180 c 0,21,22
 60 354 60 354 59.5 601.5 c 128,-1,23
 59 849 59 849 203 1008 c 0,24,25
 377 1200 377 1200 649 1201 c 0,26,27
 872 1201 872 1201 1039 1093 c 0,28,29
 1067 1075 1067 1075 1082 1061 c 1,30,-1
 1082 833 l 1,31,-1
 1033 833 l 1,32,33
 1029 885 1029 885 991 952 c 0,34,35
 889 1137 889 1137 655 1138 c 0,36,37
 467 1138 467 1138 337 976 c 0,38,39
 204 811 204 811 204 610 c 0,40,41
 204 457 204 457 268 313 c 0,42,43
 395 30 395 30 688 29 c 0,0,1
EndSplineSet
EndChar

StartChar: H
Encoding: 72 72 29
Width: 1757
Flags: W
LayerCount: 2
Fore
SplineSet
507 -339 m 1,0,1
 598 -339 598 -339 598 -134 c 2,2,-1
 598 1035 l 2,3,4
 598 1101 598 1101 589 1113 c 0,5,6
 580 1124 580 1124 549 1131 c 2,7,-1
 481 1146 l 1,8,-1
 266 1146 l 2,9,10
 172 1146 172 1146 132 1045 c 0,11,12
 114 1000 114 1000 114 955 c 0,13,14
 114 750 114 750 205 750 c 0,15,16
 221 750 221 750 256 780 c 1,17,18
 312 822 312 822 350 825 c 1,19,20
 417 825 417 825 421 764 c 0,21,22
 424 723 424 723 383 700 c 0,23,24
 362 689 362 689 339 689 c 0,25,26
 224 689 224 689 174 706 c 0,27,28
 -19 771 -19 771 -20 965 c 0,29,30
 -20 1098 -20 1098 106 1157 c 0,31,32
 177 1190 177 1190 266 1190 c 2,33,-1
 870 1190 l 1,34,-1
 870 1148 l 1,35,-1
 812 1136 l 2,36,37
 757 1125 757 1125 745 1092 c 128,-1,38
 733 1059 733 1059 733 980 c 2,39,-1
 733 654 l 1,40,-1
 1451 654 l 1,41,-1
 1451 980 l 2,42,43
 1451 1071 1451 1071 1436 1099 c 128,-1,44
 1421 1127 1421 1127 1374 1136 c 2,45,-1
 1315 1148 l 1,46,-1
 1315 1190 l 1,47,-1
 1703 1190 l 1,48,-1
 1703 1146 l 1,49,-1
 1635 1131 l 2,50,51
 1599 1123 1599 1123 1593 1109 c 0,52,53
 1586 1094 1586 1094 1586 1035 c 2,54,-1
 1586 153 l 2,55,56
 1586 89 1586 89 1595 77 c 1,57,58
 1605 66 1605 66 1635 59 c 2,59,-1
 1703 44 l 1,60,-1
 1703 0 l 1,61,-1
 1315 0 l 1,62,-1
 1315 42 l 1,63,-1
 1373 54 l 2,64,65
 1427 65 1427 65 1439 98 c 128,-1,66
 1451 131 1451 131 1451 210 c 2,67,-1
 1451 592 l 1,68,-1
 733 592 l 1,69,-1
 733 -75 l 1,70,71
 721 -244 721 -244 644 -321.5 c 128,-1,72
 567 -399 567 -399 397 -399 c 0,73,74
 335 -399 335 -399 313.5 -377.5 c 128,-1,75
 292 -356 292 -356 292 -324 c 1,76,77
 296 -264 296 -264 362 -264 c 0,78,79
 404 -264 404 -264 443.5 -300.5 c 128,-1,80
 483 -337 483 -337 507 -339 c 1,0,1
EndSplineSet
Substitution2: "'titl' Titling in Latin lookup 0 subtable" H.alt1
EndChar

StartChar: H.alt1
Encoding: 65544 -1 30
Width: 1268
Flags: W
LayerCount: 2
Fore
SplineSet
1097 1033 m 2,0,-1
 1097 152 l 2,1,2
 1097 86 1097 86 1109 74 c 128,-1,3
 1121 62 1121 62 1151 55 c 2,4,-1
 1219 41 l 1,5,-1
 1219 0 l 1,6,-1
 830 0 l 1,7,-1
 830 39 l 1,8,-1
 888 51 l 2,9,10
 941 61 941 61 952 92 c 0,11,12
 962 123 962 123 962 207 c 2,13,-1
 962 590 l 1,14,-1
 306 590 l 1,15,-1
 306 210 l 2,16,17
 306 118 306 118 322 91 c 128,-1,18
 338 64 338 64 384 54 c 2,19,-1
 442 42 l 1,20,-1
 442 0 l 1,21,-1
 54 0 l 1,22,-1
 54 44 l 1,23,-1
 122 59 l 2,24,25
 158 67 158 67 164 81 c 0,26,27
 171 95 171 95 171 153 c 2,28,-1
 171 1035 l 2,29,30
 171 1100 171 1100 162 1112 c 128,-1,31
 153 1124 153 1124 122 1131 c 2,32,-1
 54 1146 l 1,33,-1
 54 1190 l 1,34,-1
 442 1190 l 1,35,-1
 442 1148 l 1,36,-1
 384 1136 l 2,37,38
 330 1125 330 1125 318 1093 c 128,-1,39
 306 1061 306 1061 306 980 c 2,40,-1
 306 652 l 1,41,-1
 962 652 l 1,42,-1
 962 978 l 2,43,44
 962 1071 962 1071 946 1098 c 128,-1,45
 930 1125 930 1125 883 1134 c 2,46,-1
 825 1146 l 1,47,-1
 825 1190 l 1,48,-1
 1214 1190 l 1,49,-1
 1214 1144 l 1,50,-1
 1146 1130 l 2,51,52
 1111 1123 1111 1123 1104 1108 c 128,-1,53
 1097 1093 1097 1093 1097 1033 c 2,0,-1
EndSplineSet
EndChar

StartChar: I
Encoding: 73 73 31
Width: 704
Flags: W
LayerCount: 2
Fore
SplineSet
130 1136 m 1,0,1
 30 1136 30 1136 29 1206 c 0,2,3
 29 1259 29 1259 81 1279 c 0,4,5
 99 1285 99 1285 116 1286 c 1,6,7
 169 1286 169 1286 200.5 1248 c 128,-1,8
 232 1210 232 1210 244.5 1200 c 128,-1,9
 257 1190 257 1190 282 1190 c 2,10,-1
 635 1190 l 1,11,-1
 635 1146 l 1,12,-1
 567 1131 l 2,13,14
 531 1123 531 1123 524.5 1108.5 c 128,-1,15
 518 1094 518 1094 518 1035 c 2,16,-1
 518 153 l 2,17,18
 518 89 518 89 527 77 c 0,19,20
 536 66 536 66 567 59 c 2,21,-1
 635 44 l 1,22,-1
 635 0 l 1,23,-1
 247 0 l 1,24,-1
 247 42 l 1,25,-1
 305 54 l 2,26,27
 359 65 359 65 371 98 c 128,-1,28
 383 131 383 131 383 210 c 2,29,-1
 383 1008 l 1,30,31
 381 1113 381 1113 332 1129 c 0,32,33
 317 1134 317 1134 293 1134 c 2,34,-1
 130 1136 l 1,0,1
EndSplineSet
Substitution2: "'titl' Titling in Latin lookup 0 subtable" I.alt1
EndChar

StartChar: I.alt1
Encoding: 65545 -1 32
Width: 491
Flags: W
LayerCount: 2
Fore
SplineSet
170 210 m 2,0,-1
 170 980 l 2,1,2
 170 1071 170 1071 155 1099 c 0,3,4
 140 1126 140 1126 93 1136 c 2,5,-1
 34 1148 l 1,6,-1
 34 1190 l 1,7,-1
 422 1190 l 1,8,-1
 422 1146 l 1,9,-1
 354 1131 l 2,10,11
 318 1123 318 1123 311 1109 c 0,12,13
 305 1095 305 1095 305 1036 c 2,14,-1
 305 153 l 2,15,16
 305 90 305 90 314 77 c 1,17,18
 323 66 323 66 354 59 c 2,19,-1
 422 44 l 1,20,-1
 422 0 l 1,21,-1
 34 0 l 1,22,-1
 34 42 l 1,23,-1
 92 54 l 2,24,25
 146 65 146 65 158 98 c 128,-1,26
 170 131 170 131 170 210 c 2,0,-1
EndSplineSet
EndChar

StartChar: J
Encoding: 74 74 37
Width: 742
Flags: W
LayerCount: 2
Fore
SplineSet
331 -341 m 1,0,1
 422 -341 422 -341 422 -135 c 2,2,-1
 422 874 l 2,3,4
 422 1010 422 1010 401 1071.5 c 128,-1,5
 380 1133 380 1133 313 1134 c 0,6,7
 283 1134 283 1134 234 1095 c 0,8,9
 167 1041 167 1041 118 1040.5 c 128,-1,10
 69 1040 69 1040 49 1066.5 c 128,-1,11
 29 1093 29 1093 29 1118 c 0,12,13
 29 1189 29 1189 130 1190 c 1,14,-1
 673 1190 l 1,15,-1
 673 1146 l 1,16,-1
 605 1131 l 2,17,18
 569 1123 569 1123 562.5 1108.5 c 128,-1,19
 556 1094 556 1094 556 1035 c 2,20,-1
 556 -26 l 2,21,22
 556 -321 556 -321 362 -385 c 0,23,24
 311 -401 311 -401 197 -401 c 0,25,26
 151 -401 151 -401 132.5 -374 c 128,-1,27
 114 -347 114 -347 116 -326 c 0,28,29
 120 -266 120 -266 186 -266 c 0,30,31
 228 -266 228 -266 272.5 -302.5 c 128,-1,32
 317 -339 317 -339 331 -341 c 1,0,1
EndSplineSet
Substitution2: "'titl' Titling in Latin lookup 0 subtable" J.alt1
EndChar

StartChar: J.alt1
Encoding: 65546 -1 38
Width: 510
Flags: W
LayerCount: 2
Fore
SplineSet
189 -135 m 2,0,-1
 189 978 l 2,1,2
 189 1069 189 1069 174 1096.5 c 128,-1,3
 159 1124 159 1124 112 1134 c 2,4,-1
 53 1146 l 1,5,-1
 53 1188 l 1,6,-1
 441 1188 l 1,7,-1
 441 1144 l 1,8,-1
 373 1129 l 2,9,10
 337 1121 337 1121 330.5 1106.5 c 128,-1,11
 324 1092 324 1092 324 1033 c 2,12,-1
 324 -26 l 2,13,14
 324 -321 324 -321 130 -385 c 0,15,16
 79 -401 79 -401 -34 -401 c 0,17,18
 -80 -401 -80 -401 -98.5 -374 c 128,-1,19
 -117 -347 -117 -347 -116 -326 c 0,20,21
 -111 -266 -111 -266 -46 -266 c 0,22,23
 -3 -266 -3 -266 41 -303 c 128,-1,24
 85 -340 85 -340 99 -341 c 1,25,26
 189 -339 189 -339 189 -135 c 2,0,-1
EndSplineSet
EndChar

StartChar: K
Encoding: 75 75 39
Width: 1410
Flags: W
LayerCount: 2
Fore
SplineSet
29 1118 m 0,0,1
 29 1189 29 1189 130 1190 c 1,2,-1
 693 1190 l 1,3,-1
 693 1148 l 1,4,-1
 634 1136 l 2,5,6
 579 1125 579 1125 567.5 1092 c 128,-1,7
 556 1059 556 1059 556 980 c 2,8,-1
 556 618 l 1,9,-1
 1071 1074 l 2,10,11
 1104 1103 1104 1103 1088 1119 c 128,-1,12
 1072 1135 1072 1135 1046 1139 c 2,13,-1
 986 1148 l 1,14,-1
 986 1190 l 1,15,-1
 1374 1190 l 1,16,-1
 1374 1149 l 1,17,-1
 1328 1141 l 2,18,19
 1251 1128 1251 1128 1183 1070 c 1,20,-1
 716 657 l 1,21,-1
 1258 109 l 2,22,23
 1316 50 1316 50 1385 41 c 1,24,-1
 1385 0 l 1,25,-1
 957 0 l 1,26,-1
 957 42 l 1,27,-1
 1025 57 l 1,28,29
 1067 69 1067 69 1069 78 c 1,30,31
 1068 91 1068 91 1033 127 c 2,32,-1
 613 567 l 1,33,-1
 556 517 l 1,34,-1
 556 209 l 2,35,36
 556 119 556 119 572 92 c 128,-1,37
 588 65 588 65 635 54 c 2,38,-1
 693 41 l 1,39,-1
 693 0 l 1,40,-1
 305 0 l 1,41,-1
 305 44 l 1,42,-1
 373 59 l 2,43,44
 409 67 409 67 415.5 81 c 128,-1,45
 422 95 422 95 422 153 c 2,46,-1
 422 874 l 2,47,48
 422 1010 422 1010 401 1071.5 c 128,-1,49
 380 1133 380 1133 313 1134 c 0,50,51
 283 1134 283 1134 234 1095 c 0,52,53
 167 1041 167 1041 118 1040.5 c 128,-1,54
 69 1040 69 1040 49 1066.5 c 128,-1,55
 29 1093 29 1093 29 1118 c 0,0,1
EndSplineSet
Substitution2: "'titl' Titling in Latin lookup 0 subtable" K.alt1
EndChar

StartChar: K.alt1
Encoding: 65547 -1 40
Width: 1151
Flags: W
LayerCount: 2
Fore
SplineSet
441 0 m 1,0,-1
 53 0 l 1,1,-1
 53 44 l 1,2,-1
 121 59 l 2,3,4
 157 67 157 67 163.5 81 c 128,-1,5
 170 95 170 95 170 153 c 2,6,-1
 170 1035 l 2,7,8
 170 1100 170 1100 161 1112 c 0,9,10
 152 1123 152 1123 121 1130 c 2,11,-1
 53 1145 l 1,12,-1
 53 1190 l 1,13,-1
 441 1190 l 1,14,-1
 441 1148 l 1,15,-1
 383 1136 l 2,16,17
 328 1125 328 1125 316.5 1092 c 128,-1,18
 305 1059 305 1059 305 980 c 2,19,-1
 305 618 l 1,20,-1
 820 1074 l 2,21,22
 853 1103 853 1103 837 1119 c 128,-1,23
 821 1135 821 1135 795 1139 c 2,24,-1
 735 1148 l 1,25,-1
 735 1190 l 1,26,-1
 1123 1190 l 1,27,-1
 1123 1149 l 1,28,-1
 1077 1141 l 2,29,30
 1000 1128 1000 1128 932 1070 c 1,31,-1
 465 657 l 1,32,-1
 1007 109 l 2,33,34
 1065 50 1065 50 1134 41 c 1,35,-1
 1134 0 l 1,36,-1
 706 0 l 1,37,-1
 706 42 l 1,38,-1
 774 57 l 1,39,40
 816 69 816 69 818 78 c 1,41,42
 817 91 817 91 782 127 c 2,43,-1
 362 567 l 1,44,-1
 305 517 l 1,45,-1
 305 210 l 2,46,47
 305 119 305 119 320.5 92 c 128,-1,48
 336 65 336 65 383 54 c 2,49,-1
 441 41 l 1,50,-1
 441 0 l 1,0,-1
EndSplineSet
EndChar

StartChar: L
Encoding: 76 76 41
Width: 880
Flags: W
LayerCount: 2
Fore
SplineSet
170 208 m 2,0,-1
 170 979 l 2,1,2
 170 1070 170 1070 154 1097 c 128,-1,3
 138 1124 138 1124 91 1134 c 2,4,-1
 33 1146 l 1,5,-1
 33 1190 l 1,6,-1
 422 1190 l 1,7,-1
 422 1145 l 1,8,-1
 354 1130 l 2,9,10
 318 1122 318 1122 312 1107 c 0,11,12
 305 1092 305 1092 305 1033 c 2,13,-1
 305 62 l 1,14,-1
 675 62 l 2,15,16
 748 62 748 62 772 174 c 0,17,18
 779 207 779 207 779 233 c 1,19,-1
 831 233 l 1,20,-1
 831 0 l 1,21,-1
 38 0 l 1,22,-1
 38 40 l 1,23,-1
 96 52 l 1,24,25
 149 61 149 61 160 92 c 0,26,27
 170 123 170 123 170 208 c 2,0,-1
EndSplineSet
Substitution2: "'titl' Titling in Latin lookup 0 subtable" L.alt1
EndChar

StartChar: L.alt1
Encoding: 65548 -1 42
Width: 880
Flags: W
LayerCount: 2
Fore
SplineSet
170 208 m 2,0,-1
 170 979 l 2,1,2
 170 1070 170 1070 154 1097 c 128,-1,3
 138 1124 138 1124 91 1134 c 2,4,-1
 33 1146 l 1,5,-1
 33 1190 l 1,6,-1
 422 1190 l 1,7,-1
 422 1145 l 1,8,-1
 354 1130 l 2,9,10
 318 1122 318 1122 312 1107 c 0,11,12
 305 1092 305 1092 305 1033 c 2,13,-1
 305 62 l 1,14,-1
 675 62 l 2,15,16
 748 62 748 62 772 174 c 0,17,18
 779 207 779 207 779 233 c 1,19,-1
 831 233 l 1,20,-1
 831 0 l 1,21,-1
 38 0 l 1,22,-1
 38 40 l 1,23,-1
 96 52 l 1,24,25
 149 61 149 61 160 92 c 0,26,27
 170 123 170 123 170 208 c 2,0,-1
EndSplineSet
EndChar

StartChar: M
Encoding: 77 77 43
Width: 1599
Flags: W
LayerCount: 2
Fore
SplineSet
51 1120 m 0,0,1
 51 1190 51 1190 152 1190 c 2,2,-1
 447 1190 l 1,3,-1
 446 1188 l 1,4,-1
 473 1188 l 1,5,-1
 541 1125 l 1,6,-1
 845 226 l 1,7,-1
 1242 1190 l 1,8,-1
 1530 1190 l 1,9,-1
 1530 1144 l 1,10,11
 1455 1129 1455 1129 1434 1102 c 128,-1,12
 1413 1075 1413 1075 1413 1034 c 2,13,-1
 1413 153 l 2,14,15
 1413 87 1413 87 1424.5 74.5 c 128,-1,16
 1436 62 1436 62 1467 56 c 2,17,-1
 1535 42 l 1,18,-1
 1535 0 l 1,19,-1
 1146 0 l 1,20,-1
 1146 41 l 1,21,-1
 1204 52 l 2,22,23
 1257 62 1257 62 1267.5 93 c 128,-1,24
 1278 124 1278 124 1278 208 c 2,25,-1
 1278 1056 l 1,26,-1
 838 -29 l 1,27,-1
 802 -29 l 1,28,-1
 432 1026 l 1,29,-1
 297 244 l 1,30,-1
 278 132 l 1,31,32
 273 63 273 63 328 52 c 1,33,-1
 453 41 l 1,34,-1
 453 0 l 1,35,-1
 67 0 l 1,36,-1
 67 41 l 1,37,-1
 104 51 l 2,38,39
 148 62 148 62 163 85.5 c 128,-1,40
 178 109 178 109 187 152 c 0,41,42
 250 465 250 465 295 725 c 2,43,-1
 344 1014 l 1,44,45
 351 1070 351 1070 350 1079 c 0,46,47
 344 1116 344 1116 311.5 1116.5 c 128,-1,48
 279 1117 279 1117 240 1084 c 0,49,50
 189 1042 189 1042 139 1042 c 128,-1,51
 89 1042 89 1042 70 1068.5 c 128,-1,52
 51 1095 51 1095 51 1120 c 0,0,1
EndSplineSet
Substitution2: "'titl' Titling in Latin lookup 0 subtable" M.alt1
EndChar

StartChar: M.alt1
Encoding: 65549 -1 44
Width: 1402
Flags: W
LayerCount: 2
Fore
SplineSet
1353 41 m 1,0,-1
 1353 0 l 1,1,-1
 964 0 l 1,2,-1
 964 39 l 1,3,-1
 1022 51 l 2,4,5
 1075 62 1075 62 1085 93 c 0,6,7
 1096 124 1096 124 1096 209 c 2,8,-1
 1096 993 l 1,9,10
 1052 816 1052 816 766 186 c 0,11,12
 671 -23 671 -23 672 -31 c 1,13,-1
 249 1061 l 1,14,-1
 248 152 l 2,15,16
 248 86 248 86 260 74 c 128,-1,17
 272 62 272 62 302 55 c 2,18,-1
 370 41 l 1,19,-1
 370 0 l 1,20,-1
 31 0 l 1,21,-1
 31 39 l 1,22,-1
 89 51 l 2,23,24
 142 62 142 62 152 92 c 0,25,26
 163 122 163 122 163 207 c 2,27,-1
 163 978 l 2,28,29
 163 1070 163 1070 147 1097 c 128,-1,30
 131 1124 131 1124 85 1134 c 2,31,-1
 27 1146 l 1,32,-1
 27 1190 l 1,33,-1
 333 1190 l 1,34,-1
 694 230 l 1,35,-1
 1081 1190 l 1,36,-1
 1348 1190 l 1,37,-1
 1348 1144 l 1,38,-1
 1280 1130 l 2,39,40
 1245 1123 1245 1123 1238 1108 c 128,-1,41
 1231 1093 1231 1093 1231 1033 c 2,42,-1
 1231 153 l 2,43,44
 1231 86 1231 86 1243 74 c 128,-1,45
 1255 62 1255 62 1285 55 c 2,46,-1
 1353 41 l 1,0,-1
EndSplineSet
EndChar

StartChar: N
Encoding: 78 78 45
Width: 1309
Flags: W
LayerCount: 2
Fore
SplineSet
49 1148 m 0,0,1
 49 1206 49 1206 122 1206 c 0,2,3
 317 1206 317 1206 399 1110 c 1,4,-1
 1043 231 l 1,5,-1
 1043 979 l 2,6,7
 1043 1070 1043 1070 1027 1097 c 128,-1,8
 1011 1124 1011 1124 964 1134 c 2,9,-1
 906 1146 l 1,10,-1
 906 1190 l 1,11,-1
 1245 1190 l 1,12,-1
 1245 1144 l 1,13,-1
 1177 1130 l 2,14,15
 1142 1123 1142 1123 1135 1108 c 128,-1,16
 1128 1093 1128 1093 1128 1033 c 2,17,-1
 1128 -29 l 1,18,-1
 1087 -29 l 1,19,-1
 381 923 l 1,20,-1
 380 152 l 2,21,22
 380 86 380 86 391.5 73.5 c 128,-1,23
 403 61 403 61 434 55 c 2,24,-1
 502 41 l 1,25,-1
 502 0 l 1,26,-1
 165 0 l 1,27,-1
 165 39 l 1,28,-1
 223 51 l 2,29,30
 276 62 276 62 286.5 92 c 128,-1,31
 297 122 297 122 297 207 c 2,32,-1
 297 905 l 1,33,34
 296 1113 296 1113 240 1115 c 0,35,36
 214 1115 214 1115 170 1094 c 128,-1,37
 126 1073 126 1073 119 1073 c 0,38,39
 71 1073 71 1073 54 1117 c 0,40,41
 49 1132 49 1132 49 1148 c 0,0,1
EndSplineSet
Substitution2: "'titl' Titling in Latin lookup 0 subtable" N.alt1
EndChar

StartChar: N.alt1
Encoding: 65550 -1 46
Width: 1340
Flags: W
LayerCount: 2
Fore
SplineSet
1183 1033 m 2,0,-1
 1183 -29 l 1,1,-1
 1143 -29 l 1,2,-1
 240 1038 l 1,3,-1
 238 209 l 2,4,5
 238 118 238 118 250 90 c 128,-1,6
 262 62 262 62 311 52 c 2,7,-1
 370 41 l 1,8,-1
 370 0 l 1,9,-1
 21 0 l 1,10,-1
 21 39 l 1,11,-1
 79 51 l 2,12,13
 132 62 132 62 142 92 c 0,14,15
 153 122 153 122 153 206 c 2,16,-1
 153 976 l 2,17,18
 153 1069 153 1069 137 1096 c 128,-1,19
 121 1123 121 1123 74 1132 c 2,20,-1
 16 1144 l 1,21,-1
 16 1188 l 1,22,-1
 272 1188 l 2,23,24
 331 1188 331 1188 928 445 c 1,25,-1
 1099 231 l 1,26,-1
 1099 979 l 2,27,28
 1099 1070 1099 1070 1082 1097 c 128,-1,29
 1065 1124 1065 1124 1019 1134 c 2,30,-1
 961 1146 l 1,31,-1
 961 1190 l 1,32,-1
 1300 1190 l 1,33,-1
 1300 1144 l 1,34,-1
 1232 1130 l 2,35,36
 1197 1123 1197 1123 1190 1108 c 128,-1,37
 1183 1093 1183 1093 1183 1033 c 2,0,-1
EndSplineSet
EndChar

StartChar: O
Encoding: 79 79 48
Width: 1216
Flags: W
LayerCount: 2
Fore
SplineSet
59 566 m 0,0,1
 59 830 59 830 205.5 1011.5 c 128,-1,2
 352 1193 352 1193 592 1193 c 0,3,4
 849 1193 849 1193 1002.5 1023.5 c 128,-1,5
 1156 854 1156 854 1157 585 c 0,6,7
 1157 346 1157 346 1015.5 159 c 128,-1,8
 874 -28 874 -28 606 -28 c 0,9,10
 361 -28 361 -28 210 140.5 c 128,-1,11
 59 309 59 309 59 566 c 0,0,1
209 605 m 0,12,13
 209 318 209 318 328 182.5 c 128,-1,14
 447 47 447 47 618 46 c 1,15,16
 820 46 820 46 913 196.5 c 128,-1,17
 1006 347 1006 347 1006 567 c 0,18,19
 1006 850 1006 850 884 986 c 128,-1,20
 762 1122 762 1122 581 1123 c 1,21,-1
 580 1123 l 2,22,23
 412 1123 412 1123 310.5 979 c 128,-1,24
 209 835 209 835 209 605 c 0,12,13
EndSplineSet
Substitution2: "'titl' Titling in Latin lookup 0 subtable" O.alt1
EndChar

StartChar: O.alt1
Encoding: 65551 -1 49
Width: 1216
Flags: W
LayerCount: 2
Fore
SplineSet
59 566 m 0,0,1
 59 830 59 830 205.5 1011.5 c 128,-1,2
 352 1193 352 1193 592 1193 c 0,3,4
 849 1193 849 1193 1002.5 1023.5 c 128,-1,5
 1156 854 1156 854 1157 585 c 0,6,7
 1157 346 1157 346 1015.5 159 c 128,-1,8
 874 -28 874 -28 606 -28 c 0,9,10
 361 -28 361 -28 210 140.5 c 128,-1,11
 59 309 59 309 59 566 c 0,0,1
209 605 m 0,12,13
 209 318 209 318 328 182.5 c 128,-1,14
 447 47 447 47 618 46 c 1,15,16
 820 46 820 46 913 196.5 c 128,-1,17
 1006 347 1006 347 1006 567 c 0,18,19
 1006 850 1006 850 884 986 c 128,-1,20
 762 1122 762 1122 581 1123 c 1,21,-1
 580 1123 l 2,22,23
 412 1123 412 1123 310.5 979 c 128,-1,24
 209 835 209 835 209 605 c 0,12,13
EndSplineSet
EndChar

StartChar: Oslash
Encoding: 216 216 55
Width: 1243
Flags: W
LayerCount: 2
Fore
SplineSet
910 1198 m 1,0,-1
 1017 1198 l 1,1,-1
 952 1082 l 1,2,3
 979 1060 979 1060 1003 1034 c 0,4,5
 1165 857 1165 857 1166 585 c 0,6,7
 1166 358 1166 358 1044 186 c 0,8,9
 893 -28 893 -28 615 -28 c 0,10,11
 472 -28 472 -28 364 27 c 1,12,-1
 307 -75 l 1,13,-1
 199 -75 l 1,14,-1
 284 78 l 1,15,16
 253 103 253 103 226 134 c 0,17,18
 68 311 68 311 68 566.5 c 128,-1,19
 68 822 68 822 194 990 c 0,20,21
 346 1193 346 1193 601 1193 c 0,22,23
 758 1193 758 1193 874 1133 c 1,24,-1
 910 1198 l 1,0,-1
218 605 m 0,25,26
 218 327 218 327 341 179 c 1,27,-1
 827 1049 l 1,28,29
 729 1122 729 1122 590 1122 c 0,30,31
 421 1123 421 1123 319.5 979 c 128,-1,32
 218 835 218 835 218 605 c 0,25,26
627 46 m 1,33,34
 829 46 829 46 932 212 c 0,35,36
 1015 347 1015 347 1015 567 c 0,37,38
 1015 834 1015 834 896 981 c 1,39,-1
 412 113 l 1,40,41
 504 47 504 47 627 46 c 1,33,34
EndSplineSet
EndChar

StartChar: P
Encoding: 80 80 56
Width: 1112
Flags: W
LayerCount: 2
Fore
SplineSet
29 1118 m 0,0,1
 29 1189 29 1189 130 1190 c 1,2,-1
 784 1190 l 2,3,4
 919 1190 919 1190 1015 1117 c 128,-1,5
 1111 1044 1111 1044 1110 893 c 0,6,7
 1108 570 1108 570 771 570 c 1,8,9
 628 574 628 574 624 642 c 1,10,11
 627 718 627 718 709 719 c 0,12,13
 752 719 752 719 776 685 c 128,-1,14
 800 651 800 651 807 645 c 0,15,16
 822 634 822 634 843 634 c 0,17,18
 965 634 965 634 965 877 c 0,19,20
 965 1010 965 1010 873 1082 c 0,21,22
 815 1127 815 1127 748 1127 c 2,23,-1
 556 1127 l 1,24,-1
 556 151 l 2,25,26
 556 86 556 86 567 73.5 c 128,-1,27
 578 61 578 61 610 55 c 2,28,-1
 678 41 l 1,29,-1
 678 0 l 1,30,-1
 289 0 l 1,31,-1
 289 39 l 1,32,-1
 347 51 l 2,33,34
 400 62 400 62 410.5 92 c 128,-1,35
 421 122 421 122 421 207 c 2,36,-1
 421 955 l 1,37,38
 415 1092 415 1092 358 1123 c 0,39,40
 338 1133 338 1133 310.5 1133 c 128,-1,41
 283 1133 283 1133 234 1094 c 0,42,43
 168 1041 168 1041 118.5 1040.5 c 128,-1,44
 69 1040 69 1040 49 1066.5 c 128,-1,45
 29 1093 29 1093 29 1118 c 0,0,1
EndSplineSet
Substitution2: "'titl' Titling in Latin lookup 0 subtable" P.alt1
EndChar

StartChar: P.alt1
Encoding: 65552 -1 57
Width: 861
Flags: W
LayerCount: 2
Fore
SplineSet
861 877 m 1,0,1
 861 548 861 548 507 548 c 2,2,-1
 308 548 l 1,3,-1
 308 152 l 2,4,5
 308 86 308 86 319.5 73.5 c 128,-1,6
 331 61 331 61 362 55 c 2,7,-1
 430 41 l 1,8,-1
 430 0 l 1,9,-1
 41 0 l 1,10,-1
 41 39 l 1,11,-1
 99 51 l 2,12,13
 152 62 152 62 162.5 92 c 128,-1,14
 173 122 173 122 173 207 c 2,15,-1
 173 979 l 2,16,17
 173 1069 173 1069 157 1096.5 c 128,-1,18
 141 1124 141 1124 93 1134 c 2,19,-1
 36 1146 l 1,20,-1
 36 1190 l 1,21,-1
 535 1190 l 2,22,23
 642 1190 642 1190 730 1134 c 1,24,25
 860 1049 860 1049 861 877 c 1,0,1
308 1128 m 1,26,-1
 308 610 l 1,27,-1
 473 610 l 2,28,29
 653 610 653 610 701 770 c 0,30,31
 716 819 716 819 716 877 c 0,32,33
 716 1009 716 1009 625 1082 c 1,34,35
 566 1128 566 1128 499 1128 c 2,36,-1
 308 1128 l 1,26,-1
EndSplineSet
EndChar

StartChar: Q
Encoding: 81 81 58
Width: 1250
Flags: W
LayerCount: 2
Fore
SplineSet
481 -15 m 1,0,1
 303 21 303 21 181 178 c 128,-1,2
 59 335 59 335 59 580.5 c 128,-1,3
 59 826 59 826 200.5 1009 c 128,-1,4
 342 1192 342 1192 594 1193 c 1,5,6
 848 1193 848 1193 1002 1025 c 128,-1,7
 1156 857 1156 857 1157 590 c 1,8,-1
 1157 588 l 2,9,10
 1157 341 1157 341 1041 194.5 c 128,-1,11
 925 48 925 48 802 7 c 1,12,13
 1170 -182 1170 -182 1462.5 -268.5 c 128,-1,14
 1755 -355 1755 -355 1925 -355 c 128,-1,15
 2095 -355 2095 -355 2173 -337 c 128,-1,16
 2251 -319 2251 -319 2315 -298 c 1,17,-1
 2315 -346 l 1,18,19
 2272 -394 2272 -394 2150 -423 c 128,-1,20
 2028 -452 2028 -452 1866 -453 c 1,21,22
 1386 -453 1386 -453 481 -15 c 1,0,1
209 605 m 0,23,24
 209 315 209 315 329 181 c 128,-1,25
 449 47 449 47 619 46 c 1,26,27
 818 46 818 46 911.5 194.5 c 128,-1,28
 1005 343 1005 343 1006 567 c 1,29,30
 1006 848 1006 848 881.5 985 c 128,-1,31
 757 1122 757 1122 581 1123 c 1,32,-1
 580 1123 l 2,33,34
 412 1123 412 1123 310.5 979 c 128,-1,35
 209 835 209 835 209 605 c 0,23,24
EndSplineSet
Substitution2: "'titl' Titling in Latin lookup 0 subtable" Q.alt1
EndChar

StartChar: Q.alt1
Encoding: 65553 -1 59
Width: 1250
Flags: W
LayerCount: 2
Fore
SplineSet
481 -15 m 1,0,1
 303 21 303 21 181 178 c 128,-1,2
 59 335 59 335 59 580.5 c 128,-1,3
 59 826 59 826 200.5 1009 c 128,-1,4
 342 1192 342 1192 594 1193 c 1,5,6
 848 1193 848 1193 1002 1025 c 128,-1,7
 1156 857 1156 857 1157 590 c 1,8,-1
 1157 588 l 2,9,10
 1157 341 1157 341 1041 194.5 c 128,-1,11
 925 48 925 48 802 7 c 1,12,13
 1170 -182 1170 -182 1462.5 -268.5 c 128,-1,14
 1755 -355 1755 -355 1925 -355 c 128,-1,15
 2095 -355 2095 -355 2173 -337 c 128,-1,16
 2251 -319 2251 -319 2315 -298 c 1,17,-1
 2315 -346 l 1,18,19
 2272 -394 2272 -394 2150 -423 c 128,-1,20
 2028 -452 2028 -452 1866 -453 c 1,21,22
 1386 -453 1386 -453 481 -15 c 1,0,1
209 605 m 0,23,24
 209 315 209 315 329 181 c 128,-1,25
 449 47 449 47 619 46 c 1,26,27
 818 46 818 46 911.5 194.5 c 128,-1,28
 1005 343 1005 343 1006 567 c 1,29,30
 1006 848 1006 848 881.5 985 c 128,-1,31
 757 1122 757 1122 581 1123 c 1,32,-1
 580 1123 l 2,33,34
 412 1123 412 1123 310.5 979 c 128,-1,35
 209 835 209 835 209 605 c 0,23,24
EndSplineSet
EndChar

StartChar: R
Encoding: 82 82 60
Width: 1428
Flags: W
LayerCount: 2
Fore
SplineSet
29 1118 m 0,0,1
 29 1189 29 1189 130 1190 c 1,2,-1
 799 1190 l 2,3,4
 891 1190 891 1190 978 1147 c 0,5,6
 1135 1068 1135 1068 1136 890 c 0,7,8
 1136 754 1136 754 1016 659 c 0,9,10
 963 618 963 618 900 594 c 1,11,12
 985 543 985 543 1050 432 c 0,13,14
 1174 217 1174 217 1235.5 132 c 128,-1,15
 1297 47 1297 47 1358 29 c 1,16,-1
 1358 -24 l 1,17,18
 1196 -39 1196 -39 1106.5 38 c 128,-1,19
 1017 115 1017 115 926 296.5 c 128,-1,20
 835 478 835 478 810 519 c 128,-1,21
 785 560 785 560 762.5 560.5 c 128,-1,22
 740 561 740 561 725.5 525 c 128,-1,23
 711 489 711 489 702 480 c 0,24,25
 687 466 687 466 654.5 465.5 c 128,-1,26
 622 465 622 465 603.5 494 c 128,-1,27
 585 523 585 523 585 549 c 0,28,29
 585 634 585 634 730 634 c 0,30,31
 760 634 760 634 780 632 c 1,32,33
 908 638 908 638 958 758 c 0,34,35
 980 813 980 813 980 877 c 0,36,37
 980 1031 980 1031 868 1094 c 0,38,39
 808 1127 808 1127 729 1127 c 2,40,-1
 554 1127 l 1,41,-1
 554 151 l 2,42,43
 554 86 554 86 565 73.5 c 128,-1,44
 576 61 576 61 608 55 c 2,45,-1
 676 41 l 1,46,-1
 676 0 l 1,47,-1
 287 0 l 1,48,-1
 287 39 l 1,49,-1
 345 51 l 2,50,51
 398 62 398 62 408.5 92 c 128,-1,52
 419 122 419 122 419 207 c 2,53,-1
 419 999 l 1,54,55
 399 1130 399 1130 313 1134 c 1,56,57
 283 1134 283 1134 234 1095 c 0,58,59
 167 1041 167 1041 118 1040.5 c 128,-1,60
 69 1040 69 1040 49 1066.5 c 128,-1,61
 29 1093 29 1093 29 1118 c 0,0,1
EndSplineSet
Substitution2: "'titl' Titling in Latin lookup 0 subtable" R.alt1
EndChar

StartChar: R.alt1
Encoding: 65554 -1 61
Width: 1190
Flags: W
LayerCount: 2
Fore
SplineSet
170 207 m 2,0,-1
 170 979 l 2,1,2
 170 1070 170 1070 153 1097 c 128,-1,3
 136 1124 136 1124 90 1134 c 2,4,-1
 33 1146 l 1,5,-1
 33 1190 l 1,6,-1
 535 1190 l 2,7,8
 627 1190 627 1190 712 1146 c 1,9,10
 860 1067 860 1067 861 890 c 1,11,12
 861 672 861 672 664 593 c 0,13,14
 653 588 653 588 650 587 c 1,15,16
 841 222 841 222 957 105 c 1,17,18
 1027 36 1027 36 1081 34 c 0,19,20
 1100 34 1100 34 1135 35 c 128,-1,21
 1170 36 1170 36 1176 29 c 0,22,23
 1182 21 1182 21 1182 8 c 0,24,25
 1180 -33 1180 -33 1056 -33 c 0,26,27
 880 -33 880 -33 670 280 c 0,28,29
 582 412 582 412 513 556 c 1,30,-1
 305 556 l 1,31,-1
 305 153 l 2,32,33
 305 84 305 84 318 72 c 128,-1,34
 331 60 331 60 359 55 c 2,35,-1
 427 41 l 1,36,-1
 427 0 l 1,37,-1
 38 0 l 1,38,-1
 38 39 l 1,39,-1
 96 51 l 2,40,41
 149 62 149 62 159 92 c 0,42,43
 170 122 170 122 170 207 c 2,0,-1
305 1128 m 1,44,-1
 305 618 l 1,45,-1
 505 618 l 2,46,47
 633 618 633 618 688 741 c 0,48,49
 716 804 716 804 716 877 c 0,50,51
 716 1030 716 1030 605 1094 c 0,52,53
 545 1128 545 1128 465 1128 c 2,54,-1
 305 1128 l 1,44,-1
EndSplineSet
EndChar

StartChar: S
Encoding: 83 83 62
Width: 867
Flags: W
LayerCount: 2
Fore
SplineSet
680 895 m 1,0,1
 665 1130 665 1130 456 1131 c 0,2,3
 333 1131 333 1131 287 1057 c 0,4,5
 266 1023 266 1023 266 971 c 0,6,7
 266 913 266 913 328 857 c 1,8,-1
 361 828 l 1,9,-1
 584 639 l 1,10,11
 783 466 783 466 784 259 c 0,12,13
 784 126 784 126 669 46.5 c 128,-1,14
 554 -33 554 -33 407 -33 c 0,15,16
 313 -33 313 -33 259 -7 c 128,-1,17
 205 19 205 19 189.5 27 c 128,-1,18
 174 35 174 35 132 65 c 2,19,-1
 90 95 l 1,20,-1
 90 274 l 2,21,22
 90 362 90 362 152 407.5 c 128,-1,23
 214 453 214 453 295 453 c 128,-1,24
 376 453 376 453 430 427 c 1,25,26
 483 400 483 400 484 357 c 1,27,-1
 484 355 l 2,28,29
 484 313 484 313 442 300 c 0,30,31
 432 297 432 297 421 297 c 0,32,33
 385 297 385 297 373.5 326 c 128,-1,34
 362 355 362 355 361 357 c 0,35,36
 341 385 341 385 282 385 c 0,37,38
 197 385 197 385 178 304 c 0,39,40
 174 288 174 288 174 274 c 0,41,42
 174 123 174 123 285 66 c 0,43,44
 338 39 338 39 409 39 c 0,45,46
 572 39 572 39 631 149 c 0,47,48
 655 194 655 194 655 243 c 0,49,50
 655 327 655 327 577 436 c 0,51,52
 538 491 538 491 496 525 c 2,53,-1
 313 673 l 1,54,55
 189 775 189 775 160.5 836.5 c 128,-1,56
 132 898 132 898 132 950 c 0,57,58
 132 1070 132 1070 230 1135.5 c 128,-1,59
 328 1201 328 1201 461 1201 c 0,60,61
 614 1201 614 1201 748 1118 c 1,62,-1
 747 895 l 1,63,-1
 680 895 l 1,0,1
EndSplineSet
Substitution2: "'titl' Titling in Latin lookup 0 subtable" S.alt1
EndChar

StartChar: S.alt1
Encoding: 65555 -1 63
Width: 848
Flags: W
LayerCount: 2
Fore
SplineSet
660 895 m 1,0,1
 645 1130 645 1130 437 1131 c 0,2,3
 334 1131 334 1131 280 1061 c 0,4,5
 246 1016 246 1016 246 958 c 0,6,7
 246 865 246 865 327 786 c 1,8,-1
 370 747 l 1,9,-1
 564 582 l 1,10,11
 660 499 660 499 694 456 c 0,12,13
 763 367 763 367 763.5 246.5 c 128,-1,14
 764 126 764 126 650 46.5 c 128,-1,15
 536 -33 536 -33 399 -33 c 0,16,17
 239 -33 239 -33 91 46 c 1,18,-1
 72 274 l 1,19,-1
 132 275 l 1,20,21
 170 40 170 40 390 39 c 0,22,23
 553 39 553 39 612 149 c 0,24,25
 636 194 636 194 636 243 c 0,26,27
 636 329 636 329 522 429 c 1,28,-1
 284 621 l 1,29,30
 166 713 166 713 131 812 c 0,31,32
 112 868 112 868 112 934 c 0,33,34
 112 1061 112 1061 210.5 1131 c 128,-1,35
 309 1201 309 1201 451 1201 c 128,-1,36
 593 1201 593 1201 729 1118 c 1,37,-1
 727 895 l 1,38,-1
 660 895 l 1,0,1
EndSplineSet
EndChar

StartChar: T
Encoding: 84 84 65
Width: 1428
Flags: W
LayerCount: 2
Fore
SplineSet
184 890 m 0,0,1
 184 686 184 686 275 685 c 0,2,3
 291 685 291 685 325 715 c 1,4,5
 382 757 382 757 421 760 c 1,6,7
 485 760 485 760 491 699 c 1,8,9
 494 658 494 658 453 635 c 0,10,11
 432 624 432 624 409 624 c 0,12,13
 295 624 295 624 244 641 c 0,14,15
 119 682 119 682 72 809 c 0,16,17
 51 868 51 868 51 934 c 0,18,19
 51 1124 51 1124 229 1174 c 0,20,21
 284 1190 284 1190 349 1190 c 2,22,-1
 1107 1190 l 2,23,24
 1217 1190 1217 1190 1249 1236 c 1,25,26
 1270 1268 1270 1268 1270 1332 c 1,27,-1
 1312 1332 l 1,28,29
 1351 1201 1351 1201 1311 1159.5 c 128,-1,30
 1271 1118 1271 1118 1178 1112 c 1,31,-1
 800 1112 l 1,32,-1
 800 209 l 2,33,34
 800 117 800 117 813 89.5 c 128,-1,35
 826 62 826 62 874 52 c 2,36,-1
 932 41 l 1,37,-1
 932 0 l 1,38,-1
 544 0 l 1,39,-1
 544 42 l 1,40,-1
 613 57 l 2,41,42
 650 65 650 65 659 80 c 1,43,44
 667 97 667 97 667 153 c 2,45,-1
 667 1112 l 1,46,-1
 337 1112 l 2,47,48
 221 1112 221 1112 192 974 c 0,49,50
 184 935 184 935 184 890 c 0,0,1
EndSplineSet
Substitution2: "'titl' Titling in Latin lookup 0 subtable" T.alt1
EndChar

StartChar: T.alt1
Encoding: 65556 -1 66
Width: 1144
Flags: W
LayerCount: 2
Fore
SplineSet
505 1128 m 1,0,-1
 170 1128 l 2,1,2
 103 1128 103 1128 91 1109 c 128,-1,3
 79 1090 79 1090 73 1061 c 2,4,-1
 59 988 l 1,5,-1
 16 988 l 1,6,-1
 16 1271 l 1,7,-1
 57 1271 l 1,8,-1
 67 1234 l 2,9,10
 75 1201 75 1201 111 1195 c 0,11,12
 147 1190 147 1190 225 1190 c 2,13,-1
 919 1190 l 2,14,15
 1028 1190 1028 1190 1051 1198 c 1,16,17
 1073 1207 1073 1207 1077 1226 c 2,18,-1
 1087 1271 l 1,19,-1
 1128 1271 l 1,20,-1
 1128 988 l 1,21,-1
 1086 988 l 1,22,-1
 1071 1056 l 2,23,24
 1062 1101 1062 1101 1042 1115 c 0,25,26
 1023 1128 1023 1128 975 1128 c 2,27,-1
 639 1128 l 1,28,-1
 639 209 l 2,29,30
 639 118 639 118 651 90 c 128,-1,31
 663 62 663 62 712 52 c 2,32,-1
 771 41 l 1,33,-1
 771 0 l 1,34,-1
 383 0 l 1,35,-1
 383 42 l 1,36,-1
 452 57 l 2,37,38
 489 65 489 65 497 80 c 0,39,40
 505 97 505 97 505 153 c 2,41,-1
 505 1128 l 1,0,-1
EndSplineSet
EndChar

StartChar: U
Encoding: 85 85 67
Width: 1182
Flags: W
LayerCount: 2
Fore
SplineSet
1035 509 m 2,0,1
 1035 -32 1035 -32 584 -33 c 0,2,3
 262 -33 262 -33 175 250 c 0,4,5
 145 347 145 347 145 469 c 2,6,-1
 145 978 l 2,7,8
 145 1071 145 1071 128.5 1097.5 c 128,-1,9
 112 1124 112 1124 66 1134 c 2,10,-1
 8 1146 l 1,11,-1
 8 1190 l 1,12,-1
 572 1190 l 2,13,14
 645 1190 645 1190 667 1146 c 0,15,16
 673 1132 673 1132 673 1117 c 0,17,18
 673 1063 673 1063 620 1044 c 0,19,20
 603 1038 603 1038 587 1038 c 0,21,22
 536 1038 536 1038 484.5 1079.5 c 128,-1,23
 433 1121 433 1121 417.5 1127 c 128,-1,24
 402 1133 402 1133 389 1133 c 0,25,26
 302 1133 302 1133 285 1005 c 0,27,28
 280 963 280 963 280 872 c 2,29,-1
 280 473 l 2,30,31
 280 133 280 133 525 68 c 0,32,33
 579 54 579 54 642 54 c 0,34,35
 855 54 855 54 922 285 c 0,36,37
 949 380 949 380 950 502 c 1,38,-1
 950 978 l 2,39,40
 950 1071 950 1071 933.5 1097.5 c 128,-1,41
 917 1124 917 1124 871 1134 c 2,42,-1
 813 1146 l 1,43,-1
 813 1190 l 1,44,-1
 1152 1190 l 1,45,-1
 1152 1144 l 1,46,-1
 1084 1130 l 2,47,48
 1049 1123 1049 1123 1042 1108 c 128,-1,49
 1035 1093 1035 1093 1035 1033 c 2,50,-1
 1035 509 l 2,0,1
EndSplineSet
Substitution2: "'titl' Titling in Latin lookup 0 subtable" U.alt1
EndChar

StartChar: U.alt1
Encoding: 65557 -1 68
Width: 1172
Flags: W
LayerCount: 2
Fore
SplineSet
1035 509 m 2,0,1
 1035 -32 1035 -32 584 -33 c 0,2,3
 262 -33 262 -33 175 250 c 0,4,5
 145 347 145 347 145 469 c 2,6,-1
 145 978 l 2,7,8
 145 1071 145 1071 128.5 1097.5 c 128,-1,9
 112 1124 112 1124 66 1134 c 2,10,-1
 8 1146 l 1,11,-1
 8 1190 l 1,12,-1
 397 1190 l 1,13,-1
 397 1144 l 1,14,-1
 329 1130 l 2,15,16
 294 1123 294 1123 287 1108 c 128,-1,17
 280 1093 280 1093 280 1033 c 2,18,-1
 280 473 l 2,19,20
 280 133 280 133 525 68 c 0,21,22
 579 54 579 54 642 54 c 0,23,24
 855 54 855 54 922 285 c 0,25,26
 949 380 949 380 950 502 c 1,27,-1
 950 978 l 2,28,29
 950 1071 950 1071 933.5 1097.5 c 128,-1,30
 917 1124 917 1124 871 1134 c 2,31,-1
 813 1146 l 1,32,-1
 813 1190 l 1,33,-1
 1152 1190 l 1,34,-1
 1152 1144 l 1,35,-1
 1084 1130 l 2,36,37
 1049 1123 1049 1123 1042 1108 c 128,-1,38
 1035 1093 1035 1093 1035 1033 c 2,39,-1
 1035 509 l 2,0,1
EndSplineSet
EndChar

StartChar: V
Encoding: 86 86 73
Width: 1205
Flags: W
LayerCount: 2
Fore
SplineSet
531 1190 m 2,0,1
 631 1190 631 1190 632 1120 c 0,2,3
 632 1066 632 1066 578 1047 c 0,4,5
 562 1042 562 1042 546 1042 c 0,6,7
 495 1042 495 1042 446.5 1083.5 c 128,-1,8
 398 1125 398 1125 384 1130.5 c 128,-1,9
 370 1136 370 1136 359 1136 c 0,10,11
 277 1136 277 1136 355 929 c 1,12,-1
 639 161 l 1,13,-1
 989 1064 l 2,14,15
 1009 1114 1009 1114 976.5 1129 c 128,-1,16
 944 1144 944 1144 852 1144 c 1,17,-1
 852 1190 l 1,18,-1
 1236 1190 l 1,19,-1
 1237 1144 l 1,20,21
 1135 1140 1135 1140 1102 1099 c 0,22,23
 1090 1084 1090 1084 1078 1052 c 2,24,-1
 654 -2 l 1,25,-1
 561 -2 l 1,26,-1
 200 924 l 2,27,28
 146 1062 146 1062 114.5 1099 c 128,-1,29
 83 1136 83 1136 20 1141 c 0,30,31
 -1 1143 -1 1143 -33 1143 c 1,32,-1
 -33 1190 l 1,33,-1
 531 1190 l 2,0,1
EndSplineSet
Substitution2: "'titl' Titling in Latin lookup 0 subtable" V.alt1
EndChar

StartChar: V.alt1
Encoding: 65558 -1 74
Width: 1205
Flags: W
LayerCount: 2
Fore
SplineSet
-33 1143 m 1,0,-1
 -33 1190 l 1,1,-1
 442 1190 l 1,2,-1
 442 1143 l 1,3,4
 340 1143 340 1143 322 1121 c 1,5,6
 297 1086 297 1086 355 929 c 2,7,-1
 639 161 l 1,8,-1
 968 1030 l 1,9,10
 1007 1114 1007 1114 977 1129 c 128,-1,11
 947 1144 947 1144 852 1144 c 1,12,-1
 852 1190 l 1,13,-1
 1236 1190 l 1,14,-1
 1237 1144 l 1,15,16
 1135 1140 1135 1140 1102 1099 c 0,17,18
 1090 1084 1090 1084 1078 1051 c 2,19,-1
 1064 1015 l 1,20,21
 1011 875 1011 875 835 445.5 c 128,-1,22
 659 16 659 16 654 -2 c 1,23,-1
 561 -2 l 1,24,-1
 200 924 l 2,25,26
 146 1062 146 1062 114.5 1099 c 128,-1,27
 83 1136 83 1136 20 1141 c 0,28,29
 -1 1143 -1 1143 -33 1143 c 1,0,-1
EndSplineSet
EndChar

StartChar: W
Encoding: 87 87 75
Width: 1837
Flags: W
LayerCount: 2
Fore
SplineSet
724 1190 m 1,0,-1
 1115 1190 l 1,1,-1
 1115 1141 l 1,2,3
 1051 1141 1051 1141 1024.5 1110.5 c 128,-1,4
 998 1080 998 1080 998 1055 c 256,5,6
 998 1030 998 1030 1008 1001.5 c 128,-1,7
 1018 973 1018 973 1033 927 c 2,8,-1
 1275 184 l 1,9,-1
 1610 1042 l 2,10,11
 1635 1106 1635 1106 1598.5 1123.5 c 128,-1,12
 1562 1141 1562 1141 1488 1141 c 1,13,-1
 1488 1190 l 1,14,-1
 1870 1190 l 1,15,-1
 1870 1141 l 1,16,17
 1822 1139 1822 1139 1794.5 1133 c 128,-1,18
 1767 1127 1767 1127 1750 1113.5 c 128,-1,19
 1733 1100 1733 1100 1723 1078.5 c 128,-1,20
 1713 1057 1713 1057 1700 1024 c 2,21,-1
 1291 0 l 1,22,-1
 1214 0 l 1,23,-1
 927 900 l 1,24,-1
 597 0 l 1,25,-1
 522 0 l 1,26,-1
 178 944 l 2,27,28
 132 1070 132 1070 101 1105.5 c 128,-1,29
 70 1141 70 1141 -33 1141 c 1,30,-1
 -33 1190 l 1,31,-1
 417 1190 l 1,32,-1
 417 1141 l 1,33,34
 298 1141 298 1141 298 1090 c 0,35,36
 298 1078 298 1078 301 1059.5 c 128,-1,37
 304 1041 304 1041 309.5 1019.5 c 128,-1,38
 315 998 315 998 322 974 c 128,-1,39
 329 950 329 950 337 927 c 2,40,-1
 585 191 l 1,41,-1
 885 1030 l 1,42,43
 871 1068 871 1068 859 1090 c 128,-1,44
 847 1112 847 1112 830 1123.5 c 128,-1,45
 813 1135 813 1135 788 1138 c 128,-1,46
 763 1141 763 1141 724 1141 c 1,47,-1
 724 1190 l 1,0,-1
EndSplineSet
Substitution2: "'titl' Titling in Latin lookup 0 subtable" W.alt1
EndChar

StartChar: W.alt1
Encoding: 65559 -1 76
Width: 1837
Flags: W
LayerCount: 2
Fore
SplineSet
724 1141 m 1,0,-1
 724 1190 l 1,1,-1
 1115 1190 l 1,2,-1
 1115 1141 l 1,3,4
 1030 1141 1030 1141 1005 1087 c 0,5,6
 998 1071 998 1071 998 1051 c 128,-1,7
 998 1031 998 1031 1033 924 c 2,8,-1
 1141 593 l 1,9,-1
 1275 184 l 1,10,-1
 1610 1042 l 2,11,12
 1635 1106 1635 1106 1598 1124 c 0,13,14
 1562 1141 1562 1141 1488 1141 c 1,15,-1
 1488 1190 l 1,16,-1
 1870 1190 l 1,17,-1
 1870 1141 l 1,18,19
 1778 1138 1778 1138 1756 1124 c 0,20,21
 1733 1110 1733 1110 1721 1080 c 2,22,-1
 1700 1024 l 2,23,24
 1690 997 1690 997 1495 514 c 0,25,26
 1300 30 1300 30 1291 0 c 1,27,-1
 1214 0 l 1,28,-1
 927 900 l 1,29,-1
 597 0 l 1,30,-1
 522 0 l 1,31,-1
 178 944 l 2,32,33
 129 1077 129 1077 103 1107 c 128,-1,34
 77 1137 77 1137 24 1140 c 0,35,36
 8 1141 8 1141 -33 1141 c 1,37,-1
 -33 1190 l 1,38,-1
 417 1190 l 1,39,-1
 417 1141 l 1,40,41
 299 1140 299 1140 298 1090 c 0,42,43
 298 1040 298 1040 337 927 c 2,44,-1
 585 191 l 1,45,-1
 885 1030 l 1,46,47
 859 1108 859 1108 835 1125 c 1,48,-1
 724 1141 l 1,0,-1
EndSplineSet
EndChar

StartChar: X
Encoding: 88 88 77
Width: 1413
Flags: W
LayerCount: 2
Fore
SplineSet
1032 1234 m 0,0,1
 1246 1178 1246 1178 1200 1044 c 0,2,3
 1186 1005 1186 1005 1117.5 921.5 c 128,-1,4
 1049 838 1049 838 944 728 c 2,5,-1
 838 616 l 1,6,-1
 986 422 l 1,7,-1
 1022 374 l 1,8,9
 1181 159 1181 159 1258 98 c 0,10,11
 1293 70 1293 70 1317 65 c 2,12,-1
 1405 49 l 1,13,-1
 1405 0 l 1,14,-1
 807 0 l 1,15,-1
 807 52 l 1,16,-1
 896 68 l 2,17,18
 901 69 901 69 966.5 79 c 128,-1,19
 1032 89 1032 89 1033 104 c 1,20,21
 1033 144 1033 144 777 471 c 1,22,-1
 722 540 l 1,23,24
 640 452 640 452 500.5 281.5 c 128,-1,25
 361 111 361 111 360 94 c 1,26,27
 360 76 360 76 435 64 c 2,28,-1
 512 52 l 1,29,-1
 512 0 l 1,30,-1
 8 -2 l 1,31,-1
 8 47 l 1,32,-1
 109 64 l 1,33,34
 215 80 215 80 481 391 c 1,35,-1
 583 511 l 1,36,-1
 678 623 l 1,37,-1
 639 676 l 1,38,39
 305 1136 305 1136 231 1141 c 1,40,-1
 127 1144 l 1,41,-1
 127 1190 l 1,42,-1
 703 1190 l 1,43,-1
 703 1143 l 1,44,-1
 624 1133 l 2,45,46
 542 1122 542 1122 533.5 1112 c 128,-1,47
 525 1102 525 1102 525 1094 c 0,48,49
 525 1057 525 1057 648 886 c 128,-1,50
 771 715 771 715 797 686 c 1,51,52
 818 711 818 711 936.5 835 c 128,-1,53
 1055 959 1055 959 1096 1015 c 128,-1,54
 1137 1071 1137 1071 1118 1109 c 1,55,56
 1102 1137 1102 1137 1067.5 1139.5 c 128,-1,57
 1033 1142 1033 1142 1013 1129.5 c 128,-1,58
 993 1117 993 1117 941.5 1109.5 c 128,-1,59
 890 1102 890 1102 869 1129 c 128,-1,60
 848 1156 848 1156 848 1187 c 0,61,62
 850 1256 850 1256 913 1257 c 0,63,64
 941 1257 941 1257 1032 1234 c 0,0,1
EndSplineSet
Substitution2: "'titl' Titling in Latin lookup 0 subtable" X.alt1
EndChar

StartChar: X.alt1
Encoding: 65560 -1 78
Width: 1325
Flags: W
LayerCount: 2
Fore
SplineSet
618 559 m 1,0,1
 338 131 338 131 337 114 c 1,2,3
 338 81 338 81 450 64 c 2,4,-1
 526 52 l 1,5,-1
 526 0 l 1,6,-1
 8 0 l 1,7,-1
 8 49 l 1,8,-1
 114 65 l 2,9,10
 187 76 187 76 226.5 117.5 c 128,-1,11
 266 159 266 159 318 238 c 2,12,-1
 386 342 l 1,13,-1
 476 480 l 2,14,15
 539 577 539 577 572 624 c 1,16,-1
 519 700 l 2,17,18
 296 1020 296 1020 205 1103 c 0,19,20
 164 1140 164 1140 143 1141 c 2,21,-1
 39 1144 l 1,22,-1
 39 1190 l 1,23,-1
 615 1190 l 1,24,-1
 615 1143 l 1,25,-1
 536 1133 l 2,26,27
 454 1122 454 1122 445.5 1112 c 128,-1,28
 437 1102 437 1102 437 1094 c 0,29,30
 437 1057 437 1057 544 907 c 128,-1,31
 651 757 651 757 676 729 c 1,32,-1
 739 814 l 1,33,34
 909 1041 909 1041 911 1095 c 0,35,36
 911 1119 911 1119 805 1130 c 0,37,38
 773 1133 773 1133 756 1136 c 2,39,-1
 709 1143 l 1,40,-1
 709 1190 l 1,41,-1
 1231 1190 l 1,42,-1
 1231 1144 l 1,43,-1
 1081 1125 l 2,44,45
 1029 1118 1029 1118 900 924 c 0,46,47
 821 806 821 806 712 660 c 1,48,-1
 898 422 l 1,49,-1
 942 364 l 1,50,51
 1094 160 1094 160 1149 115 c 128,-1,52
 1204 70 1204 70 1229 65 c 2,53,-1
 1317 49 l 1,54,-1
 1317 0 l 1,55,-1
 742 0 l 1,56,-1
 742 52 l 1,57,-1
 831 68 l 2,58,59
 837 69 837 69 902.5 78 c 128,-1,60
 968 87 968 87 968 104 c 1,61,62
 959 136 959 136 895 220 c 1,63,-1
 808 331 l 1,64,-1
 618 559 l 1,0,1
EndSplineSet
EndChar

StartChar: Y
Encoding: 89 89 79
Width: 1131
Flags: W
LayerCount: 2
Fore
SplineSet
339 1138 m 0,0,1
 280 1138 280 1138 279 1102 c 1,2,3
 280 1076 280 1076 296 1051 c 2,4,-1
 595 593 l 1,5,-1
 637 662 l 1,6,7
 897 1087 897 1087 897.5 1110 c 128,-1,8
 898 1133 898 1133 869 1138.5 c 128,-1,9
 840 1144 840 1144 761 1146 c 1,10,-1
 761 1190 l 1,11,-1
 1148 1190 l 1,12,-1
 1148 1146 l 1,13,14
 1146 1145 1146 1145 1136 1145 c 0,15,16
 1037 1140 1037 1140 996 1090 c 0,17,18
 909 984 909 984 691 610 c 0,19,20
 647 534 647 534 634 510 c 1,21,-1
 634 152 l 2,22,23
 634 87 634 87 645 74 c 128,-1,24
 656 61 656 61 689 54 c 2,25,-1
 756 41 l 1,26,-1
 756 0 l 1,27,-1
 367 0 l 1,28,-1
 367 39 l 1,29,-1
 425 51 l 2,30,31
 478 62 478 62 488.5 93 c 128,-1,32
 499 124 499 124 499 207 c 2,33,-1
 499 510 l 1,34,35
 246 940 246 940 161 1039 c 0,36,37
 67 1147 67 1147 -8 1146 c 1,38,-1
 -8 1190 l 1,39,-1
 512 1190 l 2,40,41
 612 1190 612 1190 613 1121 c 0,42,43
 613 1069 613 1069 561 1049 c 0,44,45
 543 1043 543 1043 526 1043 c 0,46,47
 475 1043 475 1043 426.5 1084.5 c 128,-1,48
 378 1126 378 1126 364.5 1132 c 128,-1,49
 351 1138 351 1138 339 1138 c 0,0,1
EndSplineSet
Substitution2: "'titl' Titling in Latin lookup 0 subtable" Y.alt1
EndChar

StartChar: Y.alt1
Encoding: 65561 -1 80
Width: 1139
Flags: W
LayerCount: 2
Fore
SplineSet
499 207 m 2,0,-1
 499 510 l 1,1,2
 246 940 246 940 161 1039 c 0,3,4
 67 1147 67 1147 -8 1146 c 1,5,-1
 -8 1190 l 1,6,-1
 380 1190 l 1,7,-1
 380 1146 l 1,8,-1
 298 1129 l 1,9,10
 270 1119 270 1119 269 1104 c 1,11,12
 269 1085 269 1085 427.5 847 c 128,-1,13
 586 609 586 609 595 593 c 1,14,-1
 630 651 l 1,15,16
 897 1088 897 1088 898 1118 c 0,17,18
 898 1144 898 1144 796 1146 c 1,19,-1
 761 1146 l 1,20,-1
 761 1190 l 1,21,-1
 1148 1190 l 1,22,-1
 1148 1146 l 1,23,24
 1146 1145 1146 1145 1136 1145 c 0,25,26
 1037 1140 1037 1140 996 1090 c 0,27,28
 909 984 909 984 691 610 c 0,29,30
 647 534 647 534 634 510 c 1,31,-1
 634 152 l 2,32,33
 634 86 634 86 646 73 c 128,-1,34
 658 60 658 60 689 54 c 2,35,-1
 756 41 l 1,36,-1
 756 0 l 1,37,-1
 367 0 l 1,38,-1
 367 39 l 1,39,-1
 425 51 l 2,40,41
 478 62 478 62 488.5 93 c 128,-1,42
 499 124 499 124 499 207 c 2,0,-1
EndSplineSet
EndChar

StartChar: Z
Encoding: 90 90 83
Width: 1177
Flags: W
LayerCount: 2
Fore
SplineSet
1112 1156 m 1,0,-1
 321 208 l 1,1,-1
 324 210 l 1,2,3
 699 24 699 24 985 -55 c 0,4,5
 1271 -135 1271 -135 1436 -135 c 128,-1,6
 1601 -135 1601 -135 1679 -117 c 128,-1,7
 1757 -99 1757 -99 1821 -78 c 1,8,-1
 1821 -126 l 1,9,10
 1779 -174 1779 -174 1657 -203 c 128,-1,11
 1535 -232 1535 -232 1368 -233 c 0,12,13
 955 -235 955 -235 211 98 c 1,14,-1
 204 92 l 1,15,16
 204 23 204 23 196 -1 c 128,-1,17
 188 -25 188 -25 165 -54 c 0,18,19
 143 -82 143 -82 110 -80 c 128,-1,20
 77 -78 77 -78 57 -62 c 1,21,22
 5 -16 5 -16 68 60 c 2,23,-1
 939 1126 l 1,24,-1
 389 1126 l 2,25,26
 319 1126 319 1126 294 1069 c 0,27,28
 279 1034 279 1034 269 957 c 1,29,-1
 217 957 l 1,30,-1
 217 1190 l 1,31,-1
 1117 1190 l 1,32,-1
 1112 1156 l 1,0,-1
EndSplineSet
Substitution2: "'titl' Titling in Latin lookup 0 subtable" Z.alt1
EndChar

StartChar: Z.alt1
Encoding: 65562 -1 84
Width: 1082
Flags: W
LayerCount: 2
Fore
SplineSet
812 62 m 2,0,1
 877 62 877 62 877 310 c 1,2,-1
 954 310 l 1,3,-1
 950 0 l 1,4,-1
 33 0 l 1,5,-1
 33 78 l 1,6,-1
 828 1128 l 1,7,-1
 302 1128 l 1,8,9
 201 1127 201 1127 171 1060 c 0,10,11
 167 1050 167 1050 161 1032 c 128,-1,12
 155 1014 155 1014 152 1007 c 1,13,-1
 114 1007 l 1,14,-1
 114 1190 l 1,15,-1
 1050 1190 l 1,16,-1
 199 62 l 1,17,-1
 812 62 l 2,0,1
EndSplineSet
EndChar

StartChar: Thorn
Encoding: 222 222 85
Width: 1358
Flags: W
LayerCount: 2
Fore
SplineSet
370 1015 m 2,0,-1
 370 926 l 1,1,-1
 600 926 l 2,2,3
 742 926 742 926 834 851 c 128,-1,4
 926 776 926 776 926 631 c 0,5,6
 926 449 926 449 819.5 367.5 c 128,-1,7
 713 286 713 286 552 286 c 2,8,-1
 370 286 l 1,9,-1
 370 176 l 2,10,11
 370 109 370 109 384 85 c 128,-1,12
 398 61 398 61 443 52 c 2,13,-1
 502 41 l 1,14,-1
 502 0 l 1,15,-1
 114 0 l 1,16,-1
 114 42 l 1,17,-1
 183 57 l 2,18,19
 220 65 220 65 228 81 c 128,-1,20
 236 97 236 97 238 173 c 1,21,-1
 238 1038 l 2,22,23
 238 1103 238 1103 226 1115.5 c 128,-1,24
 214 1128 214 1128 184 1134 c 2,25,-1
 116 1149 l 1,26,-1
 116 1191 l 1,27,-1
 506 1191 l 1,28,-1
 506 1150 l 1,29,-1
 447 1139 l 2,30,31
 387 1127 387 1127 375 1083 c 0,32,33
 370 1062 370 1062 370 1015 c 2,0,-1
370 861 m 1,34,35
 370 852 370 852 370 349 c 1,36,-1
 434 349 l 2,37,38
 617 349 617 349 699 419 c 128,-1,39
 781 489 781 489 781 615 c 0,40,41
 781 749 781 749 687 819 c 0,42,43
 630 861 630 861 564 861 c 2,44,-1
 370 861 l 1,34,35
EndSplineSet
EndChar

StartChar: space
Encoding: 32 32 86
Width: 388
Flags: W
LayerCount: 2
Fore
SplineSet
0 0 m 0,0,-1
EndSplineSet
EndChar

StartChar: asterisk
Encoding: 42 42 87
Width: 735
Flags: W
LayerCount: 2
Fore
SplineSet
391 1262 m 1,0,-1
 435 1019 l 1,1,-1
 686 1073 l 1,2,-1
 699 1032 l 1,3,-1
 469 903 l 1,4,-1
 582 670 l 1,5,-1
 543 647 l 1,6,-1
 372 828 l 1,7,-1
 191 647 l 1,8,-1
 152 670 l 1,9,-1
 275 903 l 1,10,-1
 42 1032 l 1,11,-1
 54 1073 l 1,12,-1
 306 1019 l 1,13,-1
 352 1262 l 1,14,-1
 391 1262 l 1,0,-1
EndSplineSet
EndChar

StartChar: a
Encoding: 97 97 88
Width: 815
Flags: W
LayerCount: 2
Fore
SplineSet
797 85 m 1,0,1
 795 80 795 80 782.5 61 c 128,-1,2
 770 42 770 42 750.5 21 c 128,-1,3
 731 0 731 0 706 -16.5 c 128,-1,4
 681 -33 681 -33 654 -33 c 0,5,6
 615 -33 615 -33 591 -15 c 128,-1,7
 567 3 567 3 553 30 c 128,-1,8
 539 57 539 57 533 87.5 c 128,-1,9
 527 118 527 118 525 142 c 1,10,11
 518 136 518 136 499 108 c 128,-1,12
 480 80 480 80 448 48.5 c 128,-1,13
 416 17 416 17 369.5 -8 c 128,-1,14
 323 -33 323 -33 262 -33 c 0,15,16
 232 -33 232 -33 199.5 -25 c 128,-1,17
 167 -17 167 -17 141 2.5 c 128,-1,18
 115 22 115 22 98 55.5 c 128,-1,19
 81 89 81 89 81 139 c 0,20,21
 81 210 81 210 128 257 c 128,-1,22
 175 304 175 304 245 331 c 128,-1,23
 315 358 315 358 373.5 370.5 c 128,-1,24
 432 383 432 383 513 399 c 1,25,-1
 513 566 l 2,26,27
 513 588 513 588 511.5 621.5 c 128,-1,28
 510 655 510 655 499.5 686.5 c 128,-1,29
 489 718 489 718 465.5 740.5 c 128,-1,30
 442 763 442 763 398 763 c 0,31,32
 344 763 344 763 309.5 742 c 128,-1,33
 275 721 275 721 259 704 c 128,-1,34
 243 687 243 687 215 654 c 1,35,36
 181 650 181 650 161.5 655.5 c 128,-1,37
 142 661 142 661 129.5 672.5 c 128,-1,38
 117 684 117 684 117 704 c 0,39,40
 117 733 117 733 161 759 c 128,-1,41
 205 785 205 785 275.5 805.5 c 128,-1,42
 346 826 346 826 409 826 c 0,43,44
 466 826 466 826 505 809.5 c 128,-1,45
 544 793 544 793 569 764.5 c 128,-1,46
 594 736 594 736 607 698.5 c 128,-1,47
 620 661 620 661 625.5 619 c 128,-1,48
 631 577 631 577 631.5 533 c 128,-1,49
 632 489 632 489 632 448 c 0,50,51
 632 372 632 372 630 300 c 128,-1,52
 628 228 628 228 631 171.5 c 128,-1,53
 634 115 634 115 646.5 80.5 c 128,-1,54
 659 46 659 46 688 46 c 0,55,56
 725 46 725 46 763 114 c 1,57,-1
 797 85 l 1,0,1
513 333 m 1,58,59
 432 321 432 321 374.5 306 c 128,-1,60
 317 291 317 291 283.5 268 c 128,-1,61
 250 245 250 245 232.5 216.5 c 128,-1,62
 215 188 215 188 215 147 c 0,63,64
 215 47 215 47 303 47 c 0,65,66
 335 47 335 47 369 70 c 128,-1,67
 403 93 403 93 432 125.5 c 128,-1,68
 461 158 461 158 483 193 c 128,-1,69
 505 228 505 228 513 251 c 1,70,-1
 513 333 l 1,58,59
EndSplineSet
EndChar

StartChar: b
Encoding: 98 98 95
Width: 954
Flags: W
LayerCount: 2
Fore
SplineSet
318 1379 m 1,0,-1
 318 750 l 1,1,2
 418 823 418 823 555 823 c 0,3,4
 693 823 693 823 794.5 717.5 c 128,-1,5
 896 612 896 612 896 414.5 c 128,-1,6
 896 217 896 217 781 96 c 0,7,8
 658 -33 658 -33 492 -33 c 0,9,10
 422 -33 422 -33 347.5 -15 c 128,-1,11
 273 3 273 3 234 21 c 2,12,-1
 195 39 l 1,13,-1
 195 1164 l 2,14,15
 195 1233 195 1233 189 1248 c 0,16,17
 175 1283 175 1283 77 1283 c 1,18,-1
 72 1317 l 1,19,-1
 318 1379 l 1,0,-1
318 93 m 1,20,21
 399 44 399 44 489 44 c 0,22,23
 594 44 594 44 684 121 c 128,-1,24
 774 198 774 198 774 373 c 0,25,26
 774 601 774 601 629 689 c 0,27,28
 562 729 562 729 486 729 c 0,29,30
 398 730 398 730 318 665 c 1,31,-1
 318 93 l 1,20,21
EndSplineSet
EndChar

StartChar: c
Encoding: 99 99 96
Width: 764
Flags: W
LayerCount: 2
Fore
SplineSet
240 637 m 0,0,1
 181 533 181 533 181 392.5 c 128,-1,2
 181 252 181 252 258 164 c 128,-1,3
 335 76 335 76 454 75.5 c 128,-1,4
 573 75 573 75 672 126 c 1,5,-1
 704 91 l 1,6,7
 656 45 656 45 631 28 c 0,8,9
 541 -32 541 -32 425 -33 c 1,10,11
 198 -33 198 -33 106 160 c 0,12,13
 57 262 57 262 57 388 c 0,14,15
 57 599 57 599 185 720 c 0,16,17
 294 823 294 823 438 823 c 0,18,19
 584 823 584 823 722 725 c 0,20,21
 739 714 739 714 726 671 c 128,-1,22
 713 628 713 628 672 611 c 1,23,24
 641 611 641 611 608.5 657.5 c 128,-1,25
 576 704 576 704 571 709 c 0,26,27
 522 763 522 763 443 764 c 1,28,29
 313 764 313 764 240 637 c 0,0,1
EndSplineSet
EndChar

StartChar: ccedilla
Encoding: 231 231 98
Width: 764
Flags: W
LayerCount: 2
Fore
SplineSet
328 -152 m 1,0,-1
 378 -31 l 1,1,2
 188 -12 188 -12 106 160 c 0,3,4
 57 262 57 262 57 388 c 0,5,6
 57 599 57 599 185 720 c 0,7,8
 294 823 294 823 438 823 c 0,9,10
 584 823 584 823 722 725 c 0,11,12
 739 714 739 714 726 671 c 128,-1,13
 713 628 713 628 672 611 c 1,14,15
 641 611 641 611 608.5 657.5 c 128,-1,16
 576 704 576 704 571 709 c 0,17,18
 522 763 522 763 443 764 c 1,19,20
 313 764 313 764 240 637 c 0,21,22
 181 533 181 533 181 392.5 c 128,-1,23
 181 252 181 252 258 164 c 128,-1,24
 335 76 335 76 454 75.5 c 128,-1,25
 573 75 573 75 672 126 c 1,26,-1
 704 91 l 1,27,28
 656 45 656 45 631 28 c 0,29,30
 547 -27 547 -27 441 -32 c 1,31,-1
 406 -117 l 1,32,33
 462 -115 462 -115 518.5 -158 c 128,-1,34
 575 -201 575 -201 575 -281.5 c 128,-1,35
 575 -362 575 -362 520.5 -403.5 c 128,-1,36
 466 -445 466 -445 396 -445 c 0,37,38
 315 -445 315 -445 272.5 -405 c 128,-1,39
 230 -365 230 -365 230 -315 c 1,40,41
 232 -276 232 -276 267 -275 c 0,42,43
 288 -275 288 -275 286 -308 c 128,-1,44
 284 -341 284 -341 284 -346 c 0,45,46
 284 -370 284 -370 310 -383 c 128,-1,47
 336 -396 336 -396 367 -396 c 0,48,49
 412 -396 412 -396 443.5 -365.5 c 128,-1,50
 475 -335 475 -335 476 -267 c 1,51,52
 476 -152 476 -152 328 -152 c 1,0,-1
EndSplineSet
EndChar

StartChar: d
Encoding: 100 100 99
Width: 971
Flags: W
LayerCount: 2
Fore
SplineSet
57 357 m 0,0,1
 57 642 57 642 248 760 c 0,2,3
 351 823 351 823 476 823 c 0,4,5
 550 823 550 823 626 792 c 2,6,-1
 650 782 l 1,7,-1
 650 1162 l 2,8,9
 650 1231 650 1231 644 1246 c 0,10,11
 630 1281 630 1281 532 1281 c 1,12,-1
 527 1315 l 1,13,-1
 773 1377 l 1,14,-1
 773 121 l 2,15,16
 773 53 773 53 842 53 c 0,17,18
 847 53 847 53 883.5 57.5 c 128,-1,19
 920 62 920 62 923 62 c 1,20,-1
 923 21 l 1,21,-1
 691 -33 l 1,22,-1
 655 68 l 1,23,24
 653 67 653 67 645 60 c 0,25,26
 532 -33 532 -33 421 -33 c 0,27,28
 190 -33 190 -33 100 156 c 0,29,30
 57 248 57 248 57 357 c 0,0,1
186 407 m 1,31,32
 186 199 186 199 283 108 c 0,33,34
 346 50 346 50 439.5 49.5 c 128,-1,35
 533 49 533 49 591 102 c 0,36,37
 618 127 618 127 647 166 c 1,38,-1
 647 680 l 1,39,40
 624 727 624 727 551 747 c 0,41,42
 517 756 517 756 478 756 c 0,43,44
 325 756 325 756 242 607 c 1,45,46
 188 507 188 507 186 407 c 1,31,32
EndSplineSet
EndChar

StartChar: e
Encoding: 101 101 100
Width: 751
Flags: W
LayerCount: 2
Fore
SplineSet
412 826 m 1,0,1
 604 826 604 826 653 676 c 0,2,3
 675 608 675 608 665 543 c 1,4,-1
 186 543 l 1,5,6
 173 471 173 471 173 409 c 0,7,8
 173 198 173 198 299 121 c 0,9,10
 366 80 366 80 460 80 c 0,11,12
 558 80 558 80 657 152 c 1,13,-1
 686 122 l 1,14,-1
 658 89 l 1,15,16
 544 -30 544 -30 388 -31 c 0,17,18
 295 -31 295 -31 216 25 c 0,19,20
 57 138 57 138 57 367 c 0,21,22
 57 609 57 609 192 734 c 1,23,24
 294 823 294 823 412 826 c 1,0,1
196 608 m 1,25,-1
 536 608 l 1,26,27
 536 687 536 687 500 725.5 c 128,-1,28
 464 764 464 764 408 764 c 0,29,30
 321 764 321 764 266 712.5 c 128,-1,31
 211 661 211 661 196 608 c 1,25,-1
EndSplineSet
EndChar

StartChar: f
Encoding: 102 102 105
Width: 543
Flags: W
LayerCount: 2
Fore
SplineSet
77 729 m 1,0,-1
 77 778 l 1,1,-1
 199 804 l 1,2,-1
 199 988 l 1,3,4
 201 1378 201 1378 497 1379 c 0,5,6
 579 1379 579 1379 647 1353 c 1,7,8
 713 1325 713 1325 713.5 1277.5 c 128,-1,9
 714 1230 714 1230 678 1216 c 0,10,11
 666 1212 666 1212 654 1211 c 1,12,13
 610 1212 610 1212 566 1268.5 c 128,-1,14
 522 1325 522 1325 478 1325 c 0,15,16
 399 1325 399 1325 358.5 1271.5 c 128,-1,17
 318 1218 318 1218 318 1097 c 2,18,-1
 318 804 l 1,19,-1
 530 804 l 1,20,-1
 530 729 l 1,21,-1
 318 729 l 1,22,-1
 318 230 l 2,23,24
 318 137 318 137 334 102 c 0,25,26
 353 61 353 61 463 37 c 1,27,-1
 463 0 l 1,28,-1
 78 0 l 1,29,-1
 78 37 l 1,30,31
 84 39 84 39 119 48 c 0,32,33
 198 68 198 68 199 165 c 1,34,-1
 199 729 l 1,35,-1
 77 729 l 1,0,-1
EndSplineSet
EndChar

StartChar: g
Encoding: 103 103 106
Width: 905
Flags: W
LayerCount: 2
Fore
SplineSet
892 732 m 1,0,-1
 727 732 l 1,1,2
 736 702 736 702 741.5 626 c 128,-1,3
 747 550 747 550 747 533 c 0,4,5
 747 336 747 336 575 261 c 0,6,7
 472 216 472 216 372 227 c 1,8,9
 293 164 293 164 277.5 137 c 128,-1,10
 262 110 262 110 262 81 c 0,11,12
 262 15 262 15 416 5 c 0,13,14
 454 3 454 3 591.5 3 c 128,-1,15
 729 3 729 3 811 -66 c 128,-1,16
 893 -135 893 -135 893 -241 c 0,17,18
 893 -403 893 -403 764 -535 c 128,-1,19
 635 -667 635 -667 401 -667 c 0,20,21
 304 -667 304 -667 212 -613 c 1,22,23
 84 -535 84 -535 83 -409 c 1,24,25
 83 -245 83 -245 259 -119 c 1,26,-1
 302 -90 l 1,27,28
 191 -56 191 -56 153 -24 c 0,29,30
 113 11 113 11 113 51 c 0,31,32
 114 110 114 110 200 180 c 0,33,34
 238 210 238 210 289 246 c 1,35,36
 245 272 245 272 186 340 c 128,-1,37
 127 408 127 408 127 502 c 0,38,39
 127 671 127 671 221.5 747 c 128,-1,40
 316 823 316 823 434 823 c 1,41,42
 534 821 534 821 611 810 c 128,-1,43
 688 799 688 799 720 799 c 2,44,-1
 892 799 l 1,45,-1
 892 732 l 1,0,-1
314 -558 m 0,46,47
 368 -586 368 -586 422 -587 c 1,48,49
 588 -587 588 -587 677 -497.5 c 128,-1,50
 766 -408 766 -408 769 -310 c 1,51,52
 767 -109 767 -109 536 -108 c 0,53,54
 450 -108 450 -108 422.5 -111 c 128,-1,55
 395 -114 395 -114 346 -129 c 1,56,57
 212 -263 212 -263 212 -375 c 0,58,59
 212 -503 212 -503 314 -558 c 0,46,47
435 763 m 0,60,61
 250 761 250 761 249 505 c 0,62,63
 249 415 249 415 294 351.5 c 128,-1,64
 339 288 339 288 425 287 c 1,65,66
 566 287 566 287 607 437 c 0,67,68
 620 487 620 487 621 544 c 1,69,70
 621 668 621 668 551 726 c 1,71,72
 504 763 504 763 435 763 c 0,60,61
EndSplineSet
EndChar

StartChar: h
Encoding: 104 104 107
Width: 1014
Flags: W
LayerCount: 2
Fore
SplineSet
554 733 m 1,0,1
 410 733 410 733 303 657 c 1,2,-1
 303 209 l 2,3,4
 303 117 303 117 316.5 89.5 c 128,-1,5
 330 62 330 62 377 52 c 1,6,-1
 435 41 l 1,7,-1
 435 0 l 1,8,-1
 57 0 l 1,9,-1
 57 42 l 1,10,-1
 126 57 l 2,11,12
 163 65 163 65 171 80 c 0,13,14
 179 97 179 97 179 153 c 2,15,-1
 179 1165 l 2,16,17
 179 1233 179 1233 174 1246 c 0,18,19
 161 1283 161 1283 62 1283 c 1,20,-1
 57 1317 l 1,21,-1
 303 1379 l 1,22,-1
 303 730 l 1,23,24
 470 823 470 823 593 823 c 0,25,26
 747 823 747 823 800 684 c 1,27,28
 824 618 824 618 825 526 c 1,29,-1
 825 207 l 2,30,31
 825 115 825 115 838.5 87.5 c 128,-1,32
 852 60 852 60 898 51 c 2,33,-1
 957 39 l 1,34,-1
 957 -2 l 1,35,-1
 579 -2 l 1,36,-1
 579 41 l 1,37,-1
 647 55 l 2,38,39
 685 63 685 63 693 79 c 0,40,41
 701 96 701 96 701 152 c 2,42,-1
 701 494 l 1,43,44
 699 731 699 731 554 733 c 1,0,1
EndSplineSet
EndChar

StartChar: i
Encoding: 105 105 108
Width: 517
Flags: W
LayerCount: 2
Fore
SplineSet
319 818 m 1,0,-1
 319 209 l 2,1,2
 319 117 319 117 332 89.5 c 128,-1,3
 345 62 345 62 393 52 c 1,4,-1
 452 41 l 1,5,-1
 452 0 l 1,6,-1
 73 0 l 1,7,-1
 73 42 l 1,8,-1
 142 57 l 2,9,10
 179 65 179 65 188 80 c 1,11,12
 196 97 196 97 196 153 c 2,13,-1
 196 603 l 2,14,15
 196 672 196 672 190 687 c 0,16,17
 176 722 176 722 78 722 c 1,18,-1
 73 756 l 1,19,-1
 319 818 l 1,0,-1
148 1209 m 0,20,21
 148 1244 148 1244 171.5 1268.5 c 128,-1,22
 195 1293 195 1293 230 1293 c 0,23,24
 264 1293 264 1293 288.5 1268.5 c 128,-1,25
 313 1244 313 1244 313 1209 c 0,26,27
 313 1175 313 1175 288.5 1151.5 c 128,-1,28
 264 1128 264 1128 230 1128 c 0,29,30
 195 1128 195 1128 171.5 1151.5 c 128,-1,31
 148 1175 148 1175 148 1209 c 0,20,21
EndSplineSet
EndChar

StartChar: j
Encoding: 106 106 113
Width: 452
Flags: W
LayerCount: 2
Fore
SplineSet
104 -668 m 0,0,1
 32 -668 32 -668 31 -619 c 0,2,3
 31 -582 31 -582 53.5 -561.5 c 128,-1,4
 76 -541 76 -541 92.5 -541 c 128,-1,5
 109 -541 109 -541 142.5 -549 c 128,-1,6
 176 -557 176 -557 182.5 -539 c 128,-1,7
 189 -521 189 -521 189 -485 c 2,8,-1
 189 603 l 2,9,10
 189 672 189 672 183 687 c 0,11,12
 169 722 169 722 72 722 c 1,13,-1
 67 756 l 1,14,-1
 313 818 l 1,15,-1
 313 -96 l 2,16,17
 313 -340 313 -340 257.5 -503.5 c 128,-1,18
 202 -667 202 -667 104 -668 c 0,0,1
137 1209 m 0,19,20
 137 1244 137 1244 160.5 1268.5 c 128,-1,21
 184 1293 184 1293 219 1293 c 0,22,23
 253 1293 253 1293 277.5 1268.5 c 128,-1,24
 302 1244 302 1244 302 1209 c 0,25,26
 302 1175 302 1175 277.5 1151.5 c 128,-1,27
 253 1128 253 1128 219 1128 c 0,28,29
 184 1128 184 1128 160.5 1151.5 c 128,-1,30
 137 1175 137 1175 137 1209 c 0,19,20
EndSplineSet
EndChar

StartChar: k
Encoding: 107 107 114
Width: 866
Flags: W
LayerCount: 2
Fore
SplineSet
302 1379 m 1,0,-1
 302 487 l 1,1,-1
 567 698 l 1,2,3
 612 736 612 736 567 748 c 2,4,-1
 523 760 l 1,5,-1
 523 802 l 1,6,-1
 844 802 l 1,7,-1
 844 761 l 1,8,9
 763 749 763 749 679 695 c 1,10,-1
 416 505 l 1,11,-1
 698 197 l 2,12,13
 786 102 786 102 804 85 c 0,14,15
 858 37 858 37 906 37 c 1,16,-1
 906 0 l 1,17,-1
 559 0 l 1,18,-1
 559 37 l 1,19,20
 635 46 635 46 631 80 c 0,21,22
 629 92 629 92 618 104 c 2,23,-1
 302 460 l 1,24,-1
 302 227 l 2,25,26
 302 133 302 133 317 100 c 0,27,28
 335 61 335 61 434 37 c 1,29,-1
 434 0 l 1,30,-1
 57 0 l 1,31,-1
 57 37 l 1,32,33
 63 39 63 39 100 46 c 0,34,35
 183 63 183 63 183 166 c 2,36,-1
 183 1175 l 2,37,38
 183 1236 183 1236 175 1251 c 0,39,40
 158 1283 158 1283 67 1283 c 1,41,-1
 62 1315 l 1,42,-1
 302 1379 l 1,0,-1
EndSplineSet
EndChar

StartChar: l
Encoding: 108 108 115
Width: 482
Flags: W
LayerCount: 2
Fore
SplineSet
302 1379 m 1,0,-1
 302 227 l 2,1,2
 302 137 302 137 308 116 c 0,3,4
 319 76 319 76 367 56 c 0,5,6
 393 46 393 46 434 37 c 1,7,-1
 434 0 l 1,8,-1
 57 0 l 1,9,-1
 57 37 l 1,10,11
 63 39 63 39 100 46 c 0,12,13
 183 63 183 63 183 166 c 2,14,-1
 183 1175 l 2,15,16
 183 1236 183 1236 175 1251 c 0,17,18
 158 1283 158 1283 67 1283 c 1,19,-1
 62 1315 l 1,20,-1
 302 1379 l 1,0,-1
EndSplineSet
EndChar

StartChar: m
Encoding: 109 109 116
Width: 1552
Flags: W
LayerCount: 2
Fore
SplineSet
570 733 m 1,0,1
 427 733 427 733 319 657 c 1,2,-1
 319 209 l 2,3,4
 319 117 319 117 332 89.5 c 128,-1,5
 345 62 345 62 393 52 c 1,6,-1
 452 41 l 1,7,-1
 452 0 l 1,8,-1
 73 0 l 1,9,-1
 73 42 l 1,10,-1
 142 57 l 2,11,12
 179 65 179 65 188 80 c 1,13,14
 196 97 196 97 196 153 c 2,15,-1
 196 603 l 2,16,17
 196 673 196 673 182 697 c 0,18,19
 167 722 167 722 78 722 c 1,20,-1
 73 756 l 1,21,-1
 319 818 l 1,22,-1
 319 730 l 1,23,24
 489 823 489 823 617.5 822.5 c 128,-1,25
 746 822 746 822 804 711 c 1,26,27
 995 823 995 823 1138.5 823 c 128,-1,28
 1282 823 1282 823 1335 687 c 0,29,30
 1361 621 1361 621 1361 526 c 2,31,-1
 1361 207 l 2,32,33
 1361 115 1361 115 1374.5 87.5 c 128,-1,34
 1388 60 1388 60 1434 51 c 2,35,-1
 1493 39 l 1,36,-1
 1493 0 l 1,37,-1
 1115 0 l 1,38,-1
 1115 41 l 1,39,-1
 1183 55 l 2,40,41
 1221 63 1221 63 1229 79 c 0,42,43
 1237 96 1237 96 1237 152 c 2,44,-1
 1237 494 l 1,45,46
 1235 731 1235 731 1090 733 c 1,47,48
 947 733 947 733 826 654 c 1,49,50
 841 599 841 599 841 526 c 2,51,-1
 841 207 l 2,52,53
 841 115 841 115 854.5 87.5 c 128,-1,54
 868 60 868 60 914 51 c 2,55,-1
 973 39 l 1,56,-1
 973 0 l 1,57,-1
 595 0 l 1,58,-1
 595 41 l 1,59,-1
 663 55 l 2,60,61
 701 63 701 63 709 79 c 0,62,63
 717 96 717 96 717 152 c 2,64,-1
 717 494 l 1,65,66
 715 731 715 731 570 733 c 1,0,1
EndSplineSet
EndChar

StartChar: n
Encoding: 110 110 117
Width: 1030
Flags: W
LayerCount: 2
Fore
SplineSet
570 733 m 1,0,1
 427 733 427 733 319 657 c 1,2,-1
 319 209 l 2,3,4
 319 117 319 117 332 89.5 c 128,-1,5
 345 62 345 62 393 52 c 1,6,-1
 452 41 l 1,7,-1
 452 0 l 1,8,-1
 73 0 l 1,9,-1
 73 42 l 1,10,-1
 142 57 l 2,11,12
 179 65 179 65 188 80 c 1,13,14
 196 97 196 97 196 153 c 2,15,-1
 196 603 l 2,16,17
 196 675 196 675 183 694 c 1,18,19
 159 721 159 721 78 722 c 1,20,-1
 73 756 l 1,21,-1
 319 818 l 1,22,-1
 319 730 l 1,23,24
 489 823 489 823 610 823 c 0,25,26
 762 823 762 823 815 687 c 0,27,28
 841 621 841 621 841 526 c 2,29,-1
 841 207 l 2,30,31
 841 115 841 115 854.5 87.5 c 128,-1,32
 868 60 868 60 914 51 c 2,33,-1
 973 39 l 1,34,-1
 973 0 l 1,35,-1
 595 0 l 1,36,-1
 595 41 l 1,37,-1
 663 55 l 2,38,39
 701 63 701 63 709 79 c 0,40,41
 717 96 717 96 717 152 c 2,42,-1
 717 494 l 1,43,44
 715 731 715 731 570 733 c 1,0,1
EndSplineSet
EndChar

StartChar: o
Encoding: 111 111 119
Width: 848
Flags: W
LayerCount: 2
Fore
SplineSet
57 383 m 1,0,1
 57 565 57 565 161 691.5 c 128,-1,2
 265 818 265 818 414 818 c 0,3,4
 565 818 565 818 678 700 c 128,-1,5
 791 582 791 582 791 403 c 256,6,7
 791 224 791 224 693 105 c 0,8,9
 580 -32 580 -32 433 -32 c 0,10,11
 276 -33 276 -33 167 85.5 c 128,-1,12
 58 204 58 204 57 383 c 1,0,1
399 743 m 0,13,14
 293 743 293 743 236 647 c 128,-1,15
 179 551 179 551 179 408 c 0,16,17
 179 266 179 266 251.5 154.5 c 128,-1,18
 324 43 324 43 443 42 c 0,19,20
 554 42 554 42 609.5 139.5 c 128,-1,21
 665 237 665 237 665 369 c 0,22,23
 665 510 665 510 597 626 c 128,-1,24
 529 742 529 742 399 743 c 0,13,14
EndSplineSet
EndChar

StartChar: oslash
Encoding: 248 248 124
Width: 848
Flags: W
LayerCount: 2
Fore
SplineSet
717 865 m 1,0,-1
 824 865 l 1,1,-1
 690 686 l 1,2,3
 791 571 791 571 791 403 c 0,4,5
 791 224 791 224 693 105 c 0,6,7
 580 -32 580 -32 433 -32 c 1,8,9
 307 -33 307 -33 211 43 c 1,10,-1
 123 -75 l 1,11,-1
 15 -75 l 1,12,-1
 149 105 l 1,13,14
 58 219 58 219 57 383 c 1,15,16
 57 565 57 565 161 691.5 c 128,-1,17
 265 818 265 818 414 818 c 0,18,19
 532 818 532 818 627 745 c 1,20,-1
 717 865 l 1,0,-1
443 42 m 1,21,22
 554 42 554 42 609.5 139.5 c 128,-1,23
 665 237 665 237 665 369 c 0,24,25
 665 487 665 487 617 588 c 1,26,-1
 272 125 l 1,27,28
 340 43 340 43 443 42 c 1,21,22
399 743 m 1,29,30
 293 743 293 743 236 647 c 128,-1,31
 179 551 179 551 179 408 c 0,32,33
 179 297 179 297 223 204 c 1,34,-1
 568 666 l 1,35,36
 504 742 504 742 399 743 c 1,29,30
EndSplineSet
EndChar

StartChar: p
Encoding: 112 112 126
Width: 906
Flags: W
LayerCount: 2
Fore
SplineSet
284 -7 m 1,0,-1
 284 -463 l 2,1,2
 284 -548 284 -548 303.5 -575 c 128,-1,3
 323 -602 323 -602 396 -622 c 2,4,-1
 421 -629 l 1,5,-1
 421 -665 l 1,6,-1
 41 -665 l 1,7,-1
 41 -628 l 1,8,9
 121 -614 121 -614 142 -586 c 128,-1,10
 163 -558 163 -558 163 -517 c 2,11,-1
 163 603 l 2,12,13
 163 671 163 671 156 687 c 0,14,15
 141 722 141 722 44 722 c 1,16,-1
 39 756 l 1,17,-1
 284 818 l 1,18,-1
 284 748 l 1,19,20
 387 823 387 823 517 823 c 0,21,22
 660 823 660 823 762 717.5 c 128,-1,23
 864 612 864 612 864 414.5 c 128,-1,24
 864 217 864 217 749 97 c 0,25,26
 626 -32 626 -32 460 -33 c 0,27,28
 376 -33 376 -33 284 -7 c 1,0,-1
284 93 m 1,29,30
 357 44 357 44 451 44 c 0,31,32
 561 44 561 44 651.5 121.5 c 128,-1,33
 742 199 742 199 742 373 c 0,34,35
 742 529 742 529 682.5 606.5 c 128,-1,36
 623 684 623 684 565 708.5 c 128,-1,37
 507 733 507 733 449 730 c 0,38,39
 368 726 368 726 285 667 c 1,40,-1
 284 93 l 1,29,30
EndSplineSet
EndChar

StartChar: q
Encoding: 113 113 127
Width: 963
Flags: W
LayerCount: 2
Fore
SplineSet
523 825 m 0,0,1
 655 825 655 825 738 769 c 1,2,-1
 802 769 l 1,3,-1
 802 -456 l 2,4,5
 802 -547 802 -547 814 -574.5 c 128,-1,6
 826 -602 826 -602 875 -613 c 2,7,-1
 914 -621 l 1,8,-1
 914 -665 l 1,9,-1
 520 -665 l 1,10,-1
 520 -621 l 1,11,12
 634 -604 634 -604 655 -588 c 0,13,14
 678 -571 678 -571 678 -512 c 2,15,-1
 678 24 l 1,16,17
 672 22 672 22 653 15 c 0,18,19
 535 -31 535 -31 448 -31 c 0,20,21
 223 -31 223 -31 118 150 c 1,22,23
 59 258 59 258 57 370 c 1,24,25
 57 575 57 575 176 700 c 128,-1,26
 295 825 295 825 523 825 c 0,0,1
678 108 m 1,27,-1
 678 541 l 2,28,29
 678 725 678 725 547 751 c 0,30,31
 522 756 522 756 494 756 c 0,32,33
 370 756 370 756 280.5 662 c 128,-1,34
 191 568 191 568 191 398 c 128,-1,35
 191 228 191 228 283 137.5 c 128,-1,36
 375 47 375 47 484 47 c 0,37,38
 560 47 560 47 602 67 c 128,-1,39
 644 87 644 87 678 108 c 1,27,-1
EndSplineSet
EndChar

StartChar: r
Encoding: 114 114 128
Width: 630
Flags: W
LayerCount: 2
Fore
SplineSet
574 673 m 1,0,-1
 465 686 l 1,1,2
 383 685 383 685 331 603 c 0,3,4
 313 573 313 573 313 512 c 2,5,-1
 313 156 l 2,6,7
 313 82 313 82 378 57 c 0,8,9
 379 56 379 56 414 46.5 c 128,-1,10
 449 37 449 37 452 36 c 1,11,-1
 452 0 l 1,12,-1
 73 0 l 1,13,-1
 73 36 l 1,14,15
 76 38 76 38 93 42 c 0,16,17
 165 59 165 59 185 95 c 0,18,19
 195 115 195 115 196 139 c 1,20,-1
 196 631 l 2,21,22
 196 679 196 679 145 689 c 0,23,24
 130 692 130 692 80 694 c 1,25,-1
 75 729 l 1,26,-1
 321 823 l 1,27,-1
 323 665 l 1,28,-1
 358 702 l 1,29,30
 471 807 471 807 579 807 c 0,31,32
 643 807 643 807 644 745 c 0,33,34
 644 695 644 695 603 678 c 0,35,36
 589 673 589 673 574 673 c 1,0,-1
EndSplineSet
EndChar

StartChar: s
Encoding: 115 115 129
Width: 652
Flags: W
LayerCount: 2
Fore
SplineSet
541 766 m 1,0,-1
 536 611 l 1,1,-1
 484 611 l 1,2,3
 478 714 478 714 422 748 c 0,4,5
 388 768 388 768 337 768 c 0,6,7
 282 768 282 768 253.5 733.5 c 128,-1,8
 225 699 225 699 225 645 c 0,9,10
 226 582 226 582 298 522 c 1,11,-1
 430 407 l 1,12,13
 512 334 512 334 536.5 285.5 c 128,-1,14
 561 237 561 237 561 189 c 0,15,16
 561 73 561 73 465 11 c 0,17,18
 396 -33 396 -33 291 -32 c 0,19,20
 187 -32 187 -32 85 21 c 1,21,-1
 73 179 l 1,22,-1
 122 179 l 1,23,24
 142 93 142 93 175 59.5 c 128,-1,25
 208 26 208 26 287 26 c 0,26,27
 364 26 364 26 406 70 c 128,-1,28
 448 114 448 114 447 162 c 1,29,30
 447 229 447 229 357 308 c 1,31,-1
 225 421 l 2,32,33
 105 523 105 523 104 616 c 1,34,35
 104 726 104 726 178.5 774.5 c 128,-1,36
 253 823 253 823 350 823 c 0,37,38
 451 823 451 823 541 766 c 1,0,-1
EndSplineSet
EndChar

StartChar: t
Encoding: 116 116 131
Width: 536
Flags: W
LayerCount: 2
Fore
SplineSet
466 727 m 1,0,-1
 258 727 l 1,1,-1
 258 329 l 2,2,3
 258 243 258 243 260 167.5 c 128,-1,4
 262 92 262 92 283.5 64.5 c 128,-1,5
 305 37 305 37 346 37 c 0,6,7
 419 37 419 37 502 77 c 1,8,-1
 502 23 l 1,9,10
 396 -33 396 -33 321 -33 c 0,11,12
 250 -33 250 -33 211.5 -9.5 c 128,-1,13
 173 14 173 14 155.5 51.5 c 128,-1,14
 138 89 138 89 135 136 c 128,-1,15
 132 183 132 183 132 230 c 2,16,-1
 132 659 l 2,17,18
 132 681 132 681 131.5 693 c 128,-1,19
 131 705 131 705 127.5 714 c 128,-1,20
 124 723 124 723 111 725 c 128,-1,21
 98 727 98 727 72 727 c 2,22,-1
 16 727 l 1,23,-1
 16 774 l 1,24,25
 112 815 112 815 148 853 c 128,-1,26
 184 891 184 891 225 985 c 1,27,-1
 258 985 l 1,28,-1
 258 802 l 1,29,-1
 466 802 l 1,30,-1
 466 727 l 1,0,-1
EndSplineSet
EndChar

StartChar: u
Encoding: 117 117 132
Width: 985
Flags: W
LayerCount: 2
Fore
SplineSet
33 764 m 1,0,-1
 33 804 l 1,1,-1
 262 804 l 1,2,-1
 262 386 l 2,3,4
 262 372 262 372 259 290 c 0,5,6
 251 57 251 57 422 55 c 1,7,8
 517 55 517 55 587 131 c 128,-1,9
 657 207 657 207 657 303 c 2,10,-1
 657 546 l 2,11,12
 657 679 657 679 645 715 c 0,13,14
 629 763 629 763 531 763 c 1,15,-1
 531 804 l 1,16,-1
 781 804 l 1,17,-1
 781 217 l 2,18,19
 781 108 781 108 826 87 c 0,20,21
 847 78 847 78 906 81 c 1,22,-1
 911 46 l 1,23,-1
 693 -29 l 1,24,-1
 657 103 l 1,25,-1
 624 71 l 1,26,27
 507 -30 507 -30 378 -31 c 1,28,29
 218 -31 218 -31 167 91 c 0,30,31
 137 163 137 163 137 287 c 2,32,-1
 137 600 l 2,33,34
 137 723 137 723 86 756 c 0,35,36
 63 770 63 770 33 764 c 1,0,-1
EndSplineSet
EndChar

StartChar: v
Encoding: 118 118 137
Width: 789
Flags: W
LayerCount: 2
Fore
SplineSet
-24 758 m 1,0,-1
 -24 804 l 1,1,-1
 316 804 l 1,2,-1
 316 758 l 1,3,4
 231 758 231 758 225 715 c 0,5,6
 222 690 222 690 244 628 c 2,7,-1
 416 156 l 1,8,-1
 606 685 l 2,9,10
 625 736 625 736 567 752 c 0,11,12
 546 758 546 758 520 758 c 1,13,-1
 520 804 l 1,14,-1
 797 804 l 1,15,-1
 797 758 l 1,16,17
 730 756 730 756 704 716 c 0,18,19
 693 699 693 699 668 634 c 2,20,-1
 422 -11 l 1,21,-1
 359 -11 l 1,22,-1
 122 605 l 2,23,24
 86 699 86 699 54 728 c 1,25,26
 23 758 23 758 -24 758 c 1,0,-1
EndSplineSet
EndChar

StartChar: w
Encoding: 119 119 138
Width: 1306
Flags: W
LayerCount: 2
Fore
SplineSet
492 758 m 1,0,-1
 492 804 l 1,1,-1
 833 804 l 1,2,-1
 833 758 l 1,3,4
 748 758 748 758 742 715 c 0,5,6
 739 690 739 690 761 628 c 2,7,-1
 932 156 l 1,8,-1
 1123 685 l 2,9,10
 1142 735 1142 735 1084 752 c 0,11,12
 1063 758 1063 758 1037 758 c 1,13,-1
 1037 804 l 1,14,-1
 1314 804 l 1,15,-1
 1314 758 l 1,16,17
 1247 756 1247 756 1220 716 c 0,18,19
 1208 697 1208 697 1185 634 c 2,20,-1
 939 -11 l 1,21,-1
 875 -11 l 1,22,-1
 654 566 l 1,23,-1
 422 -11 l 1,24,-1
 359 -11 l 1,25,-1
 122 605 l 2,26,27
 86 699 86 699 54 728 c 0,28,29
 22 758 22 758 -24 758 c 1,30,-1
 -24 804 l 1,31,-1
 316 804 l 1,32,-1
 316 758 l 1,33,34
 231 758 231 758 225 715 c 0,35,36
 222 690 222 690 244 628 c 2,37,-1
 416 156 l 1,38,-1
 615 668 l 1,39,40
 590 729 590 729 564 744 c 0,41,42
 538 758 538 758 492 758 c 1,0,-1
EndSplineSet
EndChar

StartChar: x
Encoding: 120 120 139
Width: 867
Flags: W
LayerCount: 2
Fore
SplineSet
611 95 m 2,0,-1
 426 331 l 1,1,-1
 406 359 l 1,2,3
 399 347 399 347 315.5 221 c 128,-1,4
 232 95 232 95 231 85 c 1,5,6
 231 62 231 62 298 51 c 2,7,-1
 350 42 l 1,8,-1
 350 0 l 1,9,-1
 -16 0 l 1,10,-1
 -16 41 l 1,11,-1
 62 57 l 2,12,13
 102 65 102 65 145 119.5 c 128,-1,14
 188 174 188 174 235 243 c 2,15,-1
 362 429 l 1,16,-1
 332 471 l 1,17,18
 143 741 143 741 70 755 c 1,19,-1
 21 763 l 1,20,-1
 21 804 l 1,21,-1
 409 804 l 1,22,-1
 409 761 l 1,23,-1
 355 751 l 1,24,25
 303 743 303 743 299 733 c 128,-1,26
 295 723 295 723 295 717 c 0,27,28
 295 683 295 683 365 588 c 2,29,-1
 430 500 l 1,30,31
 456 530 456 530 522 616.5 c 128,-1,32
 588 703 588 703 588 717 c 0,33,34
 586 745 586 745 505 756 c 1,35,-1
 473 761 l 1,36,-1
 473 804 l 1,37,-1
 839 804 l 1,38,-1
 839 763 l 1,39,-1
 797 755 l 2,40,41
 718 739 718 739 616 615 c 0,42,43
 613 611 613 611 567.5 555.5 c 128,-1,44
 522 500 522 500 479 440 c 1,45,-1
 597 290 l 1,46,-1
 616 266 l 1,47,48
 780 55 780 55 836 47 c 2,49,-1
 883 41 l 1,50,-1
 883 0 l 1,51,-1
 496 0 l 1,52,-1
 496 42 l 1,53,-1
 564 57 l 2,54,55
 616 68 616 68 617 77 c 128,-1,56
 618 86 618 86 611 95 c 2,0,-1
EndSplineSet
EndChar

StartChar: y
Encoding: 121 121 140
Width: 844
Flags: W
LayerCount: 2
Fore
SplineSet
-2 758 m 1,0,-1
 -2 804 l 1,1,-1
 341 804 l 1,2,-1
 341 758 l 1,3,4
 262 758 262 758 263 704 c 0,5,6
 264 676 264 676 282 628 c 2,7,-1
 461 156 l 1,8,9
 524 303 524 303 588 476 c 2,10,-1
 663 681 l 2,11,12
 684 741 684 741 629 754 c 0,13,14
 610 758 610 758 582 758 c 1,15,-1
 582 804 l 1,16,-1
 885 804 l 1,17,-1
 885 758 l 1,18,19
 813 756 813 756 785 716 c 0,20,21
 773 698 773 698 692.5 490 c 128,-1,22
 612 282 612 282 451.5 -86.5 c 128,-1,23
 291 -455 291 -455 270 -493 c 0,24,25
 203 -614 203 -614 115 -649 c 1,26,27
 66 -665 66 -665 13 -665 c 0,28,29
 -50 -665 -50 -665 -102.5 -639 c 128,-1,30
 -155 -613 -155 -613 -155.5 -571.5 c 128,-1,31
 -156 -530 -156 -530 -136 -515 c 128,-1,32
 -116 -500 -116 -500 -93 -501 c 0,33,34
 -41 -502 -41 -502 -3.5 -554.5 c 128,-1,35
 34 -607 34 -607 67 -608 c 0,36,37
 100 -608 100 -608 139.5 -561.5 c 128,-1,38
 179 -515 179 -515 222 -412 c 2,39,-1
 316 -189 l 1,40,-1
 391 3 l 1,41,-1
 160 598 l 2,42,43
 126 686 126 686 96 722 c 128,-1,44
 66 758 66 758 -2 758 c 1,0,-1
EndSplineSet
EndChar

StartChar: z
Encoding: 122 122 143
Width: 750
Flags: W
LayerCount: 2
Fore
SplineSet
652 804 m 1,0,-1
 652 750 l 1,1,-1
 194 77 l 1,2,-1
 533 77 l 2,3,4
 609 77 609 77 629 175 c 1,5,-1
 634 218 l 1,6,-1
 686 218 l 1,7,-1
 683 0 l 1,8,-1
 31 0 l 1,9,-1
 31 64 l 1,10,-1
 509 732 l 1,11,12
 371 734 371 734 217 732 c 0,13,14
 140 730 140 730 103 641 c 0,15,16
 98 630 98 630 96 626 c 1,17,-1
 51 626 l 1,18,-1
 51 804 l 1,19,-1
 652 804 l 1,0,-1
EndSplineSet
EndChar

StartChar: thorn
Encoding: 254 254 144
Width: 954
Flags: W
LayerCount: 2
Fore
SplineSet
73 1313 m 1,0,-1
 319 1376 l 1,1,-1
 319 750 l 1,2,3
 418 823 418 823 555.5 823 c 128,-1,4
 693 823 693 823 794.5 717.5 c 128,-1,5
 896 612 896 612 896 414.5 c 128,-1,6
 896 217 896 217 781 96 c 0,7,8
 658 -33 658 -33 492 -33 c 0,9,10
 410 -33 410 -33 319 -8 c 1,11,-1
 319 -463 l 1,12,13
 323 -548 323 -548 338 -574 c 0,14,15
 355 -603 355 -603 452 -629 c 1,16,-1
 452 -665 l 1,17,-1
 72 -665 l 1,18,-1
 72 -628 l 1,19,20
 152 -614 152 -614 173 -586 c 128,-1,21
 194 -558 194 -558 194 -517 c 2,22,-1
 194 52 l 1,23,-1
 196 1058 l 2,24,25
 196 1181 196 1181 193 1200 c 0,26,27
 185 1254 185 1254 143 1269 c 0,28,29
 118 1277 118 1277 78 1277 c 1,30,31
 75 1283 75 1283 75 1293 c 128,-1,32
 75 1303 75 1303 73 1313 c 1,0,-1
319 93 m 1,33,34
 398 45 398 45 478 44 c 1,35,36
 594 44 594 44 684 121 c 128,-1,37
 774 198 774 198 774 373 c 0,38,39
 774 557 774 557 684.5 643 c 128,-1,40
 595 729 595 729 496.5 729.5 c 128,-1,41
 398 730 398 730 319 665 c 1,42,-1
 319 93 l 1,33,34
EndSplineSet
EndChar

StartChar: germandbls
Encoding: 223 223 145
Width: 1130
Flags: W
LayerCount: 2
Fore
SplineSet
363 1013 m 2,0,-1
 363 0 l 1,1,-1
 109 0 l 1,2,-1
 109 41 l 1,3,-1
 164 53 l 1,4,5
 230 73 230 73 231 101 c 1,6,-1
 231 1024 l 2,7,8
 231 1211 231 1211 332 1291.5 c 128,-1,9
 433 1372 433 1372 584 1372 c 0,10,11
 777 1372 777 1372 864 1279.5 c 128,-1,12
 951 1187 951 1187 951.5 1036 c 128,-1,13
 952 885 952 885 835 810 c 0,14,15
 822 802 822 802 802 791 c 128,-1,16
 782 780 782 780 776 776 c 1,17,18
 831 764 831 764 900 712 c 1,19,20
 1052 592 1052 592 1055 417 c 1,21,22
 1055 152 1055 152 812 51 c 1,23,24
 678 -2 678 -2 531 0 c 1,25,-1
 531 60 l 1,26,27
 734 84 734 84 813.5 178 c 128,-1,28
 893 272 893 272 893 394 c 0,29,30
 893 575 893 575 769.5 660.5 c 128,-1,31
 646 746 646 746 531 747 c 1,32,-1
 531 805 l 1,33,34
 674 798 674 798 739.5 860.5 c 128,-1,35
 805 923 805 923 805 1040 c 0,36,37
 805 1206 805 1206 699 1271 c 0,38,39
 650 1300 650 1300 584 1301 c 1,40,41
 466 1301 466 1301 414.5 1223 c 128,-1,42
 363 1145 363 1145 363 1013 c 2,0,-1
EndSplineSet
EndChar

StartChar: ae
Encoding: 230 230 146
Width: 1208
Flags: W
LayerCount: 2
Fore
SplineSet
869 826 m 0,0,1
 937 826 937 826 982.5 808 c 128,-1,2
 1028 790 1028 790 1056.5 762 c 128,-1,3
 1085 734 1085 734 1099.5 700 c 128,-1,4
 1114 666 1114 666 1119.5 635 c 128,-1,5
 1125 604 1125 604 1121 543 c 1,6,-1
 642 543 l 1,7,8
 636 510 636 510 632.5 476 c 128,-1,9
 629 442 629 442 629 409 c 0,10,11
 629 342 629 342 644.5 282.5 c 128,-1,12
 660 223 660 223 694 178 c 128,-1,13
 728 133 728 133 783 106.5 c 128,-1,14
 838 80 838 80 918 80 c 0,15,16
 1014 80 1014 80 1113 152 c 1,17,-1
 1143 122 l 1,18,19
 1115 80 1115 80 1038.5 24.5 c 128,-1,20
 962 -31 962 -31 844 -31 c 0,21,22
 772 -31 772 -31 712.5 -0.5 c 128,-1,23
 653 30 653 30 612 74.5 c 128,-1,24
 571 119 571 119 546 183 c 1,25,26
 524 143 524 143 496 104 c 128,-1,27
 468 65 468 65 433.5 34.5 c 128,-1,28
 399 4 399 4 356.5 -14.5 c 128,-1,29
 314 -33 314 -33 262 -33 c 0,30,31
 232 -33 232 -33 199.5 -25 c 128,-1,32
 167 -17 167 -17 141 2.5 c 128,-1,33
 115 22 115 22 98 55.5 c 128,-1,34
 81 89 81 89 81 139 c 0,35,36
 81 210 81 210 128 257 c 128,-1,37
 175 304 175 304 245 331 c 128,-1,38
 315 358 315 358 373.5 370.5 c 128,-1,39
 432 383 432 383 513 399 c 1,40,-1
 513 566 l 2,41,42
 513 588 513 588 511.5 621.5 c 128,-1,43
 510 655 510 655 499.5 686.5 c 128,-1,44
 489 718 489 718 465.5 740.5 c 128,-1,45
 442 763 442 763 398 763 c 0,46,47
 344 763 344 763 309.5 742 c 128,-1,48
 275 721 275 721 259 704 c 128,-1,49
 243 687 243 687 215 654 c 1,50,51
 181 650 181 650 161 656 c 128,-1,52
 141 662 141 662 129 673 c 128,-1,53
 117 684 117 684 117 704 c 0,54,55
 117 733 117 733 161 759 c 128,-1,56
 205 785 205 785 275.5 805.5 c 128,-1,57
 346 826 346 826 409 826 c 0,58,59
 466 826 466 826 505 809.5 c 128,-1,60
 544 793 544 793 569 764.5 c 128,-1,61
 594 736 594 736 605 685 c 1,62,63
 632 721 632 721 664 747.5 c 128,-1,64
 696 774 696 774 730.5 791.5 c 128,-1,65
 765 809 765 809 800.5 817.5 c 128,-1,66
 836 826 836 826 869 826 c 0,0,1
513 333 m 1,67,68
 432 321 432 321 374.5 306 c 128,-1,69
 317 291 317 291 283.5 268 c 128,-1,70
 250 245 250 245 232.5 216.5 c 128,-1,71
 215 188 215 188 215 147 c 0,72,73
 215 47 215 47 303 47 c 0,74,75
 335 47 335 47 369 70 c 128,-1,76
 403 93 403 93 432 125.5 c 128,-1,77
 461 158 461 158 483 193 c 128,-1,78
 505 228 505 228 513 251 c 1,79,-1
 513 333 l 1,67,68
653 608 m 1,80,-1
 993 608 l 1,81,82
 993 687 993 687 957 725.5 c 128,-1,83
 921 764 921 764 865 764 c 0,84,85
 778 764 778 764 723 712.5 c 128,-1,86
 668 661 668 661 653 608 c 1,80,-1
EndSplineSet
EndChar

StartChar: eth
Encoding: 240 240 147
Width: 989
Flags: W
LayerCount: 2
Fore
SplineSet
316 985 m 1,0,-1
 385 1092 l 1,1,2
 340 1113 340 1113 298 1117 c 1,3,-1
 298 1190 l 1,4,5
 362 1178 362 1178 423 1150 c 1,6,-1
 473 1227 l 1,7,-1
 496 1213 l 1,8,-1
 449 1138 l 1,9,10
 613 1041 613 1041 679 922.5 c 128,-1,11
 745 804 745 804 773.5 670 c 128,-1,12
 802 536 802 536 786 370.5 c 128,-1,13
 770 205 770 205 670 86.5 c 128,-1,14
 570 -32 570 -32 425 -32.5 c 128,-1,15
 280 -33 280 -33 169 84.5 c 128,-1,16
 58 202 58 202 57.5 383.5 c 128,-1,17
 57 565 57 565 160.5 691 c 128,-1,18
 264 817 264 817 422 818 c 1,19,20
 534 817 534 817 627 747 c 1,21,-1
 615 784 l 1,22,23
 535 999 535 999 410 1078 c 1,24,-1
 341 968 l 1,25,-1
 316 985 l 1,0,-1
399 751 m 0,26,27
 298 751 298 751 238.5 654.5 c 128,-1,28
 179 558 179 558 179 412.5 c 128,-1,29
 179 267 179 267 250.5 150.5 c 128,-1,30
 322 34 322 34 440.5 34 c 128,-1,31
 559 34 559 34 619 152 c 0,32,33
 665 244 665 244 665 366 c 128,-1,34
 665 488 665 488 620 589 c 1,35,36
 546 750 546 750 399 751 c 0,26,27
EndSplineSet
EndChar

StartChar: bar
Encoding: 124 124 148
Width: 469
Flags: W
LayerCount: 2
Fore
SplineSet
171 1372 m 1,0,-1
 259 1372 l 1,1,-1
 259 -458 l 1,2,-1
 171 -458 l 1,3,-1
 171 1372 l 1,0,-1
EndSplineSet
EndChar

StartChar: brokenbar
Encoding: 166 166 149
Width: 494
Flags: W
LayerCount: 2
Fore
SplineSet
214 615 m 1,0,-1
 214 1312 l 1,1,-1
 287 1312 l 1,2,-1
 287 615 l 1,3,-1
 214 615 l 1,0,-1
214 -363 m 1,4,-1
 214 334 l 1,5,-1
 287 334 l 1,6,-1
 287 -363 l 1,7,-1
 214 -363 l 1,4,-1
EndSplineSet
EndChar

StartChar: braceleft
Encoding: 123 123 150
Width: 799
Flags: W
LayerCount: 2
Fore
SplineSet
691 1157 m 1,0,1
 619 1157 619 1157 573.5 1142.5 c 128,-1,2
 528 1128 528 1128 501 1099 c 128,-1,3
 474 1070 474 1070 463.5 1027 c 128,-1,4
 453 984 453 984 450 926.5 c 128,-1,5
 447 869 447 869 449.5 797.5 c 128,-1,6
 452 726 452 726 452 641 c 0,7,8
 452 590 452 590 438.5 553.5 c 128,-1,9
 425 517 425 517 404 492.5 c 128,-1,10
 383 468 383 468 358 453 c 128,-1,11
 333 438 333 438 310.5 430 c 128,-1,12
 288 422 288 422 271 418.5 c 128,-1,13
 254 415 254 415 249 414 c 1,14,15
 254 413 254 413 271 410 c 128,-1,16
 288 407 288 407 310.5 399 c 128,-1,17
 333 391 333 391 358 376.5 c 128,-1,18
 383 362 383 362 404 338 c 128,-1,19
 425 314 425 314 438.5 278 c 128,-1,20
 452 242 452 242 452 191 c 0,21,22
 452 109 452 109 449.5 39 c 128,-1,23
 447 -31 447 -31 450 -88.5 c 128,-1,24
 453 -146 453 -146 463.5 -190.5 c 128,-1,25
 474 -235 474 -235 501 -265 c 128,-1,26
 528 -295 528 -295 573.5 -310.5 c 128,-1,27
 619 -326 619 -326 691 -326 c 1,28,-1
 691 -391 l 1,29,30
 616 -391 616 -391 549.5 -386.5 c 128,-1,31
 483 -382 483 -382 433 -357 c 128,-1,32
 383 -332 383 -332 353.5 -278.5 c 128,-1,33
 324 -225 324 -225 324 -127 c 2,34,-1
 324 243 l 2,35,36
 324 290 324 290 305.5 318 c 128,-1,37
 287 346 287 346 262.5 361 c 128,-1,38
 238 376 238 376 214.5 380.5 c 128,-1,39
 191 385 191 385 181 385 c 1,40,-1
 181 447 l 1,41,42
 191 447 191 447 214.5 451.5 c 128,-1,43
 238 456 238 456 262.5 470.5 c 128,-1,44
 287 485 287 485 305.5 513 c 128,-1,45
 324 541 324 541 324 588 c 2,46,-1
 324 958 l 2,47,48
 324 1054 324 1054 353.5 1107.5 c 128,-1,49
 383 1161 383 1161 433 1186.5 c 128,-1,50
 483 1212 483 1212 549.5 1217 c 128,-1,51
 616 1222 616 1222 691 1222 c 1,52,-1
 691 1157 l 1,0,1
EndSplineSet
EndChar

StartChar: braceright
Encoding: 125 125 151
Width: 1358
Flags: W
LayerCount: 2
Fore
SplineSet
181 -326 m 1,0,1
 253 -326 253 -326 298.5 -311.5 c 128,-1,2
 344 -297 344 -297 371 -268 c 128,-1,3
 398 -239 398 -239 408.5 -196 c 128,-1,4
 419 -153 419 -153 422 -95.5 c 128,-1,5
 425 -38 425 -38 422.5 33.5 c 128,-1,6
 420 105 420 105 420 190 c 0,7,8
 420 241 420 241 433.5 277.5 c 128,-1,9
 447 314 447 314 468 338.5 c 128,-1,10
 489 363 489 363 514 378 c 128,-1,11
 539 393 539 393 561.5 401 c 128,-1,12
 584 409 584 409 601 412.5 c 128,-1,13
 618 416 618 416 623 417 c 1,14,15
 618 418 618 418 601 421 c 128,-1,16
 584 424 584 424 561.5 432 c 128,-1,17
 539 440 539 440 514 454.5 c 128,-1,18
 489 469 489 469 468 493 c 128,-1,19
 447 517 447 517 433.5 553 c 128,-1,20
 420 589 420 589 420 640 c 0,21,22
 420 722 420 722 422.5 792 c 128,-1,23
 425 862 425 862 422 919.5 c 128,-1,24
 419 977 419 977 408.5 1021.5 c 128,-1,25
 398 1066 398 1066 371 1096 c 128,-1,26
 344 1126 344 1126 298.5 1141.5 c 128,-1,27
 253 1157 253 1157 181 1157 c 1,28,-1
 181 1222 l 1,29,30
 256 1222 256 1222 322.5 1217.5 c 128,-1,31
 389 1213 389 1213 439 1188 c 128,-1,32
 489 1163 489 1163 518.5 1109.5 c 128,-1,33
 548 1056 548 1056 548 958 c 2,34,-1
 548 588 l 2,35,36
 548 541 548 541 566.5 513 c 128,-1,37
 585 485 585 485 609.5 470 c 128,-1,38
 634 455 634 455 657.5 450.5 c 128,-1,39
 681 446 681 446 691 446 c 1,40,-1
 691 384 l 1,41,42
 681 384 681 384 657.5 379.5 c 128,-1,43
 634 375 634 375 609.5 360.5 c 128,-1,44
 585 346 585 346 566.5 318 c 128,-1,45
 548 290 548 290 548 243 c 2,46,-1
 548 -127 l 2,47,48
 548 -223 548 -223 518.5 -276.5 c 128,-1,49
 489 -330 489 -330 439 -355.5 c 128,-1,50
 389 -381 389 -381 322.5 -386 c 128,-1,51
 256 -391 256 -391 181 -391 c 1,52,-1
 181 -326 l 1,0,1
EndSplineSet
EndChar

StartChar: bracketleft
Encoding: 91 91 152
Width: 497
Flags: W
LayerCount: 2
Fore
SplineSet
523 -132 m 1,0,-1
 522 -173 l 1,1,-1
 191 -173 l 1,2,-1
 191 1224 l 1,3,-1
 522 1224 l 1,4,-1
 523 1183 l 1,5,-1
 302 1151 l 1,6,-1
 302 -99 l 1,7,-1
 523 -132 l 1,0,-1
EndSplineSet
EndChar

StartChar: bracketright
Encoding: 93 93 153
Width: 696
Flags: W
LayerCount: 2
Fore
SplineSet
191 1183 m 1,0,-1
 192 1224 l 1,1,-1
 523 1224 l 1,2,-1
 523 -173 l 1,3,-1
 192 -173 l 1,4,-1
 191 -132 l 1,5,-1
 412 -99 l 1,6,-1
 412 1151 l 1,7,-1
 191 1183 l 1,0,-1
EndSplineSet
EndChar

StartChar: zero
Encoding: 48 48 154
Width: 1012
Flags: W
LayerCount: 2
Fore
SplineSet
508 37 m 0,0,1
 639 37 639 37 717.5 132 c 128,-1,2
 796 227 796 227 796 389 c 0,3,4
 796 545 796 545 716.5 648.5 c 128,-1,5
 637 752 637 752 508 752 c 0,6,7
 374 752 374 752 291.5 655.5 c 128,-1,8
 209 559 209 559 209 397 c 0,9,10
 209 242 209 242 290.5 139.5 c 128,-1,11
 372 37 372 37 508 37 c 0,0,1
71 395 m 0,12,13
 71 569 71 569 199 694 c 128,-1,14
 327 819 327 819 508 819 c 0,15,16
 690 819 690 819 816 696 c 128,-1,17
 942 573 942 573 942 395 c 0,18,19
 942 219 942 219 815 95 c 128,-1,20
 688 -29 688 -29 508 -29 c 0,21,22
 325 -29 325 -29 198 94 c 128,-1,23
 71 217 71 217 71 395 c 0,12,13
EndSplineSet
EndChar

StartChar: dotlessi
Encoding: 305 305 155
Width: 517
Flags: W
LayerCount: 2
Fore
SplineSet
319 209 m 2,0,1
 319 117 319 117 332 89.5 c 128,-1,2
 345 62 345 62 393 52 c 1,3,-1
 452 41 l 1,4,-1
 452 0 l 1,5,-1
 73 0 l 1,6,-1
 73 42 l 1,7,-1
 142 57 l 2,8,9
 179 65 179 65 188 80 c 1,10,11
 196 97 196 97 196 153 c 2,12,-1
 196 603 l 2,13,14
 196 672 196 672 190 687 c 0,15,16
 176 722 176 722 78 722 c 1,17,18
 76 730 76 730 75 741 c 128,-1,19
 74 752 74 752 73 756 c 1,20,-1
 318 818 l 1,21,-1
 319 818 l 1,22,-1
 319 209 l 2,0,1
EndSplineSet
EndChar

StartChar: two
Encoding: 50 50 156
Width: 812
Flags: W
LayerCount: 2
Fore
SplineSet
368 733 m 0,0,1
 220 733 220 733 181 644 c 1,2,3
 150 569 150 569 196 544 c 0,4,5
 222 530 222 530 229 518 c 128,-1,6
 236 506 236 506 236 486 c 0,7,8
 234 407 234 407 168 406.5 c 128,-1,9
 102 406 102 406 82 482 c 0,10,11
 75 509 75 509 75 540 c 0,12,13
 75 647 75 647 167 732 c 0,14,15
 264 822 264 822 403 822 c 0,16,17
 604 822 604 822 683 699 c 0,18,19
 719 642 719 642 720 574 c 1,20,21
 720 424 720 424 555 328 c 0,22,23
 503 298 503 298 373.5 245.5 c 128,-1,24
 244 193 244 193 220.5 165.5 c 128,-1,25
 197 138 197 138 197 116 c 1,26,-1
 523 116 l 2,27,28
 617 116 617 116 641.5 129 c 128,-1,29
 666 142 666 142 674.5 176.5 c 128,-1,30
 683 211 683 211 691 254 c 1,31,-1
 732 254 l 1,32,-1
 732 0 l 1,33,-1
 103 0 l 1,34,-1
 103 80 l 2,35,36
 103 177 103 177 212 251 c 0,37,38
 242 272 242 272 362.5 335 c 128,-1,39
 483 398 483 398 525 451.5 c 128,-1,40
 567 505 567 505 567 564.5 c 128,-1,41
 567 624 567 624 512.5 678.5 c 128,-1,42
 458 733 458 733 368 733 c 0,0,1
EndSplineSet
EndChar

StartChar: three
Encoding: 51 51 157
Width: 845
Flags: W
LayerCount: 2
Fore
SplineSet
524 256 m 1,0,1
 623 221 623 221 694.5 147.5 c 128,-1,2
 766 74 766 74 766 -37 c 0,3,4
 766 -211 766 -211 646 -305 c 128,-1,5
 526 -399 526 -399 378.5 -399 c 128,-1,6
 231 -399 231 -399 143 -321.5 c 128,-1,7
 55 -244 55 -244 55 -123 c 0,8,9
 55 -86 55 -86 75.5 -62.5 c 128,-1,10
 96 -39 96 -39 128 -39 c 128,-1,11
 160 -39 160 -39 183.5 -58.5 c 128,-1,12
 207 -78 207 -78 207 -111.5 c 128,-1,13
 207 -145 207 -145 171 -164.5 c 128,-1,14
 135 -184 135 -184 135 -201 c 0,15,16
 135 -248 135 -248 201.5 -283.5 c 128,-1,17
 268 -319 268 -319 362.5 -319 c 128,-1,18
 457 -319 457 -319 535.5 -245.5 c 128,-1,19
 614 -172 614 -172 614 -57.5 c 128,-1,20
 614 57 614 57 557 120.5 c 128,-1,21
 500 184 500 184 422 211 c 1,22,23
 363 184 363 184 325 184 c 128,-1,24
 287 184 287 184 266.5 201.5 c 128,-1,25
 246 219 246 219 246 253 c 128,-1,26
 246 287 246 287 268.5 307.5 c 128,-1,27
 291 328 291 328 325.5 328 c 128,-1,28
 360 328 360 328 438 309 c 1,29,30
 563 410 563 410 563 551 c 0,31,32
 563 625 563 625 516 683 c 128,-1,33
 469 741 469 741 383 741 c 128,-1,34
 297 741 297 741 233.5 711.5 c 128,-1,35
 170 682 170 682 170 625 c 1,36,37
 172 604 172 604 201 590 c 0,38,39
 258 561 258 561 256 518 c 1,40,41
 256 438 256 438 184 438 c 0,42,43
 141 438 141 438 117.5 476 c 128,-1,44
 94 514 94 514 94 571 c 0,45,46
 94 692 94 692 181 755.5 c 128,-1,47
 268 819 268 819 408.5 819 c 128,-1,48
 549 819 549 819 633 738 c 128,-1,49
 717 657 717 657 717 551.5 c 128,-1,50
 717 446 717 446 659.5 370.5 c 128,-1,51
 602 295 602 295 524 256 c 1,0,1
EndSplineSet
EndChar

StartChar: four
Encoding: 52 52 158
Width: 941
Flags: W
LayerCount: 2
Fore
SplineSet
482 806 m 1,0,-1
 552 806 l 2,1,2
 563 806 563 806 564 795.5 c 128,-1,3
 565 785 565 785 562 780 c 2,4,-1
 195 99 l 1,5,-1
 610 99 l 1,6,7
 610 104 610 104 610.5 109.5 c 128,-1,8
 611 115 611 115 611 121 c 0,9,10
 614 144 614 144 605.5 163 c 128,-1,11
 597 182 597 182 585.5 200.5 c 128,-1,12
 574 219 574 219 563.5 239 c 128,-1,13
 553 259 553 259 553 284 c 0,14,15
 553 308 553 308 561 325.5 c 128,-1,16
 569 343 569 343 582 354.5 c 128,-1,17
 595 366 595 366 611.5 372 c 128,-1,18
 628 378 628 378 645 378 c 0,19,20
 665 378 665 378 684.5 370 c 128,-1,21
 704 362 704 362 719.5 347 c 128,-1,22
 735 332 735 332 744.5 311 c 128,-1,23
 754 290 754 290 754 264 c 0,24,25
 754 235 754 235 740 195.5 c 128,-1,26
 726 156 726 156 698 99 c 1,27,-1
 881 99 l 1,28,-1
 881 0 l 1,29,-1
 707 0 l 1,30,-1
 707 -226 l 2,31,32
 707 -252 707 -252 708.5 -272 c 128,-1,33
 710 -292 710 -292 717 -307 c 128,-1,34
 724 -322 724 -322 738.5 -332.5 c 128,-1,35
 753 -343 753 -343 780 -348 c 2,36,-1
 839 -360 l 1,37,-1
 839 -400 l 1,38,-1
 449 -400 l 1,39,-1
 449 -358 l 1,40,-1
 518 -343 l 2,41,42
 536 -339 536 -339 546.5 -334 c 128,-1,43
 557 -329 557 -329 562.5 -317 c 128,-1,44
 568 -305 568 -305 569.5 -284 c 128,-1,45
 571 -263 571 -263 571 -227 c 2,46,-1
 571 0 l 1,47,-1
 60 0 l 1,48,-1
 60 39 l 1,49,-1
 482 806 l 1,0,-1
EndSplineSet
EndChar

StartChar: five
Encoding: 53 53 159
Width: 1052
Flags: W
LayerCount: 2
Fore
SplineSet
479 -322 m 0,0,1
 628 -322 628 -322 707 -214 c 128,-1,2
 786 -106 786 -106 786 33 c 0,3,4
 786 176 786 176 702 266 c 128,-1,5
 618 356 618 356 502 356 c 0,6,7
 388 356 388 356 255 283 c 0,8,9
 227 268 227 268 190 268 c 1,10,-1
 190 805 l 1,11,-1
 743 805 l 1,12,13
 802 813 802 813 816 885 c 1,14,-1
 855 885 l 1,15,-1
 855 672 l 1,16,-1
 272 672 l 1,17,-1
 272 387 l 1,18,19
 378 444 378 444 511 444 c 0,20,21
 685 444 685 444 813.5 333.5 c 128,-1,22
 942 223 942 223 942 41 c 0,23,24
 942 -150 942 -150 816 -275.5 c 128,-1,25
 690 -401 690 -401 497 -401 c 0,26,27
 321 -401 321 -401 212 -304 c 128,-1,28
 103 -207 103 -207 103 -28 c 0,29,30
 103 39 103 39 127 75 c 128,-1,31
 151 111 151 111 190 111 c 128,-1,32
 229 111 229 111 247.5 91.5 c 128,-1,33
 266 72 266 72 266 35 c 128,-1,34
 266 -2 266 -2 231.5 -21.5 c 128,-1,35
 197 -41 197 -41 197 -82 c 0,36,37
 197 -169 197 -169 264.5 -245.5 c 128,-1,38
 332 -322 332 -322 479 -322 c 0,0,1
EndSplineSet
EndChar

StartChar: six
Encoding: 54 54 160
Width: 937
Flags: W
LayerCount: 2
Fore
SplineSet
837 1194 m 1,0,-1
 845 1130 l 1,1,2
 589 1171 589 1171 418 982 c 128,-1,3
 247 793 247 793 247 457 c 0,4,5
 247 283 247 283 302.5 170 c 128,-1,6
 358 57 358 57 456 51 c 0,7,8
 548 45 548 45 609.5 121 c 128,-1,9
 671 197 671 197 671 311 c 0,10,11
 671 580 671 580 472 580 c 0,12,13
 434 580 434 580 366 559 c 0,14,15
 352 555 352 555 337.5 562 c 128,-1,16
 323 569 323 569 323 582 c 0,17,18
 323 610 323 610 358 625 c 0,19,20
 417 649 417 649 497 649 c 0,21,22
 653 649 653 649 740 562 c 128,-1,23
 827 475 827 475 827 336 c 0,24,25
 827 180 827 180 722.5 75.5 c 128,-1,26
 618 -29 618 -29 470 -29 c 0,27,28
 298 -29 298 -29 191.5 104.5 c 128,-1,29
 85 238 85 238 85 457 c 0,30,31
 85 618 85 618 137.5 763.5 c 128,-1,32
 190 909 190 909 284 1015.5 c 128,-1,33
 378 1122 378 1122 522.5 1172.5 c 128,-1,34
 667 1223 667 1223 837 1194 c 1,0,-1
EndSplineSet
EndChar

StartChar: seven
Encoding: 55 55 161
Width: 1085
Flags: W
LayerCount: 2
Fore
SplineSet
66 805 m 1,0,-1
 786 805 l 1,1,2
 848 924 848 924 884 964 c 128,-1,3
 920 1004 920 1004 971 1004 c 0,4,5
 1075 1004 1075 1004 1075 907 c 0,6,7
 1075 862 1075 862 1039.5 833.5 c 128,-1,8
 1004 805 1004 805 971 805 c 2,9,-1
 926 805 l 2,10,11
 895 805 895 805 872 782 c 1,12,-1
 268 -397 l 1,13,-1
 166 -397 l 1,14,-1
 717 676 l 1,15,-1
 197 676 l 1,16,17
 121 670 121 670 104 555 c 1,18,-1
 66 555 l 1,19,-1
 66 805 l 1,0,-1
EndSplineSet
EndChar

StartChar: eight
Encoding: 56 56 162
Width: 856
Flags: W
LayerCount: 2
Fore
SplineSet
393 -29 m 0,0,1
 266 -29 266 -29 157.5 50 c 128,-1,2
 49 129 49 129 49 260 c 128,-1,3
 49 391 49 391 115.5 461.5 c 128,-1,4
 182 532 182 532 307 596 c 1,5,6
 197 688 197 688 148.5 750.5 c 128,-1,7
 100 813 100 813 100 901 c 0,8,9
 100 1034 100 1034 199.5 1113 c 128,-1,10
 299 1192 299 1192 426 1192 c 128,-1,11
 553 1192 553 1192 649 1124.5 c 128,-1,12
 745 1057 745 1057 745 920 c 0,13,14
 745 729 745 729 500 623 c 1,15,16
 594 555 594 555 630 521 c 128,-1,17
 666 487 666 487 700 446 c 1,18,19
 760 377 760 377 760 263.5 c 128,-1,20
 760 150 760 150 663.5 60.5 c 128,-1,21
 567 -29 567 -29 393 -29 c 0,0,1
616 254 m 0,22,23
 616 301 616 301 590.5 348 c 128,-1,24
 565 395 565 395 514 438 c 128,-1,25
 463 481 463 481 438.5 498.5 c 128,-1,26
 414 516 414 516 367 547 c 1,27,28
 260 451 260 451 225 389 c 0,29,30
 190 328 190 328 190 262 c 0,31,32
 190 162 190 162 247.5 102.5 c 128,-1,33
 305 43 305 43 407.5 43 c 128,-1,34
 510 43 510 43 563 108.5 c 128,-1,35
 616 174 616 174 616 254 c 0,22,23
238 938 m 0,36,37
 238 809 238 809 428 682 c 1,38,39
 502 717 502 717 552 782.5 c 128,-1,40
 602 848 602 848 602 930 c 0,41,42
 602 1022 602 1022 553 1075 c 128,-1,43
 504 1128 504 1128 420 1128 c 0,44,45
 340 1128 340 1128 289 1079 c 128,-1,46
 238 1030 238 1030 238 938 c 0,36,37
EndSplineSet
EndChar

StartChar: nine
Encoding: 57 57 163
Width: 867
Flags: W
LayerCount: 2
Fore
SplineSet
31 -390 m 1,0,-1
 23 -326 l 1,1,2
 74 -333 74 -333 121 -333 c 0,3,4
 304 -333 304 -333 462.5 -164 c 128,-1,5
 621 5 621 5 621 344 c 0,6,7
 621 514 621 514 565.5 623.5 c 128,-1,8
 510 733 510 733 412 739 c 0,9,10
 319 745 319 745 258 670.5 c 128,-1,11
 197 596 197 596 197 479 c 0,12,13
 197 211 197 211 395 211 c 0,14,15
 434 211 434 211 502 231 c 0,16,17
 516 236 516 236 531.5 229.5 c 128,-1,18
 547 223 547 223 547 211 c 0,19,20
 547 180 547 180 510 166 c 1,21,22
 451 141 451 141 371 141 c 0,23,24
 215 141 215 141 129 228 c 128,-1,25
 43 315 43 315 43 457 c 0,26,27
 43 610 43 610 146.5 714.5 c 128,-1,28
 250 819 250 819 397 819 c 0,29,30
 571 819 571 819 676.5 690 c 128,-1,31
 782 561 782 561 782 344 c 0,32,33
 782 182 782 182 730 36.5 c 128,-1,34
 678 -109 678 -109 583.5 -215.5 c 128,-1,35
 489 -322 489 -322 373.5 -361 c 128,-1,36
 258 -400 258 -400 162 -400 c 0,37,38
 106 -400 106 -400 31 -390 c 1,0,-1
EndSplineSet
EndChar

StartChar: asciicircum
Encoding: 94 94 164
Width: 921
Flags: W
LayerCount: 2
Fore
SplineSet
421 1143 m 1,0,-1
 760 572 l 1,1,-1
 686 572 l 1,2,-1
 407 1038 l 1,3,-1
 129 572 l 1,4,-1
 54 572 l 1,5,-1
 398 1143 l 1,6,-1
 421 1143 l 1,0,-1
EndSplineSet
EndChar

StartChar: asciitilde
Encoding: 126 126 165
Width: 937
Flags: W
LayerCount: 2
Fore
SplineSet
737 548 m 0,0,1
 794 548 794 548 802 631 c 1,2,-1
 822 631 l 1,3,-1
 825 588 l 1,4,5
 824 477 824 477 733 476 c 0,6,7
 703 476 703 476 491.5 522.5 c 128,-1,8
 280 569 280 569 259 569 c 0,9,10
 203 569 203 569 200 482 c 1,11,-1
 200 476 l 1,12,-1
 176 476 l 1,13,-1
 176 485 l 1,14,15
 169 629 169 629 267 631 c 0,16,17
 305 631 305 631 509 589.5 c 128,-1,18
 713 548 713 548 737 548 c 0,0,1
EndSplineSet
EndChar

StartChar: macron
Encoding: 175 175 166
Width: 580
Flags: W
LayerCount: 2
Fore
SplineSet
62 1074 m 1,0,-1
 481 1074 l 1,1,-1
 481 976 l 1,2,-1
 62 976 l 1,3,-1
 62 1074 l 1,0,-1
EndSplineSet
EndChar

StartChar: tilde
Encoding: 732 732 167
Width: 902
Flags: W
LayerCount: 2
Fore
SplineSet
183 975 m 1,0,-1
 183 1034 l 2,1,2
 183 1144 183 1144 273 1144 c 0,3,4
 319 1144 319 1144 393 1089 c 1,5,6
 460 1037 460 1037 488 1037 c 1,7,8
 534 1039 534 1039 536 1130 c 1,9,-1
 580 1130 l 1,10,-1
 580 1072 l 2,11,12
 580 962 580 962 489 962 c 0,13,14
 445 962 445 962 370 1016 c 1,15,16
 302 1068 302 1068 275 1068 c 0,17,18
 229 1068 229 1068 227 975 c 1,19,-1
 183 975 l 1,0,-1
EndSplineSet
EndChar

StartChar: breve
Encoding: 728 728 168
Width: 777
Flags: W
LayerCount: 2
Fore
SplineSet
218 1112 m 1,0,-1
 254 1112 l 1,1,2
 259 1076 259 1076 296 1042.5 c 128,-1,3
 333 1009 333 1009 417 1009 c 0,4,5
 504 1009 504 1009 534 1046.5 c 128,-1,6
 564 1084 564 1084 569 1112 c 1,7,-1
 608 1112 l 1,8,9
 597 1021 597 1021 542 979 c 128,-1,10
 487 937 487 937 417 936 c 1,11,12
 341 936 341 936 286 976.5 c 128,-1,13
 231 1017 231 1017 218 1112 c 1,0,-1
EndSplineSet
EndChar

StartChar: grave
Encoding: 96 96 169
Width: 752
Flags: W
LayerCount: 2
Fore
SplineSet
269 1236 m 1,0,1
 318 1111 318 1111 460 1063 c 0,2,3
 508 1046 508 1046 536 1046 c 1,4,5
 535 985 535 985 512 965 c 128,-1,6
 489 945 489 945 456 945 c 0,7,8
 404 945 404 945 342 1014.5 c 128,-1,9
 280 1084 280 1084 248 1236 c 1,10,-1
 269 1236 l 1,0,1
EndSplineSet
EndChar

StartChar: acute
Encoding: 180 180 170
Width: 557
Flags: W
LayerCount: 2
Fore
SplineSet
217 965 m 1,0,1
 316 1009 316 1009 359.5 1084.5 c 128,-1,2
 403 1160 403 1160 407 1234 c 1,3,4
 466 1234 466 1234 487.5 1210.5 c 128,-1,5
 509 1187 509 1187 509 1155 c 0,6,7
 509 1099 509 1099 438 1037.5 c 128,-1,8
 367 976 367 976 217 944 c 1,9,-1
 217 965 l 1,0,1
EndSplineSet
EndChar

StartChar: caron
Encoding: 711 711 171
Width: 535
Flags: W
LayerCount: 2
Fore
SplineSet
486 1192 m 1,0,-1
 290 883 l 1,1,-1
 233 883 l 1,2,-1
 39 1192 l 1,3,-1
 62 1192 l 2,4,5
 141 1192 141 1192 256 980 c 1,6,-1
 261 971 l 1,7,-1
 265 979 l 1,8,9
 373 1190 373 1190 463 1192 c 1,10,-1
 486 1192 l 1,0,-1
EndSplineSet
EndChar

StartChar: circumflex
Encoding: 710 710 172
Width: 657
Flags: W
LayerCount: 2
Fore
SplineSet
334 1255 m 1,0,-1
 551 947 l 1,1,-1
 528 947 l 1,2,3
 410 946 410 946 320 1136 c 1,4,-1
 306 1167 l 1,5,-1
 292 1137 l 1,6,7
 205 948 205 948 85 947 c 1,8,-1
 62 947 l 1,9,-1
 277 1255 l 1,10,-1
 334 1255 l 1,0,-1
EndSplineSet
EndChar

StartChar: ring
Encoding: 730 730 173
Width: 1358
Flags: W
LayerCount: 2
Fore
SplineSet
518 1169 m 0,0,1
 552 1169 552 1169 578.5 1157 c 128,-1,2
 605 1145 605 1145 623 1125.5 c 128,-1,3
 641 1106 641 1106 650.5 1081 c 128,-1,4
 660 1056 660 1056 660 1030 c 0,5,6
 660 1001 660 1001 649 976 c 128,-1,7
 638 951 638 951 619.5 932.5 c 128,-1,8
 601 914 601 914 575.5 903 c 128,-1,9
 550 892 550 892 522 892 c 0,10,11
 493 892 493 892 468 903 c 128,-1,12
 443 914 443 914 424.5 932.5 c 128,-1,13
 406 951 406 951 395.5 976 c 128,-1,14
 385 1001 385 1001 385 1030 c 0,15,16
 385 1061 385 1061 396.5 1086.5 c 128,-1,17
 408 1112 408 1112 427 1130.5 c 128,-1,18
 446 1149 446 1149 470 1159 c 128,-1,19
 494 1169 494 1169 518 1169 c 0,0,1
525 1120 m 0,20,21
 485 1120 485 1120 459.5 1094 c 128,-1,22
 434 1068 434 1068 434 1030 c 0,23,24
 434 993 434 993 459.5 967 c 128,-1,25
 485 941 485 941 522 941 c 0,26,27
 560 941 560 941 585.5 967 c 128,-1,28
 611 993 611 993 611 1030 c 0,29,30
 611 1068 611 1068 585.5 1094 c 128,-1,31
 560 1120 560 1120 525 1120 c 0,20,21
EndSplineSet
EndChar

StartChar: dotaccent
Encoding: 729 729 174
Width: 642
Flags: W
LayerCount: 2
Fore
SplineSet
292 1014 m 0,0,1
 292 1054 292 1054 318.5 1081 c 128,-1,2
 345 1108 345 1108 384 1108 c 256,3,4
 423 1108 423 1108 450.5 1081 c 128,-1,5
 478 1054 478 1054 478 1014 c 0,6,7
 478 976 478 976 450.5 949.5 c 128,-1,8
 423 923 423 923 384 923 c 256,9,10
 345 923 345 923 318.5 949.5 c 128,-1,11
 292 976 292 976 292 1014 c 0,0,1
EndSplineSet
EndChar

StartChar: cedilla
Encoding: 184 184 175
Width: 932
Flags: W
LayerCount: 2
Fore
SplineSet
349 -152 m 1,0,-1
 421 21 l 1,1,-1
 476 0 l 1,2,-1
 427 -117 l 1,3,4
 483 -115 483 -115 539.5 -158 c 128,-1,5
 596 -201 596 -201 596 -281.5 c 128,-1,6
 596 -362 596 -362 541.5 -403.5 c 128,-1,7
 487 -445 487 -445 417 -445 c 0,8,9
 336 -445 336 -445 293.5 -405 c 128,-1,10
 251 -365 251 -365 251 -315 c 1,11,12
 253 -276 253 -276 288 -275 c 0,13,14
 309 -275 309 -275 307 -308 c 128,-1,15
 305 -341 305 -341 305 -346 c 0,16,17
 305 -370 305 -370 331 -383 c 128,-1,18
 357 -396 357 -396 388 -396 c 0,19,20
 433 -396 433 -396 464.5 -365.5 c 128,-1,21
 496 -335 496 -335 497 -267 c 1,22,23
 497 -152 497 -152 349 -152 c 1,0,-1
EndSplineSet
EndChar

StartChar: ogonek
Encoding: 731 731 176
Width: 787
Flags: W
LayerCount: 2
Fore
SplineSet
597 -315 m 1,0,1
 597 -373 597 -373 550 -409 c 128,-1,2
 503 -445 503 -445 420.5 -445 c 128,-1,3
 338 -445 338 -445 293.5 -395 c 128,-1,4
 249 -345 249 -345 249 -288 c 0,5,6
 249 -206 249 -206 311.5 -134.5 c 128,-1,7
 374 -63 374 -63 578 -24 c 0,8,9
 600 -20 600 -20 629 -16 c 1,10,-1
 629 -41 l 1,11,12
 547 -67 547 -67 513 -82 c 0,13,14
 350 -158 350 -158 350 -267 c 0,15,16
 350 -332 350 -332 383.5 -364 c 128,-1,17
 417 -396 417 -396 464 -396 c 128,-1,18
 511 -396 511 -396 535 -367 c 0,19,20
 544 -355 544 -355 542.5 -316 c 128,-1,21
 541 -277 541 -277 554 -275 c 1,22,23
 596 -277 596 -277 597 -315 c 1,0,1
EndSplineSet
EndChar

StartChar: at
Encoding: 64 64 177
Width: 1527
Flags: W
LayerCount: 2
Fore
SplineSet
761 -235 m 0,0,1
 984 -235 984 -235 1185 -88 c 1,2,-1
 1226 -142 l 1,3,4
 1013 -302 1013 -302 749 -302 c 128,-1,5
 485 -302 485 -302 275 -156 c 128,-1,6
 65 -10 65 -10 64.5 283 c 128,-1,7
 64 576 64 576 265 761.5 c 128,-1,8
 466 947 466 947 772 947 c 128,-1,9
 1078 947 1078 947 1228.5 797 c 128,-1,10
 1379 647 1379 647 1379 439 c 128,-1,11
 1379 231 1379 231 1263.5 102.5 c 128,-1,12
 1148 -26 1148 -26 1017 -26 c 0,13,14
 968 -26 968 -26 916.5 9 c 128,-1,15
 865 44 865 44 875 126 c 1,16,-1
 870 126 l 1,17,18
 825 37 825 37 766.5 5.5 c 128,-1,19
 708 -26 708 -26 644 -26 c 0,20,21
 531 -26 531 -26 475 42 c 128,-1,22
 419 110 419 110 419 214 c 0,23,24
 419 393 419 393 534 502.5 c 128,-1,25
 649 612 649 612 766 613 c 1,26,27
 954 611 954 611 955 487 c 1,28,-1
 958 487 l 1,29,-1
 1001 595 l 1,30,-1
 1118 595 l 1,31,-1
 1071 461 l 1,32,33
 999 259 999 259 983 196 c 1,34,35
 954 109 954 109 988 69 c 0,36,37
 1008 47 1008 47 1045 46 c 1,38,39
 1120 46 1120 46 1215.5 150.5 c 128,-1,40
 1311 255 1311 255 1311.5 434 c 128,-1,41
 1312 613 1312 613 1179 747.5 c 128,-1,42
 1046 882 1046 882 802.5 882 c 128,-1,43
 559 882 559 882 375 705 c 128,-1,44
 191 528 191 528 191 275 c 0,45,46
 191 78 191 78 346 -78.5 c 128,-1,47
 501 -235 501 -235 761 -235 c 0,0,1
554 195 m 0,48,49
 554 111 554 111 589 76.5 c 128,-1,50
 624 42 624 42 676 42 c 0,51,52
 767 42 767 42 827 169 c 0,53,54
 896 315 896 315 896 437 c 0,55,56
 896 536 896 536 813 536 c 0,57,58
 719 536 719 536 636.5 427.5 c 128,-1,59
 554 319 554 319 554 195 c 0,48,49
EndSplineSet
EndChar

StartChar: currency
Encoding: 164 164 178
Width: 895
Flags: W
LayerCount: 2
Fore
SplineSet
116 631 m 0,0,1
 116 698 116 698 137 746.5 c 128,-1,2
 158 795 158 795 180 825 c 1,3,-1
 53 955 l 1,4,-1
 114 1016 l 1,5,-1
 240 887 l 1,6,7
 274 914 274 914 324.5 936 c 128,-1,8
 375 958 375 958 443 958 c 0,9,10
 510 958 510 958 559.5 936.5 c 128,-1,11
 609 915 609 915 640 890 c 1,12,-1
 766 1016 l 1,13,-1
 827 955 l 1,14,-1
 702 830 l 1,15,16
 727 797 727 797 748.5 747.5 c 128,-1,17
 770 698 770 698 770 631 c 0,18,19
 770 563 770 563 748 513 c 128,-1,20
 726 463 726 463 701 430 c 1,21,-1
 828 305 l 1,22,-1
 766 247 l 1,23,-1
 639 370 l 1,24,25
 608 346 608 346 559 325 c 128,-1,26
 510 304 510 304 443 304 c 0,27,28
 375 304 375 304 325 325.5 c 128,-1,29
 275 347 275 347 242 372 c 1,30,-1
 114 247 l 1,31,-1
 52 305 l 1,32,-1
 182 434 l 1,33,34
 158 465 158 465 137 514 c 128,-1,35
 116 563 116 563 116 631 c 0,0,1
199 634 m 256,36,37
 199 583 199 583 218 538.5 c 128,-1,38
 237 494 237 494 270 461 c 128,-1,39
 303 428 303 428 347.5 409 c 128,-1,40
 392 390 392 390 443 390 c 256,41,42
 494 390 494 390 538.5 409 c 128,-1,43
 583 428 583 428 616 461 c 128,-1,44
 649 494 649 494 668 538.5 c 128,-1,45
 687 583 687 583 687 634 c 256,46,47
 687 685 687 685 668 729.5 c 128,-1,48
 649 774 649 774 616 807 c 128,-1,49
 583 840 583 840 538.5 859 c 128,-1,50
 494 878 494 878 443 878 c 256,51,52
 392 878 392 878 347.5 859 c 128,-1,53
 303 840 303 840 270 807 c 128,-1,54
 237 774 237 774 218 729.5 c 128,-1,55
 199 685 199 685 199 634 c 256,36,37
EndSplineSet
EndChar

StartChar: registered
Encoding: 174 174 179
Width: 1482
Flags: W
LayerCount: 2
Fore
SplineSet
745 1226 m 0,0,1
 890 1226 890 1226 1017 1171 c 128,-1,2
 1144 1116 1144 1116 1239 1021.5 c 128,-1,3
 1334 927 1334 927 1388.5 801 c 128,-1,4
 1443 675 1443 675 1443 531 c 0,5,6
 1443 383 1443 383 1388.5 257 c 128,-1,7
 1334 131 1334 131 1239 36.5 c 128,-1,8
 1144 -58 1144 -58 1017 -113 c 128,-1,9
 890 -168 890 -168 745 -168 c 0,10,11
 601 -168 601 -168 475 -113 c 128,-1,12
 349 -58 349 -58 254.5 37 c 128,-1,13
 160 132 160 132 105.5 259 c 128,-1,14
 51 386 51 386 51 531 c 0,15,16
 51 672 51 672 105.5 799 c 128,-1,17
 160 926 160 926 254.5 1021 c 128,-1,18
 349 1116 349 1116 475 1171 c 128,-1,19
 601 1226 601 1226 745 1226 c 0,0,1
747 1144 m 0,20,21
 619 1144 619 1144 507 1096.5 c 128,-1,22
 395 1049 395 1049 311.5 965 c 128,-1,23
 228 881 228 881 180 768.5 c 128,-1,24
 132 656 132 656 132 530 c 0,25,26
 132 402 132 402 180 289.5 c 128,-1,27
 228 177 228 177 311.5 93 c 128,-1,28
 395 9 395 9 507 -39.5 c 128,-1,29
 619 -88 619 -88 747 -88 c 0,30,31
 874 -88 874 -88 986.5 -39 c 128,-1,32
 1099 10 1099 10 1183 93.5 c 128,-1,33
 1267 177 1267 177 1315 289 c 128,-1,34
 1363 401 1363 401 1363 530 c 0,35,36
 1363 658 1363 658 1315 769.5 c 128,-1,37
 1267 881 1267 881 1183 964.5 c 128,-1,38
 1099 1048 1099 1048 986.5 1096 c 128,-1,39
 874 1144 874 1144 747 1144 c 0,20,21
506 877 m 2,40,41
 506 889 506 889 505 896 c 128,-1,42
 504 903 504 903 496.5 908.5 c 128,-1,43
 489 914 489 914 473 918 c 128,-1,44
 457 922 457 922 427 927 c 1,45,-1
 427 978 l 1,46,-1
 762 978 l 2,47,48
 780 978 780 978 805.5 974 c 128,-1,49
 831 970 831 970 859 959.5 c 128,-1,50
 887 949 887 949 914 932 c 128,-1,51
 941 915 941 915 962.5 890 c 128,-1,52
 984 865 984 865 997.5 830 c 128,-1,53
 1011 795 1011 795 1011 750 c 0,54,55
 1011 708 1011 708 997.5 676 c 128,-1,56
 984 644 984 644 963.5 620 c 128,-1,57
 943 596 943 596 918 579 c 128,-1,58
 893 562 893 562 871 551 c 128,-1,59
 849 540 849 540 833 534 c 128,-1,60
 817 528 817 528 813 526 c 1,61,62
 848 421 848 421 890 353.5 c 128,-1,63
 932 286 932 286 976.5 248 c 128,-1,64
 1021 210 1021 210 1065 199 c 128,-1,65
 1109 188 1109 188 1149 197 c 0,66,67
 1183 205 1183 205 1193.5 207.5 c 128,-1,68
 1204 210 1204 210 1209 200 c 256,69,70
 1214 190 1214 190 1202.5 174.5 c 128,-1,71
 1191 159 1191 159 1162 151 c 0,72,73
 1086 130 1086 130 1016.5 138.5 c 128,-1,74
 947 147 947 147 887.5 190.5 c 128,-1,75
 828 234 828 234 780.5 315.5 c 128,-1,76
 733 397 733 397 701 522 c 1,77,-1
 624 522 l 1,78,-1
 624 279 l 2,79,80
 624 252 624 252 624.5 233 c 128,-1,81
 625 214 625 214 629.5 201 c 128,-1,82
 634 188 634 188 644 180.5 c 128,-1,83
 654 173 654 173 674 170 c 2,84,-1
 715 163 l 1,85,-1
 715 134 l 1,86,-1
 422 134 l 1,87,-1
 422 163 l 1,88,-1
 469 173 l 2,89,90
 482 176 482 176 489 179 c 128,-1,91
 496 182 496 182 500 189 c 128,-1,92
 504 196 504 196 505 208 c 128,-1,93
 506 220 506 220 506 240 c 2,94,-1
 506 877 l 2,40,41
624 592 m 1,95,96
 637 591 637 591 654 590.5 c 128,-1,97
 671 590 671 590 690 590 c 128,-1,98
 709 590 709 590 728 590 c 128,-1,99
 747 590 747 590 764 590 c 0,100,101
 791 590 791 590 814 603 c 128,-1,102
 837 616 837 616 853.5 637 c 128,-1,103
 870 658 870 658 879.5 685.5 c 128,-1,104
 889 713 889 713 889 742 c 0,105,106
 889 785 889 785 875.5 816.5 c 128,-1,107
 862 848 862 848 839 869 c 128,-1,108
 816 890 816 890 784 900.5 c 128,-1,109
 752 911 752 911 715 911 c 2,110,-1
 622 911 l 1,111,-1
 624 592 l 1,95,96
EndSplineSet
EndChar

StartChar: copyright
Encoding: 169 169 180
Width: 1358
Flags: W
LayerCount: 2
Fore
SplineSet
346 532 m 0,0,1
 346 726 346 726 465.5 837 c 128,-1,2
 585 948 585 948 750 948 c 128,-1,3
 915 948 915 948 1026 868 c 1,4,-1
 1045 852 l 1,5,-1
 1045 694 l 1,6,-1
 1011 694 l 1,7,8
 997 767 997 767 929 827.5 c 128,-1,9
 861 888 861 888 748 888 c 0,10,11
 609 888 609 888 535.5 783 c 128,-1,12
 462 678 462 678 461 522 c 0,13,14
 461 380 461 380 538 267 c 128,-1,15
 615 154 615 154 769 154 c 0,16,17
 924 154 924 154 1026 318 c 1,18,-1
 1043 348 l 1,19,-1
 1076 332 l 1,20,21
 1018 206 1018 206 932 150 c 128,-1,22
 846 94 846 94 745 94 c 0,23,24
 544 94 544 94 445 226 c 128,-1,25
 346 358 346 358 346 532 c 0,0,1
745 1226 m 0,26,27
 890 1226 890 1226 1017 1171 c 128,-1,28
 1144 1116 1144 1116 1239 1021.5 c 128,-1,29
 1334 927 1334 927 1388.5 801 c 128,-1,30
 1443 675 1443 675 1443 531 c 0,31,32
 1443 383 1443 383 1388.5 257 c 128,-1,33
 1334 131 1334 131 1239 36.5 c 128,-1,34
 1144 -58 1144 -58 1017 -113 c 128,-1,35
 890 -168 890 -168 745 -168 c 0,36,37
 601 -168 601 -168 475 -113 c 128,-1,38
 349 -58 349 -58 254.5 37 c 128,-1,39
 160 132 160 132 105.5 259 c 128,-1,40
 51 386 51 386 51 531 c 0,41,42
 51 672 51 672 105.5 799 c 128,-1,43
 160 926 160 926 254.5 1021 c 128,-1,44
 349 1116 349 1116 475 1171 c 128,-1,45
 601 1226 601 1226 745 1226 c 0,26,27
747 1144 m 0,46,47
 619 1144 619 1144 507 1096.5 c 128,-1,48
 395 1049 395 1049 311.5 965 c 128,-1,49
 228 881 228 881 180 768.5 c 128,-1,50
 132 656 132 656 132 530 c 0,51,52
 132 402 132 402 180 289.5 c 128,-1,53
 228 177 228 177 311.5 93 c 128,-1,54
 395 9 395 9 507 -39.5 c 128,-1,55
 619 -88 619 -88 747 -88 c 0,56,57
 874 -88 874 -88 986.5 -39 c 128,-1,58
 1099 10 1099 10 1183 93.5 c 128,-1,59
 1267 177 1267 177 1315 289 c 128,-1,60
 1363 401 1363 401 1363 530 c 0,61,62
 1363 658 1363 658 1315 769.5 c 128,-1,63
 1267 881 1267 881 1183 964.5 c 128,-1,64
 1099 1048 1099 1048 986.5 1096 c 128,-1,65
 874 1144 874 1144 747 1144 c 0,46,47
EndSplineSet
EndChar

StartChar: degree
Encoding: 176 176 181
Width: 703
Flags: W
LayerCount: 2
Fore
SplineSet
326 1200 m 0,0,1
 376 1200 376 1200 420.5 1181 c 128,-1,2
 465 1162 465 1162 498 1129 c 128,-1,3
 531 1096 531 1096 550 1051 c 128,-1,4
 569 1006 569 1006 569 955 c 256,5,6
 569 904 569 904 550 859.5 c 128,-1,7
 531 815 531 815 498 782 c 128,-1,8
 465 749 465 749 420.5 730 c 128,-1,9
 376 711 376 711 326 711 c 0,10,11
 275 711 275 711 230.5 730 c 128,-1,12
 186 749 186 749 152.5 782 c 128,-1,13
 119 815 119 815 99.5 859.5 c 128,-1,14
 80 904 80 904 80 955 c 256,15,16
 80 1006 80 1006 99.5 1051 c 128,-1,17
 119 1096 119 1096 152.5 1129 c 128,-1,18
 186 1162 186 1162 230.5 1181 c 128,-1,19
 275 1200 275 1200 326 1200 c 0,0,1
324 1133 m 256,20,21
 288 1133 288 1133 256 1119.5 c 128,-1,22
 224 1106 224 1106 199.5 1082 c 128,-1,23
 175 1058 175 1058 161 1026 c 128,-1,24
 147 994 147 994 147 957 c 256,25,26
 147 920 147 920 161 887.5 c 128,-1,27
 175 855 175 855 199 830.5 c 128,-1,28
 223 806 223 806 255.5 792 c 128,-1,29
 288 778 288 778 324 778 c 0,30,31
 361 778 361 778 393.5 792 c 128,-1,32
 426 806 426 806 450 830.5 c 128,-1,33
 474 855 474 855 488 887.5 c 128,-1,34
 502 920 502 920 502 957 c 256,35,36
 502 994 502 994 488 1026 c 128,-1,37
 474 1058 474 1058 449.5 1082 c 128,-1,38
 425 1106 425 1106 392.5 1119.5 c 128,-1,39
 360 1133 360 1133 324 1133 c 256,20,21
EndSplineSet
EndChar

StartChar: dieresis
Encoding: 168 168 182
Width: 681
Flags: W
LayerCount: 2
Fore
SplineSet
199 1055 m 0,0,1
 199 1090 199 1090 222.5 1114.5 c 128,-1,2
 246 1139 246 1139 281 1139 c 0,3,4
 315 1139 315 1139 339.5 1114.5 c 128,-1,5
 364 1090 364 1090 364 1055 c 0,6,7
 364 1021 364 1021 339.5 997.5 c 128,-1,8
 315 974 315 974 281 974 c 0,9,10
 246 974 246 974 222.5 997.5 c 128,-1,11
 199 1021 199 1021 199 1055 c 0,0,1
489 1055 m 0,12,13
 489 1090 489 1090 512.5 1114.5 c 128,-1,14
 536 1139 536 1139 571 1139 c 0,15,16
 605 1139 605 1139 629.5 1114.5 c 128,-1,17
 654 1090 654 1090 654 1055 c 0,18,19
 654 1021 654 1021 629.5 997.5 c 128,-1,20
 605 974 605 974 571 974 c 0,21,22
 536 974 536 974 512.5 997.5 c 128,-1,23
 489 1021 489 1021 489 1055 c 0,12,13
EndSplineSet
EndChar

StartChar: hungarumlaut
Encoding: 733 733 183
Width: 1008
Flags: W
LayerCount: 2
Fore
SplineSet
308 924 m 1,0,1
 407 968 407 968 450.5 1043.5 c 128,-1,2
 494 1119 494 1119 498 1193 c 1,3,4
 557 1193 557 1193 578.5 1169.5 c 128,-1,5
 600 1146 600 1146 600 1114 c 0,6,7
 600 1058 600 1058 529 996.5 c 128,-1,8
 458 935 458 935 308 903 c 1,9,-1
 308 924 l 1,0,1
538 924 m 1,10,11
 637 968 637 968 680.5 1043.5 c 128,-1,12
 724 1119 724 1119 728 1193 c 1,13,14
 787 1193 787 1193 808.5 1169.5 c 128,-1,15
 830 1146 830 1146 830 1114 c 0,16,17
 830 1058 830 1058 759 996.5 c 128,-1,18
 688 935 688 935 538 903 c 1,19,-1
 538 924 l 1,10,11
EndSplineSet
EndChar

StartChar: dollar
Encoding: 36 36 184
Width: 888
Flags: W
LayerCount: 2
Fore
SplineSet
399 1372 m 1,0,-1
 466 1372 l 1,1,-1
 466 1201 l 1,2,-1
 468 1201 l 2,3,4
 617 1201 617 1201 753 1118 c 1,5,-1
 751 895 l 1,6,-1
 685 895 l 1,7,8
 670 1127 670 1127 466 1131 c 1,9,-1
 466 685 l 1,10,-1
 588 582 l 2,11,12
 685 499 685 499 720 454 c 0,13,14
 788 366 788 366 789 259 c 1,15,16
 789 126 789 126 668 42 c 0,17,18
 582 -17 582 -17 466 -30 c 1,19,-1
 466 -215 l 1,20,-1
 399 -215 l 1,21,-1
 399 -33 l 1,22,23
 258 -30 258 -30 116 46 c 1,24,-1
 96 274 l 1,25,-1
 156 275 l 1,26,27
 193 47 193 47 399 39 c 1,28,-1
 399 548 l 1,29,-1
 308 621 l 1,30,31
 191 713 191 713 156 812 c 0,32,33
 137 868 137 868 137 934 c 0,34,35
 137 1061 137 1061 242 1136 c 0,36,37
 308 1182 308 1182 399 1196 c 1,38,-1
 399 1372 l 1,0,-1
466 495 m 1,39,-1
 466 42 l 1,40,41
 599 61 599 61 644 166 c 0,42,43
 660 204 660 204 660 243 c 0,44,45
 660 329 660 329 546 429 c 1,46,-1
 466 495 l 1,39,-1
271 958 m 0,47,48
 271 865 271 865 352 785 c 1,49,-1
 399 742 l 1,50,-1
 399 1122 l 1,51,52
 313 1099 313 1099 283 1022 c 0,53,54
 271 992 271 992 271 958 c 0,47,48
EndSplineSet
EndChar

StartChar: cent
Encoding: 162 162 185
Width: 764
Flags: W
LayerCount: 2
Fore
SplineSet
487 75 m 1,0,1
 580 79 580 79 672 126 c 1,2,3
 699 97 699 97 704 91 c 1,4,5
 656 45 656 45 610.5 14.5 c 128,-1,6
 565 -16 565 -16 487 -32 c 1,7,-1
 487 -176 l 1,8,-1
 399 -176 l 1,9,-1
 399 -32 l 1,10,11
 186 -20 186 -20 101 171 c 0,12,13
 58 270 58 270 57 388 c 1,14,15
 57 600 57 600 185 721 c 0,16,17
 273 803 273 803 399 819 c 1,18,-1
 399 1037 l 1,19,-1
 487 1037 l 1,20,-1
 487 819 l 1,21,22
 598 812 598 812 722 725 c 0,23,24
 739 714 739 714 726 671 c 128,-1,25
 713 628 713 628 672 611 c 1,26,27
 641 611 641 611 608.5 657.5 c 128,-1,28
 576 704 576 704 571 708 c 1,29,30
 535 748 535 748 487 759 c 1,31,-1
 487 75 l 1,0,1
225 605 m 0,32,33
 182 509 182 509 181.5 380 c 128,-1,34
 181 251 181 251 258 162 c 1,35,36
 316 97 316 97 399 75 c 1,37,-1
 399 759 l 1,38,39
 285 736 285 736 225 605 c 0,32,33
EndSplineSet
EndChar

StartChar: yen
Encoding: 165 165 186
Width: 1090
Flags: W
LayerCount: 2
Fore
SplineSet
570 593 m 1,0,1
 873 1090 873 1090 874 1118 c 0,2,3
 874 1144 874 1144 772 1146 c 1,4,-1
 737 1146 l 1,5,-1
 737 1190 l 1,6,-1
 1123 1190 l 1,7,-1
 1123 1146 l 1,8,9
 1121 1145 1121 1145 1111 1145 c 0,10,11
 1012 1140 1012 1140 971 1090 c 0,12,13
 885 984 885 984 673 621 c 1,14,-1
 654 588 l 1,15,-1
 859 588 l 1,16,-1
 859 509 l 1,17,-1
 610 509 l 1,18,-1
 610 344 l 1,19,-1
 859 344 l 1,20,-1
 859 264 l 1,21,-1
 610 264 l 1,22,-1
 610 223 l 2,23,24
 610 125 610 125 620.5 100.5 c 128,-1,25
 631 76 631 76 649 66 c 0,26,27
 678 48 678 48 742 42 c 1,28,-1
 742 2 l 1,29,-1
 354 2 l 1,30,-1
 354 44 l 1,31,32
 366 47 366 47 408 54 c 0,33,34
 468 64 468 64 473 98 c 1,35,36
 480 163 480 163 478 264 c 1,37,-1
 231 264 l 1,38,-1
 231 344 l 1,39,-1
 478 344 l 1,40,-1
 478 509 l 1,41,-1
 231 509 l 1,42,-1
 231 588 l 1,43,-1
 432 588 l 1,44,45
 203 972 203 972 122 1059 c 0,46,47
 37 1150 37 1150 -33 1149 c 1,48,-1
 -33 1192 l 1,49,-1
 355 1192 l 1,50,-1
 355 1149 l 1,51,52
 273 1133 273 1133 259 1124 c 128,-1,53
 245 1115 245 1115 244.5 1100 c 128,-1,54
 244 1085 244 1085 402.5 847.5 c 128,-1,55
 561 610 561 610 570 593 c 1,0,1
EndSplineSet
EndChar

StartChar: sterling
Encoding: 163 163 187
Width: 1156
Flags: W
LayerCount: 2
Fore
SplineSet
648 607 m 1,0,-1
 445 607 l 1,1,2
 436 523 436 523 427.5 464.5 c 128,-1,3
 419 406 419 406 401.5 333.5 c 128,-1,4
 384 261 384 261 360 199 c 1,5,6
 411 173 411 173 456.5 144 c 128,-1,7
 502 115 502 115 544.5 89.5 c 128,-1,8
 587 64 587 64 627.5 47.5 c 128,-1,9
 668 31 668 31 707 31 c 0,10,11
 755 31 755 31 783.5 56.5 c 128,-1,12
 812 82 812 82 812 119 c 0,13,14
 812 141 812 141 804 153 c 128,-1,15
 796 165 796 165 784 169 c 0,16,17
 767 174 767 174 750 189 c 128,-1,18
 733 204 733 204 733 230 c 0,19,20
 733 259 733 259 750.5 280.5 c 128,-1,21
 768 302 768 302 804 302 c 0,22,23
 847 302 847 302 872.5 270 c 128,-1,24
 898 238 898 238 898 189 c 0,25,26
 898 86 898 86 845.5 26.5 c 128,-1,27
 793 -33 793 -33 701 -33 c 0,28,29
 650 -33 650 -33 600.5 -19.5 c 128,-1,30
 551 -6 551 -6 503 14 c 128,-1,31
 455 34 455 34 408 58.5 c 128,-1,32
 361 83 361 83 315 105 c 1,33,34
 280 45 280 45 230 6 c 128,-1,35
 180 -33 180 -33 111 -33 c 0,36,37
 67 -33 67 -33 31.5 -18 c 128,-1,38
 -4 -3 -4 -3 -25.5 29 c 128,-1,39
 -47 61 -47 61 -47 103 c 0,40,41
 -47 148 -47 148 -26 184 c 128,-1,42
 -5 220 -5 220 36 241 c 128,-1,43
 77 262 77 262 124 262 c 0,44,45
 159 262 159 262 192.5 256.5 c 128,-1,46
 226 251 226 251 258 241 c 1,47,48
 279 324 279 324 291 403 c 128,-1,49
 303 482 303 482 312 607 c 1,50,-1
 159 607 l 1,51,-1
 159 687 l 1,52,-1
 321 687 l 1,53,54
 328 749 328 749 337.5 809 c 128,-1,55
 347 869 347 869 364.5 939.5 c 128,-1,56
 382 1010 382 1010 413.5 1068.5 c 128,-1,57
 445 1127 445 1127 510 1176 c 128,-1,58
 575 1225 575 1225 673 1225 c 0,59,60
 720 1225 720 1225 766.5 1214 c 128,-1,61
 813 1203 813 1203 852.5 1174.5 c 128,-1,62
 892 1146 892 1146 892 1107 c 0,63,64
 892 1078 892 1078 872.5 1056.5 c 128,-1,65
 853 1035 853 1035 821 1035 c 0,66,67
 781 1035 781 1035 763 1057.5 c 128,-1,68
 745 1080 745 1080 737 1110 c 1,69,70
 722 1149 722 1149 668 1149 c 0,71,72
 609 1149 609 1149 569 1109.5 c 128,-1,73
 529 1070 529 1070 506 1005 c 128,-1,74
 483 940 483 940 472 857 c 128,-1,75
 461 774 461 774 453 687 c 1,76,-1
 648 687 l 1,77,-1
 648 607 l 1,0,-1
104 168 m 0,78,79
 67 168 67 168 45 147 c 128,-1,80
 23 126 23 126 23 96 c 0,81,82
 23 72 23 72 42.5 52.5 c 128,-1,83
 62 33 62 33 101 33 c 0,84,85
 137 33 137 33 167.5 63 c 128,-1,86
 198 93 198 93 222 144 c 1,87,88
 192 155 192 155 162.5 161.5 c 128,-1,89
 133 168 133 168 104 168 c 0,78,79
EndSplineSet
EndChar

StartChar: ampersand
Encoding: 38 38 188
Width: 1358
Flags: W
LayerCount: 2
Fore
SplineSet
1172 691 m 1,0,1
 1172 678 1172 678 1110.5 540.5 c 128,-1,2
 1049 403 1049 403 947 267 c 1,3,-1
 1047 163 l 1,4,5
 1153 51 1153 51 1173 38.5 c 128,-1,6
 1193 26 1193 26 1200 24 c 2,7,-1
 1268 10 l 1,8,-1
 1268 -33 l 1,9,-1
 879 -33 l 1,10,-1
 879 8 l 1,11,-1
 937 20 l 1,12,13
 1010 30 1010 30 873 177 c 1,14,15
 679 -30 679 -30 463 -31 c 0,16,17
 348 -31 348 -31 251 38 c 1,18,19
 121 135 121 135 119 297 c 1,20,21
 119 480 119 480 362 600 c 0,22,23
 375 606 375 606 378 608 c 1,24,25
 264 706 264 706 222.5 772.5 c 128,-1,26
 181 839 181 839 181 923 c 0,27,28
 181 1068 181 1068 295 1156 c 0,29,30
 384 1224 384 1224 489 1224 c 0,31,32
 659 1224 659 1224 752 1133 c 1,33,34
 830 1055 830 1055 830 921.5 c 128,-1,35
 830 788 830 788 680 691 c 0,36,37
 623 654 623 654 567 637 c 1,38,-1
 816 392 l 1,39,-1
 885 327 l 1,40,41
 1001 485 1001 485 1079 666 c 1,42,-1
 1089 691 l 1,43,-1
 1012 709 l 1,44,-1
 1012 756 l 1,45,-1
 1278 763 l 1,46,-1
 1278 716 l 1,47,-1
 1172 691 l 1,0,1
437 557 m 1,48,49
 350 480 350 480 305.5 413 c 128,-1,50
 261 346 261 346 261 264.5 c 128,-1,51
 261 183 261 183 322.5 116.5 c 128,-1,52
 384 50 384 50 478 49 c 1,53,54
 645 50 645 50 813 239 c 1,55,56
 664 385 664 385 480 525 c 0,57,58
 452 547 452 547 437 557 c 1,48,49
318 958 m 0,59,60
 318 824 318 824 509 693 c 1,61,62
 595 748 595 748 640.5 818.5 c 128,-1,63
 686 889 686 889 686 950 c 0,64,65
 686 1069 686 1069 598 1120 c 1,66,67
 551 1146 551 1146 481.5 1146 c 128,-1,68
 412 1146 412 1146 365 1090.5 c 128,-1,69
 318 1035 318 1035 318 958 c 0,59,60
EndSplineSet
EndChar

StartChar: mu
Encoding: 181 181 189
Width: 985
Flags: W
LayerCount: 2
Fore
SplineSet
787 810 m 1,0,-1
 782 579 l 2,1,2
 782 544 782 544 780.5 395.5 c 128,-1,3
 779 247 779 247 781 217 c 0,4,5
 788 109 788 109 827 89 c 0,6,7
 847 79 847 79 906 81 c 1,8,-1
 911 46 l 1,9,-1
 693 -29 l 1,10,-1
 657 103 l 1,11,-1
 624 71 l 1,12,13
 507 -30 507 -30 378 -31 c 0,14,15
 310 -31 310 -31 262 -9 c 1,16,-1
 262 -665 l 1,17,-1
 137 -665 l 1,18,-1
 137 600 l 2,19,20
 137 723 137 723 86 756 c 0,21,22
 63 770 63 770 33 764 c 1,23,-1
 33 804 l 1,24,-1
 262 804 l 1,25,-1
 262 386 l 2,26,27
 262 372 262 372 259 290 c 0,28,29
 251 57 251 57 422 55 c 1,30,31
 517 55 517 55 587 131 c 128,-1,32
 657 207 657 207 657 303 c 2,33,-1
 657 546 l 2,34,35
 657 679 657 679 645 715 c 0,36,37
 629 763 629 763 531 763 c 1,38,-1
 531 804 l 1,39,-1
 787 810 l 1,0,-1
EndSplineSet
EndChar

StartChar: numbersign
Encoding: 35 35 190
Width: 1358
Flags: W
LayerCount: 2
Fore
SplineSet
64 729 m 1,0,-1
 96 851 l 1,1,-1
 309 851 l 1,2,-1
 347 1141 l 1,3,-1
 471 1141 l 1,4,-1
 432 851 l 1,5,-1
 745 851 l 1,6,-1
 784 1141 l 1,7,-1
 908 1141 l 1,8,-1
 869 851 l 1,9,-1
 1165 851 l 1,10,-1
 1133 729 l 1,11,-1
 853 729 l 1,12,-1
 813 432 l 1,13,-1
 1042 432 l 1,14,-1
 1009 310 l 1,15,-1
 796 310 l 1,16,-1
 755 0 l 1,17,-1
 632 0 l 1,18,-1
 673 310 l 1,19,-1
 360 310 l 1,20,-1
 318 0 l 1,21,-1
 196 0 l 1,22,-1
 237 310 l 1,23,-1
 -60 310 l 1,24,-1
 -28 432 l 1,25,-1
 253 432 l 1,26,-1
 293 729 l 1,27,-1
 64 729 l 1,0,-1
416 729 m 1,28,-1
 376 432 l 1,29,-1
 689 432 l 1,30,-1
 729 729 l 1,31,-1
 416 729 l 1,28,-1
EndSplineSet
EndChar

StartChar: paragraph
Encoding: 182 182 191
Width: 1358
Flags: W
LayerCount: 2
Fore
SplineSet
944 1190 m 1,0,-1
 944 1126 l 1,1,2
 897 1126 897 1126 886 1114 c 128,-1,3
 875 1102 875 1102 874 1048 c 1,4,-1
 874 -571 l 1,5,-1
 812 -571 l 1,6,-1
 812 1126 l 1,7,-1
 730 1126 l 1,8,-1
 730 -571 l 1,9,-1
 668 -571 l 1,10,-1
 668 543 l 1,11,-1
 480 544 l 2,12,13
 294 544 294 544 204.5 640 c 128,-1,14
 115 736 115 736 114 880 c 0,15,16
 114 1024 114 1024 211.5 1106.5 c 128,-1,17
 309 1189 309 1189 442 1190 c 1,18,-1
 944 1190 l 1,0,-1
EndSplineSet
EndChar

StartChar: section
Encoding: 167 167 192
Width: 1358
Flags: W
LayerCount: 2
Fore
SplineSet
895 1302 m 1,0,1
 895 1233 895 1233 836 1232 c 0,2,3
 803 1232 803 1232 755.5 1279.5 c 128,-1,4
 708 1327 708 1327 686.5 1340 c 128,-1,5
 665 1353 665 1353 642 1353 c 0,6,7
 562 1353 562 1353 514 1276 c 1,8,9
 481 1221 481 1221 481 1146 c 128,-1,10
 481 1071 481 1071 589 910 c 1,11,12
 823 578 823 578 884 461 c 0,13,14
 990 257 990 257 991 90 c 1,15,16
 991 -172 991 -172 801 -294 c 0,17,18
 692 -364 692 -364 559.5 -364.5 c 128,-1,19
 427 -365 427 -365 365 -309 c 1,20,21
 337 -282 337 -282 336 -249 c 1,22,23
 336 -180 336 -180 394 -179 c 0,24,25
 429 -179 429 -179 451 -216 c 128,-1,26
 473 -253 473 -253 476 -257 c 0,27,28
 511 -298 511 -298 576.5 -298 c 128,-1,29
 642 -298 642 -298 689 -247 c 1,30,31
 754 -174 754 -174 754.5 -50.5 c 128,-1,32
 755 73 755 73 628 292 c 1,33,34
 381 695 381 695 321 828.5 c 128,-1,35
 261 962 261 962 261 1069 c 0,36,37
 261 1249 261 1249 373 1335 c 128,-1,38
 485 1421 485 1421 642 1419 c 0,39,40
 730 1417 730 1417 812 1382.5 c 128,-1,41
 894 1348 894 1348 895 1302 c 1,0,1
455 1320 m 1,42,43
 413 1301 413 1301 372 1234 c 128,-1,44
 331 1167 331 1167 331 1066.5 c 128,-1,45
 331 966 331 966 465 730 c 1,46,47
 715 310 715 310 770 184 c 128,-1,48
 825 58 825 58 825 -40 c 0,49,50
 825 -133 825 -133 795 -191.5 c 128,-1,51
 765 -250 765 -250 727 -264 c 1,52,53
 792 -247 792 -247 860.5 -156.5 c 128,-1,54
 929 -66 929 -66 921.5 83.5 c 128,-1,55
 914 233 914 233 758 489 c 0,56,57
 741 517 741 517 598.5 735.5 c 128,-1,58
 456 954 456 954 424 1060 c 1,59,60
 389 1180 389 1180 455 1320 c 1,42,43
EndSplineSet
EndChar

StartChar: ellipsis
Encoding: 8230 8230 193
Width: 1130
Flags: W
LayerCount: 2
Fore
SplineSet
848 76 m 0,0,1
 848 116 848 116 874.5 143 c 128,-1,2
 901 170 901 170 940 170 c 256,3,4
 979 170 979 170 1006.5 143 c 128,-1,5
 1034 116 1034 116 1034 76 c 0,6,7
 1034 38 1034 38 1006.5 11.5 c 128,-1,8
 979 -15 979 -15 940 -15 c 256,9,10
 901 -15 901 -15 874.5 11.5 c 128,-1,11
 848 38 848 38 848 76 c 0,0,1
468 76 m 0,12,13
 468 116 468 116 494.5 143 c 128,-1,14
 521 170 521 170 560 170 c 256,15,16
 599 170 599 170 626.5 143 c 128,-1,17
 654 116 654 116 654 76 c 0,18,19
 654 38 654 38 626.5 11.5 c 128,-1,20
 599 -15 599 -15 560 -15 c 256,21,22
 521 -15 521 -15 494.5 11.5 c 128,-1,23
 468 38 468 38 468 76 c 0,12,13
91 76 m 0,24,25
 91 116 91 116 117.5 143 c 128,-1,26
 144 170 144 170 183 170 c 256,27,28
 222 170 222 170 249.5 143 c 128,-1,29
 277 116 277 116 277 76 c 0,30,31
 277 38 277 38 249.5 11.5 c 128,-1,32
 222 -15 222 -15 183 -15 c 256,33,34
 144 -15 144 -15 117.5 11.5 c 128,-1,35
 91 38 91 38 91 76 c 0,24,25
EndSplineSet
EndChar

StartChar: equal
Encoding: 61 61 194
Width: 926
Flags: W
LayerCount: 2
Fore
SplineSet
727 657 m 1,0,-1
 727 577 l 1,1,-1
 99 577 l 1,2,-1
 99 657 l 1,3,-1
 727 657 l 1,0,-1
727 412 m 1,4,-1
 727 333 l 1,5,-1
 99 333 l 1,6,-1
 99 412 l 1,7,-1
 727 412 l 1,4,-1
EndSplineSet
EndChar

StartChar: onesuperior
Encoding: 185 185 195
Width: 461
Flags: W
LayerCount: 2
Fore
SplineSet
8 1079 m 1,0,-1
 5 1114 l 1,1,-1
 240 1190 l 1,2,-1
 240 644 l 2,3,4
 240 587 240 587 248.5 574 c 128,-1,5
 257 561 257 561 280 556 c 2,6,-1
 313 549 l 1,7,-1
 313 526 l 1,8,-1
 75 526 l 1,9,-1
 75 551 l 1,10,-1
 114 559 l 2,11,12
 138 563 138 563 141.5 574.5 c 128,-1,13
 145 586 145 586 145 613 c 2,14,-1
 145 1055 l 2,15,16
 145 1089 145 1089 113 1091 c 0,17,18
 98 1092 98 1092 8 1079 c 1,0,-1
EndSplineSet
EndChar

StartChar: twoinferior
Encoding: 8322 8322 196
Width: 606
Flags: W
LayerCount: 2
Fore
SplineSet
137 352 m 1,0,1
 75 352 75 352 75 442 c 128,-1,2
 75 532 75 532 143.5 593 c 128,-1,3
 212 654 212 654 300 654 c 0,4,5
 444 654 444 654 496 548 c 0,6,7
 517 505 517 505 517 456 c 0,8,9
 517 331 517 331 389 251 c 0,10,11
 363 235 363 235 270.5 191 c 128,-1,12
 178 147 178 147 163 115 c 0,13,14
 158 104 158 104 158 93 c 1,15,-1
 381 93 l 2,16,17
 449 93 449 93 465.5 105 c 128,-1,18
 482 117 482 117 488 150 c 2,19,-1
 497 202 l 1,20,-1
 525 202 l 1,21,-1
 525 0 l 1,22,-1
 95 0 l 1,23,-1
 95 64 l 2,24,25
 95 146 95 146 180 208 c 0,26,27
 190 215 190 215 279 270.5 c 128,-1,28
 368 326 368 326 390 370 c 0,29,30
 442 474 442 474 371 545 c 0,31,32
 331 584 331 584 275 584 c 0,33,34
 141 584 141 584 140 484 c 0,35,36
 140 458 140 458 160 448 c 0,37,38
 185 435 185 435 186 416 c 1,39,40
 184 353 184 353 137 352 c 1,0,1
EndSplineSet
EndChar

StartChar: twosuperior
Encoding: 178 178 197
Width: 575
Flags: W
LayerCount: 2
Fore
SplineSet
137 875 m 1,0,1
 75 875 75 875 75 965 c 128,-1,2
 75 1055 75 1055 143.5 1116 c 128,-1,3
 212 1177 212 1177 300 1177 c 0,4,5
 444 1177 444 1177 496 1071 c 0,6,7
 517 1028 517 1028 517 979 c 0,8,9
 517 854 517 854 389 774 c 0,10,11
 363 758 363 758 272 713 c 128,-1,12
 181 668 181 668 169.5 649.5 c 128,-1,13
 158 631 158 631 158 616 c 1,14,-1
 381 616 l 2,15,16
 449 616 449 616 465.5 628 c 128,-1,17
 482 640 482 640 488 673 c 2,18,-1
 497 725 l 1,19,-1
 525 725 l 1,20,-1
 525 523 l 1,21,-1
 95 523 l 1,22,-1
 95 587 l 2,23,24
 95 669 95 669 180 731 c 0,25,26
 190 738 190 738 279 793.5 c 128,-1,27
 368 849 368 849 390 892.5 c 128,-1,28
 412 936 412 936 412 982 c 0,29,30
 412 1030 412 1030 372 1068.5 c 128,-1,31
 332 1107 332 1107 272 1107 c 0,32,33
 141 1107 141 1107 140 1007 c 0,34,35
 140 981 140 981 160 971 c 0,36,37
 185 958 185 958 186 929 c 1,38,39
 184 876 184 876 137 875 c 1,0,1
EndSplineSet
EndChar

StartChar: threesuperior
Encoding: 179 179 198
Width: 479
Flags: W
LayerCount: 2
Fore
SplineSet
60 1014 m 0,0,1
 60 1124 60 1124 149 1170 c 0,2,3
 193 1192 193 1192 246 1192 c 0,4,5
 346 1192 346 1192 394 1136 c 128,-1,6
 442 1080 442 1080 442 1008.5 c 128,-1,7
 442 937 442 937 387 887 c 0,8,9
 363 866 363 866 339 861 c 1,10,11
 409 842 409 842 437 796 c 128,-1,12
 465 750 465 750 465 703 c 0,13,14
 465 607 465 607 379 557 c 1,15,16
 321 525 321 525 229.5 525 c 128,-1,17
 138 525 138 525 68 599 c 0,18,19
 47 621 47 621 37 642 c 1,20,-1
 82 669 l 1,21,22
 104 622 104 622 147.5 602 c 128,-1,23
 191 582 191 582 228 582 c 0,24,25
 307 582 307 582 347 643 c 0,26,27
 367 675 367 675 368 708 c 1,28,29
 368 810 368 810 267 837 c 0,30,31
 241 844 241 844 218 844 c 1,32,-1
 218 872 l 1,33,-1
 232 879 l 1,34,35
 345 931 345 931 346 1014 c 0,36,37
 346 1069 346 1069 308 1099.5 c 128,-1,38
 270 1130 270 1130 222.5 1130 c 128,-1,39
 175 1130 175 1130 143.5 1103 c 128,-1,40
 112 1076 112 1076 111 1045 c 0,41,42
 111 1036 111 1036 131 1026 c 1,43,44
 159 1010 159 1010 159.5 985.5 c 128,-1,45
 160 961 160 961 143 953 c 0,46,47
 98 933 98 933 72 969 c 1,48,49
 60 988 60 988 60 1014 c 0,0,1
EndSplineSet
EndChar

StartChar: fourinferior
Encoding: 8324 8324 199
Width: 685
Flags: W
LayerCount: 2
Fore
SplineSet
90 207 m 1,0,1
 242 472 242 472 337 654 c 1,2,-1
 393 654 l 1,3,4
 402 652 402 652 399 641 c 1,5,6
 185 245 185 245 183 241 c 1,7,-1
 416 240 l 1,8,-1
 416 253 l 1,9,10
 419 271 419 271 402 298 c 128,-1,11
 385 325 385 325 385 342 c 0,12,13
 385 384 385 384 422 392 c 0,14,15
 428 394 428 394 435 394 c 0,16,17
 471 394 471 394 483.5 370.5 c 128,-1,18
 496 347 496 347 495.5 325.5 c 128,-1,19
 495 304 495 304 465 240 c 1,20,-1
 480 240 l 1,21,22
 481 241 481 241 482 241 c 1,23,-1
 482 240 l 1,24,-1
 562 240 l 1,25,-1
 562 156 l 1,26,-1
 482 156 l 1,27,-1
 482 114 l 2,28,29
 482 57 482 57 491 44 c 1,30,31
 501 32 501 32 523 28 c 2,32,-1
 556 21 l 1,33,-1
 556 -2 l 1,34,-1
 323 -2 l 1,35,-1
 323 21 l 1,36,-1
 362 29 l 1,37,38
 384 35 384 35 387.5 45.5 c 128,-1,39
 391 56 391 56 391 83 c 2,40,-1
 391 156 l 1,41,42
 132 158 132 158 90 158 c 1,43,-1
 90 207 l 1,0,1
EndSplineSet
EndChar

StartChar: less
Encoding: 60 60 203
Width: 1358
Flags: W
LayerCount: 2
Fore
SplineSet
973 1030 m 1,0,-1
 973 936 l 1,1,-1
 228 628 l 1,2,-1
 973 321 l 1,3,-1
 973 228 l 1,4,-1
 114 590 l 1,5,-1
 114 667 l 1,6,-1
 973 1030 l 1,0,-1
EndSplineSet
EndChar

StartChar: greater
Encoding: 62 62 204
Width: 1358
Flags: W
LayerCount: 2
Fore
SplineSet
114 936 m 1,0,-1
 114 1030 l 1,1,-1
 973 667 l 1,2,-1
 973 590 l 1,3,-1
 114 228 l 1,4,-1
 114 321 l 1,5,-1
 859 628 l 1,6,-1
 114 936 l 1,0,-1
EndSplineSet
EndChar

StartChar: logicalnot
Encoding: 172 172 205
Width: 1358
Flags: W
LayerCount: 2
Fore
SplineSet
114 738 m 1,0,-1
 973 738 l 1,1,-1
 973 282 l 1,2,-1
 887 282 l 1,3,-1
 887 652 l 1,4,-1
 114 652 l 1,5,-1
 114 738 l 1,0,-1
EndSplineSet
EndChar

StartChar: minus
Encoding: 8722 8722 206
Width: 867
Flags: W
LayerCount: 2
Fore
SplineSet
645 548 m 1,0,-1
 645 468 l 1,1,-1
 99 468 l 1,2,-1
 99 548 l 1,3,-1
 645 548 l 1,0,-1
EndSplineSet
EndChar

StartChar: divide
Encoding: 247 247 207
Width: 773
Flags: W
LayerCount: 2
Fore
SplineSet
725 497 m 1,0,-1
 725 417 l 1,1,-1
 90 417 l 1,2,-1
 90 497 l 1,3,-1
 725 497 l 1,0,-1
325 672 m 0,4,5
 325 712 325 712 351.5 739 c 128,-1,6
 378 766 378 766 417 766 c 256,7,8
 456 766 456 766 483.5 739 c 128,-1,9
 511 712 511 712 511 672 c 0,10,11
 511 634 511 634 483.5 607.5 c 128,-1,12
 456 581 456 581 417 581 c 256,13,14
 378 581 378 581 351.5 607.5 c 128,-1,15
 325 634 325 634 325 672 c 0,4,5
325 241 m 0,16,17
 325 281 325 281 351.5 308 c 128,-1,18
 378 335 378 335 417 335 c 256,19,20
 456 335 456 335 483.5 308 c 128,-1,21
 511 281 511 281 511 241 c 0,22,23
 511 203 511 203 483.5 176.5 c 128,-1,24
 456 150 456 150 417 150 c 256,25,26
 378 150 378 150 351.5 176.5 c 128,-1,27
 325 203 325 203 325 241 c 0,16,17
EndSplineSet
EndChar

StartChar: percent
Encoding: 37 37 208
Width: 1200
Flags: W
LayerCount: 2
Fore
SplineSet
887 1198 m 1,0,-1
 994 1198 l 1,1,-1
 284 -75 l 1,2,-1
 176 -75 l 1,3,-1
 887 1198 l 1,0,-1
98 885 m 0,4,5
 98 829 98 829 113.5 777.5 c 128,-1,6
 129 726 129 726 158.5 686.5 c 128,-1,7
 188 647 188 647 231 623.5 c 128,-1,8
 274 600 274 600 329 600 c 0,9,10
 392 600 392 600 444.5 638.5 c 128,-1,11
 497 677 497 677 525.5 740 c 128,-1,12
 554 803 554 803 554 885 c 0,13,14
 554 949 554 949 536.5 1001 c 128,-1,15
 519 1053 519 1053 488.5 1090 c 128,-1,16
 458 1127 458 1127 415.5 1147 c 128,-1,17
 373 1167 373 1167 323 1167 c 0,18,19
 260 1167 260 1167 206.5 1129 c 128,-1,20
 153 1091 153 1091 125.5 1026 c 128,-1,21
 98 961 98 961 98 885 c 0,4,5
210 892 m 0,22,23
 210 994 210 994 245 1045.5 c 128,-1,24
 280 1097 280 1097 326 1097 c 0,25,26
 379 1097 379 1097 410 1033 c 128,-1,27
 441 969 441 969 441 879 c 0,28,29
 441 775 441 775 408.5 722.5 c 128,-1,30
 376 670 376 670 326 670 c 0,31,32
 275 670 275 670 242.5 724 c 128,-1,33
 210 778 210 778 210 892 c 0,22,23
665 249 m 0,34,35
 665 193 665 193 680.5 141.5 c 128,-1,36
 696 90 696 90 725.5 50.5 c 128,-1,37
 755 11 755 11 798 -12.5 c 128,-1,38
 841 -36 841 -36 896 -36 c 0,39,40
 959 -36 959 -36 1011.5 2.5 c 128,-1,41
 1064 41 1064 41 1092.5 104 c 128,-1,42
 1121 167 1121 167 1121 249 c 0,43,44
 1121 313 1121 313 1103.5 365 c 128,-1,45
 1086 417 1086 417 1055.5 454 c 128,-1,46
 1025 491 1025 491 982.5 511 c 128,-1,47
 940 531 940 531 890 531 c 0,48,49
 830 531 830 531 775.5 491.5 c 128,-1,50
 721 452 721 452 693 387 c 128,-1,51
 665 322 665 322 665 249 c 0,34,35
777 256 m 0,52,53
 777 358 777 358 812 409.5 c 128,-1,54
 847 461 847 461 893 461 c 0,55,56
 946 461 946 461 977 397 c 128,-1,57
 1008 333 1008 333 1008 243 c 0,58,59
 1008 139 1008 139 975.5 86.5 c 128,-1,60
 943 34 943 34 893 34 c 0,61,62
 842 34 842 34 809.5 88 c 128,-1,63
 777 142 777 142 777 256 c 0,52,53
EndSplineSet
EndChar

StartChar: multiply
Encoding: 215 215 209
Width: 1358
Flags: W
LayerCount: 2
Fore
SplineSet
349 782 m 1,0,-1
 404 839 l 1,1,-1
 552 691 l 1,2,-1
 699 838 l 1,3,-1
 755 782 l 1,4,-1
 608 635 l 1,5,-1
 750 494 l 1,6,-1
 694 437 l 1,7,-1
 551 579 l 1,8,-1
 409 437 l 1,9,-1
 354 492 l 1,10,-1
 496 634 l 1,11,-1
 349 782 l 1,0,-1
EndSplineSet
EndChar

StartChar: one
Encoding: 49 49 210
Width: 822
Flags: W
LayerCount: 2
Fore
SplineSet
469 209 m 2,0,1
 469 117 469 117 482 89.5 c 128,-1,2
 495 62 495 62 543 52 c 2,3,-1
 601 41 l 1,4,-1
 601 0 l 1,5,-1
 223 0 l 1,6,-1
 223 42 l 1,7,-1
 292 57 l 2,8,9
 329 65 329 65 338 80 c 1,10,11
 346 97 346 97 346 153 c 2,12,-1
 346 554 l 2,13,14
 346 609 346 609 298 617 c 0,15,16
 265 622 265 622 192 611 c 2,17,-1
 103 597 l 1,18,-1
 98 631 l 1,19,-1
 463 767 l 1,20,21
 578 822 578 822 634.5 822 c 128,-1,22
 691 822 691 822 724 768 c 0,23,24
 740 741 740 741 740 700 c 128,-1,25
 740 659 740 659 707 640 c 128,-1,26
 674 621 674 621 643.5 621 c 128,-1,27
 613 621 613 621 565 651 c 0,28,29
 511 685 511 685 469 675 c 1,30,-1
 469 209 l 2,0,1
EndSplineSet
EndChar

StartChar: ordfeminine
Encoding: 170 170 211
Width: 704
Flags: W
LayerCount: 2
Fore
SplineSet
158 1039 m 1,0,1
 124 1039 124 1039 105.5 1051.5 c 128,-1,2
 87 1064 87 1064 87 1090 c 0,3,4
 87 1112 87 1112 110.5 1130 c 128,-1,5
 134 1148 134 1148 167.5 1161.5 c 128,-1,6
 201 1175 201 1175 238 1182.5 c 128,-1,7
 275 1190 275 1190 302 1190 c 0,8,9
 361 1190 361 1190 395 1166.5 c 128,-1,10
 429 1143 429 1143 446.5 1103 c 128,-1,11
 464 1063 464 1063 468.5 1010 c 128,-1,12
 473 957 473 957 473 899 c 0,13,14
 473 840 473 840 471.5 784 c 128,-1,15
 470 728 470 728 474.5 684.5 c 128,-1,16
 479 641 479 641 491.5 614 c 128,-1,17
 504 587 504 587 533 587 c 0,18,19
 560 587 560 587 574.5 602 c 128,-1,20
 589 617 589 617 600 640 c 1,21,-1
 640 603 l 1,22,23
 633 590 633 590 624 574.5 c 128,-1,24
 615 559 615 559 600.5 545.5 c 128,-1,25
 586 532 586 532 565.5 522.5 c 128,-1,26
 545 513 545 513 515 513 c 0,27,28
 484 513 484 513 460 527.5 c 128,-1,29
 436 542 436 542 419 563 c 128,-1,30
 402 584 402 584 392 608 c 128,-1,31
 382 632 382 632 381 650 c 1,32,33
 375 636 375 636 358 613 c 128,-1,34
 341 590 341 590 316.5 567.5 c 128,-1,35
 292 545 292 545 261.5 529 c 128,-1,36
 231 513 231 513 197 513 c 0,37,38
 164 513 164 513 135 525 c 128,-1,39
 106 537 106 537 84.5 557.5 c 128,-1,40
 63 578 63 578 50 605 c 128,-1,41
 37 632 37 632 37 663 c 0,42,43
 37 709 37 709 56 745 c 128,-1,44
 75 781 75 781 105 808.5 c 128,-1,45
 135 836 135 836 173 855.5 c 128,-1,46
 211 875 211 875 249.5 887.5 c 128,-1,47
 288 900 288 900 322.5 906 c 128,-1,48
 357 912 357 912 381 913 c 1,49,-1
 381 965 l 2,50,51
 381 983 381 983 379.5 1010 c 128,-1,52
 378 1037 378 1037 370 1062 c 128,-1,53
 362 1087 362 1087 345 1104.5 c 128,-1,54
 328 1122 328 1122 296 1122 c 0,55,56
 269 1122 269 1122 248.5 1114 c 128,-1,57
 228 1106 228 1106 211.5 1094 c 128,-1,58
 195 1082 195 1082 182 1067 c 128,-1,59
 169 1052 169 1052 158 1039 c 1,0,1
381 857 m 1,60,61
 368 854 368 854 344 848.5 c 128,-1,62
 320 843 320 843 293 833.5 c 128,-1,63
 266 824 266 824 237.5 809.5 c 128,-1,64
 209 795 209 795 186 774.5 c 128,-1,65
 163 754 163 754 148.5 726 c 128,-1,66
 134 698 134 698 134 662 c 0,67,68
 134 651 134 651 137.5 637 c 128,-1,69
 141 623 141 623 149.5 610.5 c 128,-1,70
 158 598 158 598 172.5 589.5 c 128,-1,71
 187 581 187 581 210 581 c 0,72,73
 235 581 235 581 263 601 c 128,-1,74
 291 621 291 621 315 649.5 c 128,-1,75
 339 678 339 678 357 708.5 c 128,-1,76
 375 739 375 739 381 760 c 1,77,-1
 381 857 l 1,60,61
EndSplineSet
EndChar

StartChar: ordmasculine
Encoding: 186 186 212
Width: 822
Flags: W
LayerCount: 2
Fore
SplineSet
-47 855 m 0,0,1
 -47 925 -47 925 -24.5 986 c 128,-1,2
 -2 1047 -2 1047 37 1093 c 128,-1,3
 76 1139 76 1139 129 1165.5 c 128,-1,4
 182 1192 182 1192 242 1192 c 0,5,6
 303 1192 303 1192 356 1165.5 c 128,-1,7
 409 1139 409 1139 449 1093 c 128,-1,8
 489 1047 489 1047 512 986 c 128,-1,9
 535 925 535 925 535 855 c 256,10,11
 535 785 535 785 511.5 723.5 c 128,-1,12
 488 662 488 662 448.5 616 c 128,-1,13
 409 570 409 570 355.5 543.5 c 128,-1,14
 302 517 302 517 242 517 c 256,15,16
 182 517 182 517 129.5 543 c 128,-1,17
 77 569 77 569 37.5 615 c 128,-1,18
 -2 661 -2 661 -24.5 722.5 c 128,-1,19
 -47 784 -47 784 -47 855 c 0,0,1
55 863 m 0,20,21
 55 814 55 814 68 763 c 128,-1,22
 81 712 81 712 107 671 c 128,-1,23
 133 630 133 630 171.5 603.5 c 128,-1,24
 210 577 210 577 261 577 c 0,25,26
 339 577 339 577 384.5 648 c 128,-1,27
 430 719 430 719 430 847 c 0,28,29
 430 868 430 868 426 897.5 c 128,-1,30
 422 927 422 927 413 958.5 c 128,-1,31
 404 990 404 990 388.5 1021.5 c 128,-1,32
 373 1053 373 1053 350 1077.5 c 128,-1,33
 327 1102 327 1102 296 1117.5 c 128,-1,34
 265 1133 265 1133 224 1133 c 0,35,36
 190 1133 190 1133 159.5 1117 c 128,-1,37
 129 1101 129 1101 105.5 1067.5 c 128,-1,38
 82 1034 82 1034 68.5 983 c 128,-1,39
 55 932 55 932 55 863 c 0,20,21
EndSplineSet
EndChar

StartChar: parenleft
Encoding: 40 40 213
Width: 598
Flags: W
LayerCount: 2
Fore
SplineSet
544 -218 m 1,0,1
 267 103 267 103 267 520 c 128,-1,2
 267 937 267 937 544 1258 c 1,3,-1
 587 1222 l 1,4,5
 508 1105 508 1105 449 927 c 128,-1,6
 390 749 390 749 390 520 c 128,-1,7
 390 291 390 291 449 113 c 128,-1,8
 508 -65 508 -65 587 -187 c 1,9,-1
 544 -218 l 1,0,1
EndSplineSet
EndChar

StartChar: parenright
Encoding: 41 41 214
Width: 535
Flags: W
LayerCount: 2
Fore
SplineSet
97 -187 m 1,0,1
 176 -65 176 -65 235 113 c 128,-1,2
 294 291 294 291 294 520 c 128,-1,3
 294 749 294 749 235 927 c 128,-1,4
 176 1105 176 1105 97 1222 c 1,5,-1
 140 1258 l 1,6,7
 417 937 417 937 417 520 c 128,-1,8
 417 103 417 103 140 -218 c 1,9,-1
 97 -187 l 1,0,1
EndSplineSet
EndChar

StartChar: plus
Encoding: 43 43 215
Width: 747
Flags: W
LayerCount: 2
Fore
SplineSet
99 549 m 1,0,-1
 372 549 l 1,1,-1
 372 823 l 1,2,-1
 452 823 l 1,3,-1
 452 549 l 1,4,-1
 728 549 l 1,5,-1
 728 469 l 1,6,-1
 452 469 l 1,7,-1
 452 196 l 1,8,-1
 372 196 l 1,9,-1
 372 469 l 1,10,-1
 99 469 l 1,11,-1
 99 549 l 1,0,-1
EndSplineSet
EndChar

StartChar: plusminus
Encoding: 177 177 216
Width: 1113
Flags: W
LayerCount: 2
Fore
SplineSet
865 80 m 1,0,-1
 865 0 l 1,1,-1
 226 0 l 1,2,-1
 226 80 l 1,3,-1
 865 80 l 1,0,-1
219 481 m 1,4,-1
 492 481 l 1,5,-1
 492 755 l 1,6,-1
 572 755 l 1,7,-1
 572 481 l 1,8,-1
 848 481 l 1,9,-1
 848 401 l 1,10,-1
 572 401 l 1,11,-1
 572 128 l 1,12,-1
 492 128 l 1,13,-1
 492 401 l 1,14,-1
 219 401 l 1,15,-1
 219 481 l 1,4,-1
EndSplineSet
EndChar

StartChar: underscore
Encoding: 95 95 217
Width: 833
Flags: W
LayerCount: 2
Fore
SplineSet
-2 -122 m 1,0,-1
 833 -122 l 1,1,-1
 833 -204 l 1,2,-1
 -2 -204 l 1,3,-1
 -2 -122 l 1,0,-1
EndSplineSet
EndChar

StartChar: hyphen
Encoding: 45 45 218
Width: 628
Flags: W
LayerCount: 2
Fore
SplineSet
579 497 m 1,0,-1
 579 417 l 1,1,-1
 90 417 l 1,2,-1
 90 497 l 1,3,-1
 579 497 l 1,0,-1
EndSplineSet
EndChar

StartChar: endash
Encoding: 8211 8211 219
Width: 1192
Flags: W
LayerCount: 2
Fore
SplineSet
1079 497 m 1,0,-1
 1079 417 l 1,1,-1
 90 417 l 1,2,-1
 90 497 l 1,3,-1
 1079 497 l 1,0,-1
EndSplineSet
EndChar

StartChar: exclam
Encoding: 33 33 220
Width: 593
Flags: W
LayerCount: 2
Fore
SplineSet
326 267 m 1,0,-1
 285 1109 l 2,1,2
 284 1145 284 1145 305 1166.5 c 128,-1,3
 326 1188 326 1188 353 1188 c 128,-1,4
 380 1188 380 1188 402 1166.5 c 128,-1,5
 424 1145 424 1145 421 1108 c 2,6,-1
 363 267 l 1,7,-1
 326 267 l 1,0,-1
257 76 m 0,8,9
 257 116 257 116 283.5 143 c 128,-1,10
 310 170 310 170 349 170 c 256,11,12
 388 170 388 170 415.5 143 c 128,-1,13
 443 116 443 116 443 76 c 0,14,15
 443 38 443 38 415.5 11.5 c 128,-1,16
 388 -15 388 -15 349 -15 c 256,17,18
 310 -15 310 -15 283.5 11.5 c 128,-1,19
 257 38 257 38 257 76 c 0,8,9
EndSplineSet
EndChar

StartChar: exclamdown
Encoding: 161 161 221
Width: 323
Flags: W
LayerCount: 2
Fore
SplineSet
196 465 m 1,0,-1
 237 -377 l 2,1,2
 238 -413 238 -413 217 -434.5 c 128,-1,3
 196 -456 196 -456 169 -456 c 128,-1,4
 142 -456 142 -456 120 -434.5 c 128,-1,5
 98 -413 98 -413 101 -376 c 2,6,-1
 159 465 l 1,7,-1
 196 465 l 1,0,-1
265 666 m 0,8,9
 265 626 265 626 238.5 599 c 128,-1,10
 212 572 212 572 173 572 c 256,11,12
 134 572 134 572 106.5 599 c 128,-1,13
 79 626 79 626 79 666 c 0,14,15
 79 704 79 704 106.5 730.5 c 128,-1,16
 134 757 134 757 173 757 c 256,17,18
 212 757 212 757 238.5 730.5 c 128,-1,19
 265 704 265 704 265 666 c 0,8,9
EndSplineSet
EndChar

StartChar: questiondown
Encoding: 191 191 222
Width: 732
Flags: W
LayerCount: 2
Fore
SplineSet
592 336 m 0,0,1
 592 243 592 243 541 178 c 128,-1,2
 490 113 490 113 375 32 c 128,-1,3
 260 -49 260 -49 228 -102 c 1,4,5
 195 -152 195 -152 194.5 -211.5 c 128,-1,6
 194 -271 194 -271 249 -324.5 c 128,-1,7
 304 -378 304 -378 395 -378 c 0,8,9
 544 -378 544 -378 582 -288 c 1,10,11
 612 -213 612 -213 567 -188 c 0,12,13
 541 -174 541 -174 533 -159.5 c 128,-1,14
 525 -145 525 -145 525 -120 c 0,15,16
 525 -93 525 -93 543 -72 c 128,-1,17
 561 -51 561 -51 600.5 -50.5 c 128,-1,18
 640 -50 640 -50 664 -86.5 c 128,-1,19
 688 -123 688 -123 688 -184 c 0,20,21
 688 -291 688 -291 593.5 -378.5 c 128,-1,22
 499 -466 499 -466 360 -466 c 0,23,24
 203 -466 203 -466 122.5 -392 c 128,-1,25
 42 -318 42 -318 42 -199.5 c 128,-1,26
 42 -81 42 -81 165 22 c 0,27,28
 202 53 202 53 313.5 123.5 c 128,-1,29
 425 194 425 194 461 243.5 c 128,-1,30
 497 293 497 293 497 349 c 128,-1,31
 497 405 497 405 469 431.5 c 128,-1,32
 441 458 441 458 403 458 c 128,-1,33
 365 458 365 458 343 425.5 c 128,-1,34
 321 393 321 393 285 393 c 1,35,36
 229 395 229 395 228 451 c 0,37,38
 228 494 228 494 275.5 512.5 c 128,-1,39
 323 531 323 531 381 531 c 0,40,41
 485 531 485 531 538.5 469.5 c 128,-1,42
 592 408 592 408 592 336 c 0,0,1
473 682 m 0,43,44
 473 642 473 642 446.5 615 c 128,-1,45
 420 588 420 588 381 588 c 256,46,47
 342 588 342 588 314.5 615 c 128,-1,48
 287 642 287 642 287 682 c 0,49,50
 287 720 287 720 314.5 746.5 c 128,-1,51
 342 773 342 773 381 773 c 256,52,53
 420 773 420 773 446.5 746.5 c 128,-1,54
 473 720 473 720 473 682 c 0,43,44
EndSplineSet
EndChar

StartChar: period
Encoding: 46 46 223
Width: 377
Flags: W
LayerCount: 2
Fore
SplineSet
91 76 m 0,0,1
 91 116 91 116 117.5 143 c 128,-1,2
 144 170 144 170 183 170 c 256,3,4
 222 170 222 170 249.5 143 c 128,-1,5
 277 116 277 116 277 76 c 0,6,7
 277 38 277 38 249.5 11.5 c 128,-1,8
 222 -15 222 -15 183 -15 c 256,9,10
 144 -15 144 -15 117.5 11.5 c 128,-1,11
 91 38 91 38 91 76 c 0,0,1
EndSplineSet
EndChar

StartChar: comma
Encoding: 44 44 224
Width: 394
Flags: W
LayerCount: 2
Fore
SplineSet
116 -261 m 1,0,-1
 86 -222 l 1,1,2
 180 -173 180 -173 208 -137.5 c 128,-1,3
 236 -102 236 -102 236 -59 c 0,4,5
 236 -24 236 -24 221 -11.5 c 128,-1,6
 206 1 206 1 179 3 c 0,7,8
 94 12 94 12 93 78 c 0,9,10
 93 115 93 115 118.5 140 c 128,-1,11
 144 165 144 165 189 165 c 1,12,13
 243 163 243 163 280 120.5 c 128,-1,14
 317 78 317 78 318 -8 c 1,15,16
 318 -100 318 -100 260 -165 c 128,-1,17
 202 -230 202 -230 116 -261 c 1,0,-1
EndSplineSet
EndChar

StartChar: periodcentered
Encoding: 183 183 225
Width: 861
Flags: W
LayerCount: 2
Fore
SplineSet
354 378 m 0,0,1
 354 418 354 418 380.5 445 c 128,-1,2
 407 472 407 472 446 472 c 256,3,4
 485 472 485 472 512.5 445 c 128,-1,5
 540 418 540 418 540 378 c 0,6,7
 540 340 540 340 512.5 313.5 c 128,-1,8
 485 287 485 287 446 287 c 256,9,10
 407 287 407 287 380.5 313.5 c 128,-1,11
 354 340 354 340 354 378 c 0,0,1
EndSplineSet
EndChar

StartChar: bullet
Encoding: 8226 8226 226
Width: 811
Flags: W
LayerCount: 2
Fore
SplineSet
217 509 m 0,0,1
 217 547 217 547 231.5 582 c 128,-1,2
 246 617 246 617 271 643 c 128,-1,3
 296 669 296 669 330.5 683.5 c 128,-1,4
 365 698 365 698 406 698 c 0,5,6
 444 698 444 698 478.5 683.5 c 128,-1,7
 513 669 513 669 539 643.5 c 128,-1,8
 565 618 565 618 579.5 583.5 c 128,-1,9
 594 549 594 549 594 509 c 256,10,11
 594 469 594 469 579.5 434.5 c 128,-1,12
 565 400 565 400 539 374.5 c 128,-1,13
 513 349 513 349 478.5 334.5 c 128,-1,14
 444 320 444 320 406 320 c 0,15,16
 365 320 365 320 330.5 334.5 c 128,-1,17
 296 349 296 349 271 374.5 c 128,-1,18
 246 400 246 400 231.5 434.5 c 128,-1,19
 217 469 217 469 217 509 c 0,0,1
EndSplineSet
EndChar

StartChar: colon
Encoding: 58 58 227
Width: 357
Flags: W
LayerCount: 2
Fore
SplineSet
91 629 m 0,0,1
 91 669 91 669 117.5 696 c 128,-1,2
 144 723 144 723 183 723 c 256,3,4
 222 723 222 723 249.5 696 c 128,-1,5
 277 669 277 669 277 629 c 0,6,7
 277 591 277 591 249.5 564.5 c 128,-1,8
 222 538 222 538 183 538 c 256,9,10
 144 538 144 538 117.5 564.5 c 128,-1,11
 91 591 91 591 91 629 c 0,0,1
91 76 m 0,12,13
 91 116 91 116 117.5 143 c 128,-1,14
 144 170 144 170 183 170 c 256,15,16
 222 170 222 170 249.5 143 c 128,-1,17
 277 116 277 116 277 76 c 0,18,19
 277 38 277 38 249.5 11.5 c 128,-1,20
 222 -15 222 -15 183 -15 c 256,21,22
 144 -15 144 -15 117.5 11.5 c 128,-1,23
 91 38 91 38 91 76 c 0,12,13
EndSplineSet
EndChar

StartChar: semicolon
Encoding: 59 59 228
Width: 390
Flags: W
LayerCount: 2
Fore
SplineSet
130 -246 m 1,0,-1
 121 -212 l 1,1,2
 128 -206 128 -206 174 -174 c 0,3,4
 248 -121 248 -121 248 -68 c 128,-1,5
 248 -15 248 -15 231.5 -5.5 c 128,-1,6
 215 4 215 4 178 7 c 1,7,8
 100 11 100 11 85 53 c 0,9,10
 81 67 81 67 81 83 c 0,11,12
 81 140 81 140 139 161 c 0,13,14
 158 168 158 168 179 168 c 0,15,16
 256 168 256 168 296 84 c 0,17,18
 319 36 319 36 319 -18 c 0,19,20
 319 -158 319 -158 130 -246 c 1,0,-1
91 629 m 0,21,22
 91 669 91 669 117.5 696 c 128,-1,23
 144 723 144 723 183 723 c 256,24,25
 222 723 222 723 249.5 696 c 128,-1,26
 277 669 277 669 277 629 c 0,27,28
 277 591 277 591 249.5 564.5 c 128,-1,29
 222 538 222 538 183 538 c 256,30,31
 144 538 144 538 117.5 564.5 c 128,-1,32
 91 591 91 591 91 629 c 0,21,22
EndSplineSet
EndChar

StartChar: quoteleft
Encoding: 8216 8216 231
Width: 906
Flags: W
LayerCount: 2
Fore
SplineSet
510 1335 m 1,0,-1
 540 1296 l 1,1,2
 446 1247 446 1247 418 1211.5 c 128,-1,3
 390 1176 390 1176 390 1133 c 0,4,5
 390 1098 390 1098 405 1085.5 c 128,-1,6
 420 1073 420 1073 447 1071 c 0,7,8
 532 1062 532 1062 533 996 c 0,9,10
 533 959 533 959 507.5 934 c 128,-1,11
 482 909 482 909 437 909 c 1,12,13
 383 911 383 911 346 953.5 c 128,-1,14
 309 996 309 996 308 1082 c 1,15,16
 308 1174 308 1174 366 1239 c 128,-1,17
 424 1304 424 1304 510 1335 c 1,0,-1
EndSplineSet
EndChar

StartChar: quoteright
Encoding: 8217 8217 232
Width: 430
Flags: W
LayerCount: 2
Fore
SplineSet
223 1335 m 1,0,1
 309 1304 309 1304 367 1239 c 128,-1,2
 425 1174 425 1174 425 1082 c 1,3,4
 424 996 424 996 387 952.5 c 128,-1,5
 350 909 350 909 296 909 c 0,6,7
 251 909 251 909 225.5 934 c 128,-1,8
 200 959 200 959 200 996 c 0,9,10
 201 1062 201 1062 286 1071 c 0,11,12
 313 1073 313 1073 328 1085.5 c 128,-1,13
 343 1098 343 1098 343 1133 c 0,14,15
 343 1176 343 1176 315 1211.5 c 128,-1,16
 287 1247 287 1247 193 1296 c 1,17,-1
 223 1335 l 1,0,1
EndSplineSet
EndChar

StartChar: quotedblleft
Encoding: 8220 8220 233
Width: 1004
Flags: W
LayerCount: 2
Fore
SplineSet
510 1315 m 1,0,-1
 540 1276 l 1,1,2
 446 1227 446 1227 418 1191.5 c 128,-1,3
 390 1156 390 1156 390 1113 c 0,4,5
 390 1078 390 1078 405 1065.5 c 128,-1,6
 420 1053 420 1053 447 1051 c 0,7,8
 532 1042 532 1042 533 976 c 0,9,10
 533 939 533 939 507.5 914 c 128,-1,11
 482 889 482 889 437 889 c 1,12,13
 383 891 383 891 346 933.5 c 128,-1,14
 309 976 309 976 308 1062 c 1,15,16
 308 1154 308 1154 366 1219 c 128,-1,17
 424 1284 424 1284 510 1315 c 1,0,-1
810 1315 m 1,18,-1
 840 1276 l 1,19,20
 746 1227 746 1227 718 1191.5 c 128,-1,21
 690 1156 690 1156 690 1113 c 0,22,23
 690 1078 690 1078 705 1065.5 c 128,-1,24
 720 1053 720 1053 747 1051 c 0,25,26
 832 1042 832 1042 833 976 c 0,27,28
 833 939 833 939 807.5 914 c 128,-1,29
 782 889 782 889 737 889 c 1,30,31
 683 891 683 891 646 933.5 c 128,-1,32
 609 976 609 976 608 1062 c 1,33,34
 608 1154 608 1154 666 1219 c 128,-1,35
 724 1284 724 1284 810 1315 c 1,18,-1
EndSplineSet
EndChar

StartChar: quotedblright
Encoding: 8221 8221 234
Width: 860
Flags: W
LayerCount: 2
Fore
SplineSet
223 1315 m 1,0,1
 309 1284 309 1284 367 1219 c 128,-1,2
 425 1154 425 1154 425 1062 c 1,3,4
 424 976 424 976 387 932.5 c 128,-1,5
 350 889 350 889 296 889 c 0,6,7
 251 889 251 889 225.5 914 c 128,-1,8
 200 939 200 939 200 976 c 0,9,10
 201 1042 201 1042 286 1051 c 0,11,12
 313 1053 313 1053 328 1065.5 c 128,-1,13
 343 1078 343 1078 343 1113 c 0,14,15
 343 1156 343 1156 315 1191.5 c 128,-1,16
 287 1227 287 1227 193 1276 c 1,17,-1
 223 1315 l 1,0,1
543 1315 m 1,18,19
 629 1284 629 1284 687 1219 c 128,-1,20
 745 1154 745 1154 745 1062 c 1,21,22
 744 976 744 976 707 932.5 c 128,-1,23
 670 889 670 889 616 889 c 0,24,25
 571 889 571 889 545.5 914 c 128,-1,26
 520 939 520 939 520 976 c 0,27,28
 521 1042 521 1042 606 1051 c 0,29,30
 633 1053 633 1053 648 1065.5 c 128,-1,31
 663 1078 663 1078 663 1113 c 0,32,33
 663 1156 663 1156 635 1191.5 c 128,-1,34
 607 1227 607 1227 513 1276 c 1,35,-1
 543 1315 l 1,18,19
EndSplineSet
EndChar

StartChar: quotesingle
Encoding: 39 39 235
Width: 407
Flags: W
LayerCount: 2
Fore
SplineSet
198 878 m 1,0,-1
 158 894 l 1,1,2
 209 1066 209 1066 189.5 1133.5 c 128,-1,3
 170 1201 170 1201 130 1233 c 1,4,5
 204 1293 204 1293 266.5 1257 c 128,-1,6
 329 1221 329 1221 312 1113 c 128,-1,7
 295 1005 295 1005 198 878 c 1,0,-1
EndSplineSet
EndChar

StartChar: quotedbl
Encoding: 34 34 236
Width: 602
Flags: W
LayerCount: 2
Fore
SplineSet
425 878 m 1,0,-1
 385 894 l 1,1,2
 436 1066 436 1066 416.5 1133.5 c 128,-1,3
 397 1201 397 1201 357 1233 c 1,4,5
 431 1293 431 1293 493.5 1257 c 128,-1,6
 556 1221 556 1221 539 1113 c 128,-1,7
 522 1005 522 1005 425 878 c 1,0,-1
198 878 m 1,8,-1
 158 894 l 1,9,10
 209 1066 209 1066 189.5 1133.5 c 128,-1,11
 170 1201 170 1201 130 1233 c 1,12,13
 204 1293 204 1293 266.5 1257 c 128,-1,14
 329 1221 329 1221 312 1113 c 128,-1,15
 295 1005 295 1005 198 878 c 1,8,-1
EndSplineSet
EndChar

StartChar: guillemotleft
Encoding: 171 171 237
Width: 952
Flags: W
LayerCount: 2
Fore
SplineSet
425 507 m 1,0,-1
 792 830 l 1,1,-1
 792 802 l 2,2,3
 792 714 792 714 626 555 c 0,4,5
 554 486 554 486 530 473 c 1,6,7
 558 452 558 452 632 378 c 0,8,9
 791 216 791 216 792 139 c 1,10,-1
 792 111 l 1,11,-1
 425 438 l 1,12,-1
 425 507 l 1,0,-1
173 507 m 1,13,-1
 540 830 l 1,14,-1
 540 802 l 2,15,16
 540 714 540 714 373 555 c 0,17,18
 301 486 301 486 277 473 c 1,19,20
 297 461 297 461 370 388 c 0,21,22
 539 219 539 219 540 139 c 1,23,-1
 540 111 l 1,24,-1
 173 438 l 1,25,-1
 173 507 l 1,13,-1
EndSplineSet
EndChar

StartChar: guillemotright
Encoding: 187 187 238
Width: 787
Flags: W
LayerCount: 2
Fore
SplineSet
173 830 m 1,0,-1
 540 507 l 1,1,-1
 540 438 l 1,2,-1
 173 111 l 1,3,-1
 173 139 l 2,4,5
 173 224 173 224 365 409 c 0,6,7
 417 459 417 459 435 473 c 1,8,9
 412 485 412 485 339 555 c 0,10,11
 174 714 174 714 173 802 c 1,12,-1
 173 830 l 1,0,-1
425 830 m 1,13,-1
 792 507 l 1,14,-1
 792 438 l 1,15,-1
 425 111 l 1,16,-1
 425 139 l 2,17,18
 425 222 425 222 607 400 c 0,19,20
 670 462 670 462 688 473 c 1,21,22
 665 485 665 485 592 555 c 0,23,24
 426 714 426 714 425 802 c 1,25,-1
 425 830 l 1,13,-1
EndSplineSet
EndChar

StartChar: guilsinglleft
Encoding: 8249 8249 239
Width: 710
Flags: W
LayerCount: 2
Fore
SplineSet
173 507 m 1,0,-1
 540 830 l 1,1,-1
 540 802 l 2,2,3
 540 714 540 714 373 555 c 0,4,5
 301 486 301 486 277 473 c 1,6,7
 297 461 297 461 370 388 c 0,8,9
 539 219 539 219 540 139 c 1,10,-1
 540 111 l 1,11,-1
 173 438 l 1,12,-1
 173 507 l 1,0,-1
EndSplineSet
EndChar

StartChar: guilsinglright
Encoding: 8250 8250 240
Width: 595
Flags: W
LayerCount: 2
Fore
SplineSet
173 830 m 1,0,-1
 540 507 l 1,1,-1
 540 438 l 1,2,-1
 173 111 l 1,3,-1
 173 139 l 2,4,5
 173 224 173 224 365 409 c 0,6,7
 417 459 417 459 435 473 c 1,8,9
 412 485 412 485 339 555 c 0,10,11
 174 714 174 714 173 802 c 1,12,-1
 173 830 l 1,0,-1
EndSplineSet
EndChar

StartChar: emdash
Encoding: 8212 8212 241
Width: 2135
Flags: W
LayerCount: 2
Fore
SplineSet
2046 497 m 1,0,-1
 2046 417 l 1,1,-1
 90 417 l 1,2,-1
 90 497 l 1,3,-1
 2046 497 l 1,0,-1
EndSplineSet
EndChar

StartChar: fraction
Encoding: 8260 8260 242
Width: 1358
Flags: W
LayerCount: 2
Fore
SplineSet
887 1198 m 1,0,-1
 994 1198 l 1,1,-1
 284 -75 l 1,2,-1
 176 -75 l 1,3,-1
 887 1198 l 1,0,-1
EndSplineSet
EndChar

StartChar: slash
Encoding: 47 47 243
Width: 1358
Flags: W
LayerCount: 2
Fore
SplineSet
887 1198 m 1,0,-1
 994 1198 l 1,1,-1
 284 -75 l 1,2,-1
 176 -75 l 1,3,-1
 887 1198 l 1,0,-1
EndSplineSet
EndChar

StartChar: backslash
Encoding: 92 92 244
Width: 1358
Flags: W
LayerCount: 2
Fore
SplineSet
176 1198 m 1,0,-1
 284 1198 l 1,1,-1
 994 -75 l 1,2,-1
 887 -75 l 1,3,-1
 176 1198 l 1,0,-1
EndSplineSet
EndChar

StartChar: question
Encoding: 63 63 246
Width: 802
Flags: W
LayerCount: 2
Fore
SplineSet
166 422 m 0,0,1
 166 515 166 515 217 580 c 128,-1,2
 268 645 268 645 383 726 c 128,-1,3
 498 807 498 807 530 860 c 1,4,5
 563 910 563 910 563.5 969.5 c 128,-1,6
 564 1029 564 1029 509 1082.5 c 128,-1,7
 454 1136 454 1136 363 1136 c 0,8,9
 214 1136 214 1136 176 1046 c 1,10,11
 146 971 146 971 191 946 c 0,12,13
 217 932 217 932 225 917.5 c 128,-1,14
 233 903 233 903 233 878 c 0,15,16
 233 851 233 851 215 830 c 128,-1,17
 197 809 197 809 157.5 808.5 c 128,-1,18
 118 808 118 808 94 844.5 c 128,-1,19
 70 881 70 881 70 942 c 0,20,21
 70 1049 70 1049 164.5 1136.5 c 128,-1,22
 259 1224 259 1224 398 1224 c 0,23,24
 555 1224 555 1224 635.5 1150 c 128,-1,25
 716 1076 716 1076 716 957.5 c 128,-1,26
 716 839 716 839 593 736 c 0,27,28
 556 705 556 705 444.5 634.5 c 128,-1,29
 333 564 333 564 297 514.5 c 128,-1,30
 261 465 261 465 261 409 c 128,-1,31
 261 353 261 353 289 326.5 c 128,-1,32
 317 300 317 300 355 300 c 128,-1,33
 393 300 393 300 415 332.5 c 128,-1,34
 437 365 437 365 473 365 c 1,35,36
 529 363 529 363 530 307 c 0,37,38
 530 264 530 264 482.5 245.5 c 128,-1,39
 435 227 435 227 377 227 c 0,40,41
 273 227 273 227 219.5 288.5 c 128,-1,42
 166 350 166 350 166 422 c 0,0,1
285 76 m 0,43,44
 285 116 285 116 311.5 143 c 128,-1,45
 338 170 338 170 377 170 c 256,46,47
 416 170 416 170 443.5 143 c 128,-1,48
 471 116 471 116 471 76 c 0,49,50
 471 38 471 38 443.5 11.5 c 128,-1,51
 416 -15 416 -15 377 -15 c 256,52,53
 338 -15 338 -15 311.5 11.5 c 128,-1,54
 285 38 285 38 285 76 c 0,43,44
EndSplineSet
EndChar
